<svg xmlns="http://www.w3.org/2000/svg">
	<symbol id="star" viewBox="0 0 22 22">
		<title>The Commonwealth Star</title>
		<path fill="#fff" fill-rule="evenodd" d="M11 0L8.553 6.36 2.178 4.356l3.322 5.93-5.5 3.86 6.59 1.035L6.103 22 11 17.36 15.895 22l-.483-6.82L22
			14.148l-5.5-3.862 3.322-5.928-6.374 2.002"/>
	</symbol>
	<symbol id="star-dark" viewBox="0 0 22 22">
		<title>The Commonwealth Star</title>
		<path fill="#313131" fill-rule="evenodd" d="M11 0L8.553 6.36 2.178 4.356l3.322 5.93-5.5 3.86 6.59 1.035L6.103 22 11 17.36 15.895 22l-.483-6.82L22
			14.148l-5.5-3.862 3.322-5.928-6.374 2.002"/>
	</symbol>
	<symbol id="hamburger" viewBox="0 0 24 17">
		<title>Hamburger menu</title>
		<path
			fill="#fff" fill-rule="evenodd" d="M24 16c0 .27-.1.505-.297.703-.198.198-.432.297-.703.297H1c-.27 0-.505-.1-.703-.297C.1 16.505 0 16.27 0
			16v-1c0-.27.1-.505.297-.703C.495 14.1.73 14 1 14h22c.27 0 .505.1.703.297.198.198.297.432.297.703v1zm0-7c0 .27-.1.505-.297.703C23.505 9.9 23.27 10
			23 10H1c-.27 0-.505-.1-.703-.297C.1 9.505 0 9.27 0 9V8c0-.27.1-.505.297-.703C.495 7.1.73 7 1 7h22c.27 0 .505.1.703.297.198.198.297.432.297.703v1zm0-7c0
			.27-.1.505-.297.703C23.505 2.9 23.27 3 23 3H1c-.27 0-.505-.1-.703-.297C.1 2.505 0 2.27 0 2V1C0 .73.1.495.297.297.495.1.73 0 1 0h22c.27 0
			.505.1.703.297C23.9.495 24 .73 24 1v1z"/>
	</symbol>
</svg>
