<svg xmlns="http://www.w3.org/2000/svg">
	<symbol id="star" viewBox="0 0 22 22">
		<title>The Commonwealth Star</title>
		<path fill="#fff" fill-rule="evenodd" d="M11 0L8.553 6.36 2.178 4.356l3.322 5.93-5.5 3.86 6.59 1.035L6.103 22 11 17.36 15.895 22l-.483-6.82L22
			14.148l-5.5-3.862 3.322-5.928-6.374 2.002"/>
	</symbol>
	<symbol id="star-dark" viewBox="0 0 22 22">
		<title>The Commonwealth Star</title>
		<path fill="#313131" fill-rule="evenodd" d="M11 0L8.553 6.36 2.178 4.356l3.322 5.93-5.5 3.86 6.59 1.035L6.103 22 11 17.36 15.895 22l-.483-6.82L22
			14.148l-5.5-3.862 3.322-5.928-6.374 2.002"/>
	</symbol>
	<symbol id="calendar" viewBox="0 0 42 44">
		<title>Calendar</title>
			<path fill="#FFF" fill-rule="evenodd" d="M19.25 33H22v2.75h-2.75V33zm0
			5.5H22c1.518 0 2.75-1.232 2.75-2.75V33c0-1.518-1.232-2.75-2.75-2.75h-2.75c-1.518 0-2.75 1.232-2.75 2.75v2.75c0 1.518 1.232 2.75 2.75
			2.75zm-11-5.5H11v2.75H8.25V33zm0 5.5H11c1.518 0 2.75-1.232 2.75-2.75V33c0-1.518-1.232-2.75-2.75-2.75H8.25c-1.518 0-2.75 1.232-2.75 2.75v2.75c0 1.518
			1.232 2.75 2.75 2.75zm11-16.5H22v2.75h-2.75V22zm0 5.5H22c1.518 0 2.75-1.232 2.75-2.75V22c0-1.518-1.232-2.75-2.75-2.75h-2.75c-1.518 0-2.75 1.232-2.75
			2.75v2.75c0 1.518 1.232 2.75 2.75 2.75zm-11-5.5H11v2.75H8.25V22zm0 5.5H11c1.518 0 2.75-1.232 2.75-2.75V22c0-1.518-1.232-2.75-2.75-2.75H8.25c-1.518
			0-2.75 1.232-2.75 2.75v2.75c0 1.518 1.232 2.75 2.75 2.75zM38.5 11H2.75V8.25c0-1.518 1.232-2.75 2.75-2.75H11v1.375c0 .76.615 1.375 1.375 1.375s1.375-.615
			1.375-1.375V5.5H27.5v1.375c0 .76.615 1.375 1.375 1.375s1.375-.615 1.375-1.375V5.5h5.5c1.518 0 2.75 1.232 2.75 2.75V11zm0 27.5c0 1.518-1.232 2.75-2.75
			2.75H5.5c-1.518 0-2.75-1.232-2.75-2.75V13.75H38.5V38.5zM35.75 2.75h-5.5V1.375C30.25.615 29.635 0 28.875 0S27.5.616 27.5 1.375V2.75H13.75V1.375C13.75.615
			13.135 0 12.375 0S11 .616 11 1.375V2.75H5.5C2.463 2.75 0 5.213 0 8.25V38.5C0 41.537 2.463 44 5.5 44h30.25c3.037 0 5.5-2.463
			5.5-5.5V8.25c0-3.037-2.463-5.5-5.5-5.5zM30.25 22H33v2.75h-2.75V22zm0 5.5H33c1.518 0 2.75-1.232 2.75-2.75V22c0-1.518-1.232-2.75-2.75-2.75h-2.75c-1.518
			0-2.75 1.232-2.75 2.75v2.75c0 1.518 1.232 2.75 2.75 2.75zm0 5.5H33v2.75h-2.75V33zm0 5.5H33c1.518 0 2.75-1.232
			2.75-2.75V33c0-1.518-1.232-2.75-2.75-2.75h-2.75c-1.518 0-2.75 1.232-2.75 2.75v2.75c0 1.518 1.232 2.75 2.75 2.75z"/>
	</symbol>
	<symbol id="calendar-dark" viewBox="0 0 42 44">
		<title>Calendar</title>
			<path fill="#313131" fill-rule="evenodd" d="M19.25 33H22v2.75h-2.75V33zm0
			5.5H22c1.518 0 2.75-1.232 2.75-2.75V33c0-1.518-1.232-2.75-2.75-2.75h-2.75c-1.518 0-2.75 1.232-2.75 2.75v2.75c0 1.518 1.232 2.75 2.75
			2.75zm-11-5.5H11v2.75H8.25V33zm0 5.5H11c1.518 0 2.75-1.232 2.75-2.75V33c0-1.518-1.232-2.75-2.75-2.75H8.25c-1.518 0-2.75 1.232-2.75 2.75v2.75c0 1.518
			1.232 2.75 2.75 2.75zm11-16.5H22v2.75h-2.75V22zm0 5.5H22c1.518 0 2.75-1.232 2.75-2.75V22c0-1.518-1.232-2.75-2.75-2.75h-2.75c-1.518 0-2.75 1.232-2.75
			2.75v2.75c0 1.518 1.232 2.75 2.75 2.75zm-11-5.5H11v2.75H8.25V22zm0 5.5H11c1.518 0 2.75-1.232 2.75-2.75V22c0-1.518-1.232-2.75-2.75-2.75H8.25c-1.518
			0-2.75 1.232-2.75 2.75v2.75c0 1.518 1.232 2.75 2.75 2.75zM38.5 11H2.75V8.25c0-1.518 1.232-2.75 2.75-2.75H11v1.375c0 .76.615 1.375 1.375 1.375s1.375-.615
			1.375-1.375V5.5H27.5v1.375c0 .76.615 1.375 1.375 1.375s1.375-.615 1.375-1.375V5.5h5.5c1.518 0 2.75 1.232 2.75 2.75V11zm0 27.5c0 1.518-1.232 2.75-2.75
			2.75H5.5c-1.518 0-2.75-1.232-2.75-2.75V13.75H38.5V38.5zM35.75 2.75h-5.5V1.375C30.25.615 29.635 0 28.875 0S27.5.616 27.5 1.375V2.75H13.75V1.375C13.75.615
			13.135 0 12.375 0S11 .616 11 1.375V2.75H5.5C2.463 2.75 0 5.213 0 8.25V38.5C0 41.537 2.463 44 5.5 44h30.25c3.037 0 5.5-2.463
			5.5-5.5V8.25c0-3.037-2.463-5.5-5.5-5.5zM30.25 22H33v2.75h-2.75V22zm0 5.5H33c1.518 0 2.75-1.232 2.75-2.75V22c0-1.518-1.232-2.75-2.75-2.75h-2.75c-1.518
			0-2.75 1.232-2.75 2.75v2.75c0 1.518 1.232 2.75 2.75 2.75zm0 5.5H33v2.75h-2.75V33zm0 5.5H33c1.518 0 2.75-1.232
			2.75-2.75V33c0-1.518-1.232-2.75-2.75-2.75h-2.75c-1.518 0-2.75 1.232-2.75 2.75v2.75c0 1.518 1.232 2.75 2.75 2.75z"/>
	</symbol>
</svg>
