
<svg width="960px" height="245px" viewBox="0 0 960 245" version="1.1" xmlns="http://www.w3.org/2000/svg" xmlns:xlink="http://www.w3.org/1999/xlink">
    <g id="Page-1" stroke="none" stroke-width="1" fill="none" fill-rule="evenodd">
        <g id="objectives-goals" transform="translate(-1.000000, -208.000000)">
            <mask id="mask-2" fill="white">
                <use xlink:href="#path-1"></use>
            </mask>
            <g id="Shape"></g>
            <polygon id="Shape" fill-opacity="0" fill="#000000" points="0 0 960 0 960 684 0 684"></polygon>
            <path d="M865.820497,262.129153 C891.063659,262.129153 915.272948,272.183926 933.12255,290.08154 C950.972156,307.979154 961,332.253528 961,357.56457 C961,410.272096 918.386671,453 865.820493,453 C813.254278,453 770.640986,410.2721 770.640986,357.56457 C770.640989,304.857044 813.254279,262.129153 865.820497,262.129153 Z" id="Shape" fill="#666666"></path>
            <path d="M852.855603,358.979712 L852.855603,357.177972 L859.235791,357.169591 L859.235791,362.868119 C858.260127,363.661443 857.251574,364.25923 856.210135,364.661479 C855.168695,365.063728 854.099849,365.264852 853.003597,365.264852 C851.523656,365.264852 850.178006,364.943612 848.966647,364.301131 C847.755289,363.653063 846.839918,362.717275 846.220535,361.493768 C845.606634,360.270261 845.299683,358.90429 845.299683,357.395856 C845.299683,355.904183 845.606634,354.510279 846.220535,353.214143 C846.834437,351.918007 847.71692,350.957079 848.867985,350.331359 C850.01905,349.700051 851.345515,349.384397 852.847381,349.384397 C853.938152,349.384397 854.922038,349.565968 855.79904,349.92911 C856.681523,350.286664 857.372162,350.786682 857.870957,351.429163 C858.369752,352.071644 858.7507,352.909663 859.0138,353.943219 L857.213206,354.446031 C856.988474,353.66388 856.706189,353.049333 856.366351,352.602389 C856.031994,352.155446 855.552383,351.797891 854.927519,351.529725 C854.308137,351.261559 853.617498,351.127476 852.855603,351.127476 C851.945713,351.127476 851.156411,351.26994 850.487698,351.554866 C849.824465,351.834206 849.290042,352.205727 848.884428,352.669431 C848.478815,353.127548 848.160902,353.633152 847.930689,354.186245 C847.547001,355.135999 847.355156,356.163969 847.355156,357.270154 C847.355156,358.638918 847.585369,359.78421 848.045795,360.70603 C848.511703,361.627851 849.185898,362.312233 850.068381,362.759176 C850.956345,363.20612 851.896382,363.429591 852.88849,363.429591 C853.749048,363.429591 854.590422,363.261988 855.412611,362.92678 C856.2348,362.585986 856.859664,362.222844 857.287203,361.837356 L857.287203,358.979712 L852.855603,358.979712 Z M861.25221,359.440622 C861.25221,357.379096 861.81404,355.853902 862.937698,354.86504 C863.874994,354.038195 865.020578,353.624772 866.374449,353.624772 C867.870834,353.624772 869.095896,354.127583 870.049635,355.133206 C871.003375,356.133242 871.480245,357.515973 871.480245,359.281399 C871.480245,360.717204 871.269216,361.845736 870.847159,362.666994 C870.425102,363.482666 869.8112,364.11956 869.005455,364.577677 C868.199709,365.030207 867.322708,365.256472 866.374449,365.256472 C864.845177,365.256472 863.609153,364.756454 862.666376,363.756419 C861.723599,362.756383 861.25221,361.317784 861.25221,359.440622 Z M863.151467,359.440622 C863.151467,360.865254 863.455677,361.932331 864.064097,362.641854 C864.677999,363.351376 865.448116,363.706138 866.374449,363.706138 C867.28982,363.706138 868.051715,363.351376 868.660135,362.641854 C869.274037,361.926744 869.580987,360.840113 869.580987,359.381961 C869.580987,358.002023 869.274037,356.960087 868.660135,356.256151 C868.046234,355.546629 867.284339,355.191867 866.374449,355.191867 C865.448116,355.191867 864.677999,355.543835 864.064097,356.247771 C863.455677,356.951707 863.151467,358.01599 863.151467,359.440622 Z M880.768928,363.630716 C880.083771,364.222916 879.423279,364.641925 878.787452,364.887744 C878.157107,365.133563 877.477431,365.256472 876.748423,365.256472 C875.553508,365.256472 874.632656,364.957579 873.985867,364.359792 C873.344559,363.762005 873.023905,362.999408 873.023905,362.072001 C873.023905,361.524495 873.144493,361.027271 873.385669,360.580328 C873.626844,360.127798 873.944757,359.76745 874.339408,359.499284 C874.734059,359.225531 875.178041,359.018819 875.671355,358.87915 C876.033118,358.778587 876.581244,358.683612 877.315733,358.594223 C878.812118,358.409859 879.911111,358.191974 880.612712,357.940569 C880.623675,357.683576 880.629156,357.521559 880.629156,357.454518 C880.629156,356.683541 880.453756,356.141622 880.102955,355.828761 C879.631566,355.404165 878.929965,355.191867 877.99815,355.191867 C877.12663,355.191867 876.482582,355.348297 876.066006,355.661158 C875.654911,355.968431 875.34796,356.515937 875.145154,357.303674 L873.336337,357.052269 C873.500775,356.264531 873.772098,355.627637 874.150305,355.141586 C874.528512,354.655535 875.073897,354.28122 875.786461,354.018641 C876.499025,353.756062 877.323955,353.624772 878.261251,353.624772 C879.193066,353.624772 879.94948,353.736508 880.530493,353.95998 C881.116988,354.183451 881.547267,354.465584 881.821331,354.806379 C882.095394,355.147173 882.287238,355.574562 882.396863,356.088547 C882.457157,356.412581 882.487304,356.993608 882.487304,357.831626 L882.487304,360.345682 C882.487304,362.094348 882.525673,363.203326 882.60241,363.672617 C882.684629,364.13632 882.840845,364.58047 883.071058,365.005067 L881.138913,365.005067 C880.947069,364.613991 880.823741,364.155874 880.768928,363.630716 Z M880.612712,359.423862 C879.943998,359.703201 878.938187,359.94064 877.595278,360.136178 C876.833382,360.247914 876.293478,360.373616 875.975565,360.513286 C875.663133,360.652956 875.421957,360.856874 875.252038,361.12504 C875.082119,361.393206 874.99716,361.692099 874.99716,362.02172 C874.99716,362.524531 875.183523,362.94354 875.556248,363.278748 C875.928974,363.613955 876.47436,363.781559 877.192405,363.781559 C877.904969,363.781559 878.538055,363.622336 879.091662,363.303889 C879.650751,362.985441 880.059105,362.549672 880.316724,361.996579 C880.51405,361.571983 880.612712,360.943469 880.612712,360.111037 L880.612712,359.423862 Z M885.313579,365.005067 L885.313579,349.644183 L887.163505,349.644183 L887.163505,365.005067 L885.313579,365.005067 Z" id="Shape" fill="#FFFFFF" fill-rule="nonzero"></path>
            <polygon id="Shape" fill="#F0F0F0" points="3.65842362 208.523719 153.700921 208.523719 78.6796832 306.372852"></polygon>
            <polygon id="Shape" stroke="#858585" stroke-linejoin="round" points="3.65842362 208.523719 153.700921 208.523719 78.6796832 306.372852"></polygon>
            <path d="M36.8610213,221.889702 C40.7641266,221.889702 43.2188507,224.640926 43.2188507,229.040968 C43.2188507,233.441009 40.7641266,236.182647 36.8610213,236.182647 C32.9485109,236.182647 30.5031918,233.441009 30.5031918,229.040968 C30.5031918,224.640926 32.9485109,221.889702 36.8610213,221.889702 Z M36.8610213,223.778173 C34.2840312,223.778173 32.6569536,225.810436 32.6569536,229.040968 C32.6569536,232.261913 34.2840312,234.294176 36.8610213,234.294176 C39.4380113,234.294176 41.0556839,232.261913 41.0556839,229.040968 C41.0556839,225.810436 39.4380113,223.778173 36.8610213,223.778173 Z M50.2444403,236.058028 C48.7960591,236.058028 47.6768554,235.40617 47.0655256,234.23666 L47.0279053,234.23666 L47.0279053,235.95258 L45.05284,235.95258 L45.05284,222.119769 L47.0843357,222.119769 L47.0843357,227.545529 L47.1313611,227.545529 C47.7238807,226.414363 48.8524895,225.762505 50.2538454,225.762505 C52.7461898,225.762505 54.3732674,227.785182 54.3732674,230.910266 C54.3732674,234.044937 52.7461898,236.058028 50.2444403,236.058028 Z M49.6989461,227.526356 C48.1377039,227.526356 47.0749307,228.897175 47.0749307,230.910266 C47.0749307,232.94253 48.1282989,234.303763 49.6989461,234.303763 C51.2601882,234.303763 52.2853412,232.980874 52.2853412,230.910266 C52.2853412,228.858831 51.2601882,227.526356 49.6989461,227.526356 Z M58.050651,225.867953 L58.050651,236.431887 C58.050651,238.483323 57.0066879,239.46111 54.8153058,239.46111 C54.7212551,239.46111 54.4014826,239.46111 54.3450522,239.441938 L54.3450522,237.812293 C54.3826725,237.812293 54.5989892,237.821879 54.6366095,237.821879 C55.6429523,237.821879 56.0191552,237.438433 56.0191552,236.422301 L56.0191552,225.867953 L58.050651,225.867953 Z M57.0349031,224.391686 C56.3859531,224.391686 55.859269,223.864448 55.859269,223.21259 C55.859269,222.54156 56.3859531,222.023908 57.0349031,222.023908 C57.6932582,222.023908 58.2199423,222.54156 58.2199423,223.21259 C58.2199423,223.864448 57.6932582,224.391686 57.0349031,224.391686 Z M64.2674043,227.420909 C62.8660484,227.420909 61.8503005,228.456213 61.7468447,229.98041 L66.6939132,229.98041 C66.6468878,228.43704 65.6781653,227.420909 64.2674043,227.420909 Z M66.6845081,232.99046 L68.6125481,232.99046 C68.339801,234.821415 66.5904574,236.0772 64.35205,236.0772 C61.4740976,236.0772 59.6871337,234.11204 59.6871337,230.958197 C59.6871337,227.794768 61.4835027,225.743333 64.2674043,225.743333 C67.0042806,225.743333 68.725409,227.660562 68.725409,230.718543 L68.725409,231.427918 L61.7374397,231.427918 L61.7374397,231.552538 C61.7374397,233.278045 62.8002129,234.40921 64.3990753,234.40921 C65.5276841,234.40921 66.411761,233.8628 66.6845081,232.99046 Z M78.7888372,229.338138 L76.8513921,229.338138 C76.6726958,228.274076 75.8544544,227.478426 74.518934,227.478426 C72.9576919,227.478426 71.9231338,228.8109 71.9231338,230.910266 C71.9231338,233.057563 72.9670969,234.351693 74.5377442,234.351693 C75.798024,234.351693 76.6256704,233.709421 76.8513921,232.539911 L78.8076474,232.539911 C78.5819256,234.65845 76.9172277,236.0772 74.518934,236.0772 C71.6974121,236.0772 69.8540177,234.11204 69.8540177,230.910266 C69.8540177,227.775596 71.6974121,225.743333 74.5001239,225.743333 C77.0394936,225.743333 78.6195459,227.372978 78.7888372,229.338138 Z M80.8391431,223.481002 L82.880044,223.481002 L82.880044,225.867953 L84.7610586,225.867953 L84.7610586,227.507184 L82.880044,227.507184 L82.880044,233.06715 C82.880044,233.929903 83.2562469,234.332521 84.0838934,234.332521 C84.290805,234.332521 84.6199825,234.303763 84.7516536,234.28459 L84.7516536,235.914235 C84.5259318,235.971752 84.0744883,236.010097 83.6230448,236.010097 C81.6197642,236.010097 80.8391431,235.243205 80.8391431,233.287631 L80.8391431,227.507184 L79.400167,227.507184 L79.400167,225.867953 L80.8391431,225.867953 L80.8391431,223.481002 Z M86.4915921,235.95258 L86.4915921,225.867953 L88.5230879,225.867953 L88.5230879,235.95258 L86.4915921,235.95258 Z M87.50734,224.391686 C86.8583899,224.391686 86.3317058,223.864448 86.3317058,223.21259 C86.3317058,222.54156 86.8583899,222.023908 87.50734,222.023908 C88.1656951,222.023908 88.6923792,222.54156 88.6923792,223.21259 C88.6923792,223.864448 88.1656951,224.391686 87.50734,224.391686 Z M99.0473647,225.867953 L95.5016521,235.95258 L93.3196752,235.95258 L89.7551525,225.867953 L91.9183193,225.867953 L94.4012586,233.929903 L94.4388789,233.929903 L96.9218182,225.867953 L99.0473647,225.867953 Z M104.351826,227.420909 C102.95047,227.420909 101.934722,228.456213 101.831266,229.98041 L106.778335,229.98041 C106.731309,228.43704 105.762587,227.420909 104.351826,227.420909 Z M106.76893,232.99046 L108.69697,232.99046 C108.424223,234.821415 106.674879,236.0772 104.436472,236.0772 C101.558519,236.0772 99.7715553,234.11204 99.7715553,230.958197 C99.7715553,227.794768 101.567924,225.743333 104.351826,225.743333 C107.088702,225.743333 108.809831,227.660562 108.809831,230.718543 L108.809831,231.427918 L101.821861,231.427918 L101.821861,231.552538 C101.821861,233.278045 102.884635,234.40921 104.483497,234.40921 C105.612106,234.40921 106.496183,233.8628 106.76893,232.99046 Z M117.76346,235.95258 L117.76346,224.247894 L117.716435,224.247894 L114.170722,226.816981 L114.170722,224.708029 L117.74465,222.119769 L119.823171,222.119769 L119.823171,235.95258 L117.76346,235.95258 Z" id="Objective-1" fill="#313131"></path>
            <path d="M65.1796964,268.673297 L63.07296,268.673297 L63.07296,254.840486 L65.1796964,254.840486 L65.1796964,261.426169 L65.2643421,261.426169 L70.9356012,254.840486 L73.4373506,254.840486 L68.0576488,260.966034 L73.8887941,268.673297 L71.2741838,268.673297 L66.5716472,262.442301 L65.1796964,264.06236 L65.1796964,268.673297 Z M75.2337196,254.840486 L80.3218641,254.840486 C82.9552846,254.840486 84.7892739,256.690612 84.7892739,259.38432 C84.7892739,262.087613 82.9176643,263.947326 80.2560286,263.947326 L77.3404559,263.947326 L77.3404559,268.673297 L75.2337196,268.673297 L75.2337196,254.840486 Z M77.3404559,256.652268 L77.3404559,262.14513 L79.7575597,262.14513 C81.591549,262.14513 82.6355121,261.138585 82.6355121,259.393906 C82.6355121,257.649227 81.591549,256.652268 79.7669648,256.652268 L77.3404559,256.652268 Z M88.7394046,268.673297 L86.6326682,268.673297 L86.6326682,254.840486 L88.7394046,254.840486 L88.7394046,268.673297 Z" id="KPI" fill="#313131"></path>
            <polygon id="Shape-Copy-2" fill="#F0F0F0" points="174.872555 208.523719 324.915052 208.523719 249.893814 306.372852"></polygon>
            <polygon id="Shape-Copy" stroke="#858585" stroke-linejoin="round" points="174.872555 208.523719 324.915052 208.523719 249.893814 306.372852"></polygon>
            <path d="M206.894816,221.889702 C210.797921,221.889702 213.252645,224.640926 213.252645,229.040968 C213.252645,233.441009 210.797921,236.182647 206.894816,236.182647 C202.982305,236.182647 200.536986,233.441009 200.536986,229.040968 C200.536986,224.640926 202.982305,221.889702 206.894816,221.889702 Z M206.894816,223.778173 C204.317826,223.778173 202.690748,225.810436 202.690748,229.040968 C202.690748,232.261913 204.317826,234.294176 206.894816,234.294176 C209.471806,234.294176 211.089478,232.261913 211.089478,229.040968 C211.089478,225.810436 209.471806,223.778173 206.894816,223.778173 Z M220.278235,236.058028 C218.829853,236.058028 217.71065,235.40617 217.09932,234.23666 L217.0617,234.23666 L217.0617,235.95258 L215.086634,235.95258 L215.086634,222.119769 L217.11813,222.119769 L217.11813,227.545529 L217.165155,227.545529 C217.757675,226.414363 218.886284,225.762505 220.28764,225.762505 C222.779984,225.762505 224.407062,227.785182 224.407062,230.910266 C224.407062,234.044937 222.779984,236.058028 220.278235,236.058028 Z M219.73274,227.526356 C218.171498,227.526356 217.108725,228.897175 217.108725,230.910266 C217.108725,232.94253 218.162093,234.303763 219.73274,234.303763 C221.293982,234.303763 222.319135,232.980874 222.319135,230.910266 C222.319135,228.858831 221.293982,227.526356 219.73274,227.526356 Z M228.084445,225.867953 L228.084445,236.431887 C228.084445,238.483323 227.040482,239.46111 224.8491,239.46111 C224.755049,239.46111 224.435277,239.46111 224.378846,239.441938 L224.378846,237.812293 C224.416467,237.812293 224.632783,237.821879 224.670404,237.821879 C225.676747,237.821879 226.052949,237.438433 226.052949,236.422301 L226.052949,225.867953 L228.084445,225.867953 Z M227.068697,224.391686 C226.419747,224.391686 225.893063,223.864448 225.893063,223.21259 C225.893063,222.54156 226.419747,222.023908 227.068697,222.023908 C227.727053,222.023908 228.253737,222.54156 228.253737,223.21259 C228.253737,223.864448 227.727053,224.391686 227.068697,224.391686 Z M234.301199,227.420909 C232.899843,227.420909 231.884095,228.456213 231.780639,229.98041 L236.727707,229.98041 C236.680682,228.43704 235.71196,227.420909 234.301199,227.420909 Z M236.718302,232.99046 L238.646342,232.99046 C238.373595,234.821415 236.624252,236.0772 234.385844,236.0772 C231.507892,236.0772 229.720928,234.11204 229.720928,230.958197 C229.720928,227.794768 231.517297,225.743333 234.301199,225.743333 C237.038075,225.743333 238.759203,227.660562 238.759203,230.718543 L238.759203,231.427918 L231.771234,231.427918 L231.771234,231.552538 C231.771234,233.278045 232.834007,234.40921 234.43287,234.40921 C235.561478,234.40921 236.445555,233.8628 236.718302,232.99046 Z M248.822631,229.338138 L246.885186,229.338138 C246.70649,228.274076 245.888249,227.478426 244.552728,227.478426 C242.991486,227.478426 241.956928,228.8109 241.956928,230.910266 C241.956928,233.057563 243.000891,234.351693 244.571538,234.351693 C245.831818,234.351693 246.659465,233.709421 246.885186,232.539911 L248.841442,232.539911 C248.61572,234.65845 246.951022,236.0772 244.552728,236.0772 C241.731206,236.0772 239.887812,234.11204 239.887812,230.910266 C239.887812,227.775596 241.731206,225.743333 244.533918,225.743333 C247.073288,225.743333 248.65334,227.372978 248.822631,229.338138 Z M250.872937,223.481002 L252.913838,223.481002 L252.913838,225.867953 L254.794853,225.867953 L254.794853,227.507184 L252.913838,227.507184 L252.913838,233.06715 C252.913838,233.929903 253.290041,234.332521 254.117688,234.332521 C254.324599,234.332521 254.653777,234.303763 254.785448,234.28459 L254.785448,235.914235 C254.559726,235.971752 254.108283,236.010097 253.656839,236.010097 C251.653558,236.010097 250.872937,235.243205 250.872937,233.287631 L250.872937,227.507184 L249.433961,227.507184 L249.433961,225.867953 L250.872937,225.867953 L250.872937,223.481002 Z M256.525386,235.95258 L256.525386,225.867953 L258.556882,225.867953 L258.556882,235.95258 L256.525386,235.95258 Z M257.541134,224.391686 C256.892184,224.391686 256.3655,223.864448 256.3655,223.21259 C256.3655,222.54156 256.892184,222.023908 257.541134,222.023908 C258.199489,222.023908 258.726173,222.54156 258.726173,223.21259 C258.726173,223.864448 258.199489,224.391686 257.541134,224.391686 Z M269.081159,225.867953 L265.535446,235.95258 L263.353469,235.95258 L259.788947,225.867953 L261.952114,225.867953 L264.435053,233.929903 L264.472673,233.929903 L266.955612,225.867953 L269.081159,225.867953 Z M274.38562,227.420909 C272.984264,227.420909 271.968516,228.456213 271.865061,229.98041 L276.812129,229.98041 C276.765104,228.43704 275.796381,227.420909 274.38562,227.420909 Z M276.802724,232.99046 L278.730764,232.99046 C278.458017,234.821415 276.708673,236.0772 274.470266,236.0772 C271.592313,236.0772 269.80535,234.11204 269.80535,230.958197 C269.80535,227.794768 271.601719,225.743333 274.38562,225.743333 C277.122496,225.743333 278.843625,227.660562 278.843625,230.718543 L278.843625,231.427918 L271.855656,231.427918 L271.855656,231.552538 C271.855656,233.278045 272.918429,234.40921 274.517291,234.40921 C275.6459,234.40921 276.529977,233.8628 276.802724,232.99046 Z M284.251542,226.17471 C284.251542,223.682311 286.217202,221.860943 288.916458,221.860943 C291.502853,221.860943 293.430893,223.538519 293.430893,225.733747 C293.430893,227.34422 292.584437,228.542488 290.599966,230.613096 L287.204735,234.092867 L287.204735,234.140798 L293.64721,234.140798 L293.64721,235.95258 L284.364403,235.95258 L284.364403,234.495486 L289.264446,229.405241 C290.919739,227.650976 291.352372,226.922429 291.352372,225.839194 C291.352372,224.612168 290.261384,223.63438 288.850623,223.63438 C287.364621,223.63438 286.245417,224.727201 286.245417,226.165123 L286.245417,226.193882 L284.251542,226.193882 L284.251542,226.17471 Z" id="Objective-2" fill="#313131"></path>
            <path d="M236.393827,268.673297 L234.287091,268.673297 L234.287091,254.840486 L236.393827,254.840486 L236.393827,261.426169 L236.478473,261.426169 L242.149732,254.840486 L244.651482,254.840486 L239.27178,260.966034 L245.102925,268.673297 L242.488315,268.673297 L237.785778,262.442301 L236.393827,264.06236 L236.393827,268.673297 Z M246.447851,254.840486 L251.535995,254.840486 C254.169416,254.840486 256.003405,256.690612 256.003405,259.38432 C256.003405,262.087613 254.131795,263.947326 251.47016,263.947326 L248.554587,263.947326 L248.554587,268.673297 L246.447851,268.673297 L246.447851,254.840486 Z M248.554587,256.652268 L248.554587,262.14513 L250.971691,262.14513 C252.80568,262.14513 253.849643,261.138585 253.849643,259.393906 C253.849643,257.649227 252.80568,256.652268 250.981096,256.652268 L248.554587,256.652268 Z M259.953536,268.673297 L257.846799,268.673297 L257.846799,254.840486 L259.953536,254.840486 L259.953536,268.673297 Z" id="KPI-Copy" fill="#313131"></path>
            <polygon id="Shape-Copy-4" fill="#F0F0F0" points="346.086686 208.523719 496.129183 208.523719 421.107945 306.372852"></polygon>
            <polygon id="Shape-Copy-3" stroke="#858585" stroke-linejoin="round" points="346.086686 208.523719 496.129183 208.523719 421.107945 306.372852"></polygon>
            <path d="M377.85501,221.889702 C381.758115,221.889702 384.212839,224.640926 384.212839,229.040968 C384.212839,233.441009 381.758115,236.182647 377.85501,236.182647 C373.942499,236.182647 371.49718,233.441009 371.49718,229.040968 C371.49718,224.640926 373.942499,221.889702 377.85501,221.889702 Z M377.85501,223.778173 C375.27802,223.778173 373.650942,225.810436 373.650942,229.040968 C373.650942,232.261913 375.27802,234.294176 377.85501,234.294176 C380.432,234.294176 382.049672,232.261913 382.049672,229.040968 C382.049672,225.810436 380.432,223.778173 377.85501,223.778173 Z M391.238429,236.058028 C389.790047,236.058028 388.670844,235.40617 388.059514,234.23666 L388.021894,234.23666 L388.021894,235.95258 L386.046828,235.95258 L386.046828,222.119769 L388.078324,222.119769 L388.078324,227.545529 L388.125349,227.545529 C388.717869,226.414363 389.846478,225.762505 391.247834,225.762505 C393.740178,225.762505 395.367256,227.785182 395.367256,230.910266 C395.367256,234.044937 393.740178,236.058028 391.238429,236.058028 Z M390.692934,227.526356 C389.131692,227.526356 388.068919,228.897175 388.068919,230.910266 C388.068919,232.94253 389.122287,234.303763 390.692934,234.303763 C392.254176,234.303763 393.279329,232.980874 393.279329,230.910266 C393.279329,228.858831 392.254176,227.526356 390.692934,227.526356 Z M399.044639,225.867953 L399.044639,236.431887 C399.044639,238.483323 398.000676,239.46111 395.809294,239.46111 C395.715243,239.46111 395.395471,239.46111 395.33904,239.441938 L395.33904,237.812293 C395.376661,237.812293 395.592977,237.821879 395.630598,237.821879 C396.636941,237.821879 397.013143,237.438433 397.013143,236.422301 L397.013143,225.867953 L399.044639,225.867953 Z M398.028891,224.391686 C397.379941,224.391686 396.853257,223.864448 396.853257,223.21259 C396.853257,222.54156 397.379941,222.023908 398.028891,222.023908 C398.687246,222.023908 399.213931,222.54156 399.213931,223.21259 C399.213931,223.864448 398.687246,224.391686 398.028891,224.391686 Z M405.261393,227.420909 C403.860037,227.420909 402.844289,228.456213 402.740833,229.98041 L407.687901,229.98041 C407.640876,228.43704 406.672154,227.420909 405.261393,227.420909 Z M407.678496,232.99046 L409.606536,232.99046 C409.333789,234.821415 407.584446,236.0772 405.346038,236.0772 C402.468086,236.0772 400.681122,234.11204 400.681122,230.958197 C400.681122,227.794768 402.477491,225.743333 405.261393,225.743333 C407.998269,225.743333 409.719397,227.660562 409.719397,230.718543 L409.719397,231.427918 L402.731428,231.427918 L402.731428,231.552538 C402.731428,233.278045 403.794201,234.40921 405.393064,234.40921 C406.521672,234.40921 407.405749,233.8628 407.678496,232.99046 Z M419.782825,229.338138 L417.84538,229.338138 C417.666684,228.274076 416.848443,227.478426 415.512922,227.478426 C413.95168,227.478426 412.917122,228.8109 412.917122,230.910266 C412.917122,233.057563 413.961085,234.351693 415.531732,234.351693 C416.792012,234.351693 417.619659,233.709421 417.84538,232.539911 L419.801636,232.539911 C419.575914,234.65845 417.911216,236.0772 415.512922,236.0772 C412.6914,236.0772 410.848006,234.11204 410.848006,230.910266 C410.848006,227.775596 412.6914,225.743333 415.494112,225.743333 C418.033482,225.743333 419.613534,227.372978 419.782825,229.338138 Z M421.833131,223.481002 L423.874032,223.481002 L423.874032,225.867953 L425.755047,225.867953 L425.755047,227.507184 L423.874032,227.507184 L423.874032,233.06715 C423.874032,233.929903 424.250235,234.332521 425.077882,234.332521 C425.284793,234.332521 425.613971,234.303763 425.745642,234.28459 L425.745642,235.914235 C425.51992,235.971752 425.068477,236.010097 424.617033,236.010097 C422.613752,236.010097 421.833131,235.243205 421.833131,233.287631 L421.833131,227.507184 L420.394155,227.507184 L420.394155,225.867953 L421.833131,225.867953 L421.833131,223.481002 Z M427.48558,235.95258 L427.48558,225.867953 L429.517076,225.867953 L429.517076,235.95258 L427.48558,235.95258 Z M428.501328,224.391686 C427.852378,224.391686 427.325694,223.864448 427.325694,223.21259 C427.325694,222.54156 427.852378,222.023908 428.501328,222.023908 C429.159683,222.023908 429.686367,222.54156 429.686367,223.21259 C429.686367,223.864448 429.159683,224.391686 428.501328,224.391686 Z M440.041353,225.867953 L436.49564,235.95258 L434.313663,235.95258 L430.749141,225.867953 L432.912308,225.867953 L435.395247,233.929903 L435.432867,233.929903 L437.915806,225.867953 L440.041353,225.867953 Z M445.345814,227.420909 C443.944458,227.420909 442.92871,228.456213 442.825255,229.98041 L447.772323,229.98041 C447.725298,228.43704 446.756575,227.420909 445.345814,227.420909 Z M447.762918,232.99046 L449.690958,232.99046 C449.418211,234.821415 447.668867,236.0772 445.43046,236.0772 C442.552507,236.0772 440.765544,234.11204 440.765544,230.958197 C440.765544,227.794768 442.561913,225.743333 445.345814,225.743333 C448.08269,225.743333 449.803819,227.660562 449.803819,230.718543 L449.803819,231.427918 L442.81585,231.427918 L442.81585,231.552538 C442.81585,233.278045 443.878623,234.40921 445.477485,234.40921 C446.606094,234.40921 447.490171,233.8628 447.762918,232.99046 Z M458.27779,229.692826 L458.27779,228.005664 L459.914272,228.005664 C461.381464,228.005664 462.387807,227.066221 462.387807,225.762505 C462.387807,224.477961 461.52254,223.624794 459.914272,223.624794 C458.447081,223.624794 457.468953,224.487548 457.346687,225.848781 L455.362217,225.848781 C455.522103,223.423485 457.318472,221.860943 460.008323,221.860943 C462.575908,221.860943 464.447518,223.346796 464.447518,225.474921 C464.447518,227.200427 463.337719,228.43704 461.654211,228.743797 L461.654211,228.782142 C463.695112,228.925934 465.011822,230.200891 465.011822,232.137293 C465.011822,234.553002 462.85806,236.211406 460.027133,236.211406 C457.102156,236.211406 455.221141,234.572175 455.08947,232.185224 L457.111561,232.185224 C457.243232,233.508112 458.31541,234.418796 460.027133,234.418796 C461.682426,234.418796 462.867465,233.460182 462.867465,232.108535 C462.867465,230.613096 461.757667,229.692826 459.970703,229.692826 L458.27779,229.692826 Z" id="Objective-3" fill="#313131"></path>
            <path d="M407.607958,268.673297 L405.501222,268.673297 L405.501222,254.840486 L407.607958,254.840486 L407.607958,261.426169 L407.692604,261.426169 L413.363863,254.840486 L415.865613,254.840486 L410.485911,260.966034 L416.317056,268.673297 L413.702446,268.673297 L408.999909,262.442301 L407.607958,264.06236 L407.607958,268.673297 Z M417.661981,254.840486 L422.750126,254.840486 C425.383547,254.840486 427.217536,256.690612 427.217536,259.38432 C427.217536,262.087613 425.345926,263.947326 422.684291,263.947326 L419.768718,263.947326 L419.768718,268.673297 L417.661981,268.673297 L417.661981,254.840486 Z M419.768718,256.652268 L419.768718,262.14513 L422.185822,262.14513 C424.019811,262.14513 425.063774,261.138585 425.063774,259.393906 C425.063774,257.649227 424.019811,256.652268 422.195227,256.652268 L419.768718,256.652268 Z M431.167666,268.673297 L429.06093,268.673297 L429.06093,254.840486 L431.167666,254.840486 L431.167666,268.673297 Z" id="KPI-Copy-2" fill="#313131"></path>
            <polygon id="Shape-Copy-6" fill="#F0F0F0" points="517.300817 208.523719 667.343314 208.523719 592.322076 306.372852"></polygon>
            <polygon id="Shape-Copy-5" stroke="#858585" stroke-linejoin="round" points="517.300817 208.523719 667.343314 208.523719 592.322076 306.372852"></polygon>
            <path d="M548.923362,221.889702 C552.826467,221.889702 555.281191,224.640926 555.281191,229.040968 C555.281191,233.441009 552.826467,236.182647 548.923362,236.182647 C545.010851,236.182647 542.565532,233.441009 542.565532,229.040968 C542.565532,224.640926 545.010851,221.889702 548.923362,221.889702 Z M548.923362,223.778173 C546.346372,223.778173 544.719294,225.810436 544.719294,229.040968 C544.719294,232.261913 546.346372,234.294176 548.923362,234.294176 C551.500352,234.294176 553.118024,232.261913 553.118024,229.040968 C553.118024,225.810436 551.500352,223.778173 548.923362,223.778173 Z M562.306781,236.058028 C560.8584,236.058028 559.739196,235.40617 559.127866,234.23666 L559.090246,234.23666 L559.090246,235.95258 L557.115181,235.95258 L557.115181,222.119769 L559.146676,222.119769 L559.146676,227.545529 L559.193702,227.545529 C559.786221,226.414363 560.91483,225.762505 562.316186,225.762505 C564.80853,225.762505 566.435608,227.785182 566.435608,230.910266 C566.435608,234.044937 564.80853,236.058028 562.306781,236.058028 Z M561.761287,227.526356 C560.200045,227.526356 559.137271,228.897175 559.137271,230.910266 C559.137271,232.94253 560.190639,234.303763 561.761287,234.303763 C563.322529,234.303763 564.347682,232.980874 564.347682,230.910266 C564.347682,228.858831 563.322529,227.526356 561.761287,227.526356 Z M570.112992,225.867953 L570.112992,236.431887 C570.112992,238.483323 569.069028,239.46111 566.877646,239.46111 C566.783596,239.46111 566.463823,239.46111 566.407393,239.441938 L566.407393,237.812293 C566.445013,237.812293 566.66133,237.821879 566.69895,237.821879 C567.705293,237.821879 568.081496,237.438433 568.081496,236.422301 L568.081496,225.867953 L570.112992,225.867953 Z M569.097244,224.391686 C568.448294,224.391686 567.92161,223.864448 567.92161,223.21259 C567.92161,222.54156 568.448294,222.023908 569.097244,222.023908 C569.755599,222.023908 570.282283,222.54156 570.282283,223.21259 C570.282283,223.864448 569.755599,224.391686 569.097244,224.391686 Z M576.329745,227.420909 C574.928389,227.420909 573.912641,228.456213 573.809185,229.98041 L578.756254,229.98041 C578.709228,228.43704 577.740506,227.420909 576.329745,227.420909 Z M578.746849,232.99046 L580.674889,232.99046 C580.402142,234.821415 578.652798,236.0772 576.414391,236.0772 C573.536438,236.0772 571.749474,234.11204 571.749474,230.958197 C571.749474,227.794768 573.545843,225.743333 576.329745,225.743333 C579.066621,225.743333 580.78775,227.660562 580.78775,230.718543 L580.78775,231.427918 L573.79978,231.427918 L573.79978,231.552538 C573.79978,233.278045 574.862554,234.40921 576.461416,234.40921 C577.590025,234.40921 578.474102,233.8628 578.746849,232.99046 Z M590.851178,229.338138 L588.913733,229.338138 C588.735036,228.274076 587.916795,227.478426 586.581275,227.478426 C585.020032,227.478426 583.985474,228.8109 583.985474,230.910266 C583.985474,233.057563 585.029438,234.351693 586.600085,234.351693 C587.860365,234.351693 588.688011,233.709421 588.913733,232.539911 L590.869988,232.539911 C590.644266,234.65845 588.979568,236.0772 586.581275,236.0772 C583.759753,236.0772 581.916358,234.11204 581.916358,230.910266 C581.916358,227.775596 583.759753,225.743333 586.562464,225.743333 C589.101834,225.743333 590.681886,227.372978 590.851178,229.338138 Z M592.901484,223.481002 L594.942385,223.481002 L594.942385,225.867953 L596.823399,225.867953 L596.823399,227.507184 L594.942385,227.507184 L594.942385,233.06715 C594.942385,233.929903 595.318588,234.332521 596.146234,234.332521 C596.353146,234.332521 596.682323,234.303763 596.813994,234.28459 L596.813994,235.914235 C596.588272,235.971752 596.136829,236.010097 595.685385,236.010097 C593.682105,236.010097 592.901484,235.243205 592.901484,233.287631 L592.901484,227.507184 L591.462508,227.507184 L591.462508,225.867953 L592.901484,225.867953 L592.901484,223.481002 Z M598.553933,235.95258 L598.553933,225.867953 L600.585428,225.867953 L600.585428,235.95258 L598.553933,235.95258 Z M599.569681,224.391686 C598.920731,224.391686 598.394046,223.864448 598.394046,223.21259 C598.394046,222.54156 598.920731,222.023908 599.569681,222.023908 C600.228036,222.023908 600.75472,222.54156 600.75472,223.21259 C600.75472,223.864448 600.228036,224.391686 599.569681,224.391686 Z M611.109705,225.867953 L607.563993,235.95258 L605.382016,235.95258 L601.817493,225.867953 L603.98066,225.867953 L606.463599,233.929903 L606.501219,233.929903 L608.984159,225.867953 L611.109705,225.867953 Z M616.414167,227.420909 C615.012811,227.420909 613.997063,228.456213 613.893607,229.98041 L618.840675,229.98041 C618.79365,228.43704 617.824927,227.420909 616.414167,227.420909 Z M618.83127,232.99046 L620.75931,232.99046 C620.486563,234.821415 618.73722,236.0772 616.498812,236.0772 C613.62086,236.0772 611.833896,234.11204 611.833896,230.958197 C611.833896,227.794768 613.630265,225.743333 616.414167,225.743333 C619.151043,225.743333 620.872171,227.660562 620.872171,230.718543 L620.872171,231.427918 L613.884202,231.427918 L613.884202,231.552538 C613.884202,233.278045 614.946975,234.40921 616.545838,234.40921 C617.674446,234.40921 618.558523,233.8628 618.83127,232.99046 Z M632.844829,235.95258 L632.844829,233.220528 L626.054366,233.220528 L626.054366,231.341643 C627.220596,229.108071 628.763028,226.625258 631.819676,222.119769 L634.86692,222.119769 L634.86692,231.418332 L636.729124,231.418332 L636.729124,233.220528 L634.86692,233.220528 L634.86692,235.95258 L632.844829,235.95258 Z M628.020027,231.39916 L628.020027,231.447091 L632.863639,231.447091 L632.863639,223.778173 L632.826019,223.778173 C630.474751,227.238772 629.10161,229.395655 628.020027,231.39916 Z" id="Objective-4" fill="#313131"></path>
            <path d="M578.822089,268.673297 L576.715353,268.673297 L576.715353,254.840486 L578.822089,254.840486 L578.822089,261.426169 L578.906735,261.426169 L584.577994,254.840486 L587.079743,254.840486 L581.700042,260.966034 L587.531187,268.673297 L584.916577,268.673297 L580.21404,262.442301 L578.822089,264.06236 L578.822089,268.673297 Z M588.876112,254.840486 L593.964257,254.840486 C596.597677,254.840486 598.431667,256.690612 598.431667,259.38432 C598.431667,262.087613 596.560057,263.947326 593.898421,263.947326 L590.982849,263.947326 L590.982849,268.673297 L588.876112,268.673297 L588.876112,254.840486 Z M590.982849,256.652268 L590.982849,262.14513 L593.399953,262.14513 C595.233942,262.14513 596.277905,261.138585 596.277905,259.393906 C596.277905,257.649227 595.233942,256.652268 593.409358,256.652268 L590.982849,256.652268 Z M602.381797,268.673297 L600.275061,268.673297 L600.275061,254.840486 L602.381797,254.840486 L602.381797,268.673297 Z" id="KPI-Copy-3" fill="#313131"></path>
            <polygon id="Shape" fill="#666666" points="1 313.268709 682.4171 313.268709 682.4171 261.038463 770.624733 356.703274 682.4171 452.368084 682.4171 400.137838 1 400.137838"></polygon>
            <path d="M18.8424687,359.281562 L21.1519367,359.281562 C21.319138,360.804694 22.7716992,361.805914 24.7572147,361.805914 C26.6591295,361.805914 28.0280901,360.804694 28.0280901,359.43068 C28.0280901,358.237737 27.2025337,357.524102 25.2483685,357.034143 L23.2942033,356.554836 C20.5249318,355.873154 19.2395718,354.552396 19.2395718,352.41149 C19.2395718,349.759322 21.5072394,347.937954 24.7258644,347.937954 C27.9131392,347.937954 30.0972062,349.759322 30.1703568,352.41149 L27.8922391,352.41149 C27.756388,350.877706 26.5128283,349.951045 24.6945142,349.951045 C22.8762001,349.951045 21.6326404,350.888357 21.6326404,352.251721 C21.6326404,353.338151 22.4268466,353.977227 24.3705617,354.467186 L26.0321246,354.882586 C29.1253486,355.628175 30.4107086,356.895677 30.4107086,359.143096 C30.4107086,362.01894 28.1639412,363.819005 24.5900134,363.819005 C21.2459874,363.819005 18.9887698,362.061545 18.8424687,359.281562 Z M32.897828,349.706066 L35.1654956,349.706066 L35.1654956,352.358233 L37.2555118,352.358233 L37.2555118,354.179601 L35.1654956,354.179601 L35.1654956,360.357341 C35.1654956,361.315956 35.5834988,361.763309 36.503106,361.763309 C36.7330078,361.763309 37.0987606,361.731355 37.2450618,361.710053 L37.2450618,363.52077 C36.9942598,363.584677 36.4926559,363.627282 35.991052,363.627282 C33.7651847,363.627282 32.897828,362.77518 32.897828,360.60232 L32.897828,354.179601 L31.2989655,354.179601 L31.2989655,352.358233 L32.897828,352.358233 L32.897828,349.706066 Z M42.9508061,361.901776 C44.5496685,361.901776 45.761878,360.815346 45.761878,359.366772 L45.761878,358.504019 L43.1284575,358.674439 C41.6654461,358.75965 40.8921401,359.334818 40.8921401,360.304085 C40.8921401,361.241397 41.6967964,361.901776 42.9508061,361.901776 Z M42.3238012,363.723144 C40.1397343,363.723144 38.6244725,362.349129 38.6244725,360.357341 C38.6244725,358.397506 40.0979339,357.247169 42.8358552,357.076748 L45.761878,356.906328 L45.761878,356.054226 C45.761878,354.786724 44.9363215,354.105043 43.5046604,354.105043 C42.3238012,354.105043 41.4564445,354.722816 41.2787931,355.681431 L39.1678767,355.681431 C39.2305772,353.678992 41.0697915,352.219767 43.5673609,352.219767 C46.2634819,352.219767 48.0086454,353.657689 48.0086454,355.883805 L48.0086454,363.563375 L45.8454786,363.563375 L45.8454786,361.720704 L45.7932282,361.720704 C45.1766734,362.924298 43.8077128,363.723144 42.3238012,363.723144 Z M50.1927124,363.563375 L50.1927124,352.358233 L52.3454291,352.358233 L52.3454291,354.264812 L52.3976795,354.264812 C52.7425322,352.99731 53.74574,352.241069 55.0415501,352.241069 C55.3655026,352.241069 55.6372047,352.283674 55.8148561,352.32628 L55.8148561,354.477837 C55.6372047,354.403278 55.2401016,354.339371 54.8011982,354.339371 C53.3486369,354.339371 52.44993,355.34059 52.44993,356.916979 L52.44993,363.563375 L50.1927124,363.563375 Z M57.8735221,349.706066 L60.1411897,349.706066 L60.1411897,352.358233 L62.231206,352.358233 L62.231206,354.179601 L60.1411897,354.179601 L60.1411897,360.357341 C60.1411897,361.315956 60.559193,361.763309 61.4788001,361.763309 C61.7087019,361.763309 62.0744548,361.731355 62.2207559,361.710053 L62.2207559,363.52077 C61.969954,363.584677 61.4683501,363.627282 60.9667462,363.627282 C58.7408789,363.627282 57.8735221,362.77518 57.8735221,360.60232 L57.8735221,354.179601 L56.2746597,354.179601 L56.2746597,352.358233 L57.8735221,352.358233 L57.8735221,349.706066 Z" id="Start" fill="#FFFFFF"></path>
        </g>
    </g>
</svg>
