<svg version="1.1" viewBox="0.0 0.0 500.0 500.0" fill="none" stroke="none" stroke-linecap="square" stroke-miterlimit="10" xmlns:xlink="http://www.w3.org/1999/xlink" xmlns="http://www.w3.org/2000/svg"><clipPath id="p.0"><path d="m0 0l500.0 0l0 500.0l-500.0 0l0 -500.0z" clip-rule="nonzero"/></clipPath><g clip-path="url(#p.0)"><path fill="#000000" fill-opacity="0.0" d="m0 0l500.0 0l0 500.0l-500.0 0z" fill-rule="evenodd"/><path fill="#ffffff" d="m14.971128 359.1238l0 0c0 -12.533203 10.160166 -22.69336 22.693369 -22.69336l421.4164 0c6.0186768 0 11.790802 2.3908997 16.04663 6.6467285c4.255829 4.255829 6.646759 10.027985 6.646759 16.04663l0 90.77075c0 12.533203 -10.160187 22.69336 -22.69339 22.69336l-421.4164 0c-12.533203 0 -22.693369 -10.160156 -22.693369 -22.69336z" fill-rule="evenodd"/><path stroke="#000000" stroke-width="1.0" stroke-linejoin="round" stroke-linecap="butt" d="m14.971128 359.1238l0 0c0 -12.533203 10.160166 -22.69336 22.693369 -22.69336l421.4164 0c6.0186768 0 11.790802 2.3908997 16.04663 6.6467285c4.255829 4.255829 6.646759 10.027985 6.646759 16.04663l0 90.77075c0 12.533203 -10.160187 22.69336 -22.69339 22.69336l-421.4164 0c-12.533203 0 -22.693369 -10.160156 -22.693369 -22.69336z" fill-rule="evenodd"/><path fill="#3d85c6" d="m130.80443 190.6801l0 0c0 -8.520721 6.9074097 -15.428131 15.428131 -15.428131l190.24611 0c4.091797 0 8.015991 1.6254578 10.909332 4.518799c2.893341 2.8933258 4.518799 6.8175354 4.518799 10.909332l0 61.710663c0 8.520737 -6.9074097 15.428146 -15.428131 15.428146l-190.24611 0l0 0c-8.520721 0 -15.428131 -6.9074097 -15.428131 -15.428146z" fill-rule="evenodd"/><path stroke="#000000" stroke-width="1.0" stroke-linejoin="round" stroke-linecap="butt" d="m130.80443 190.6801l0 0c0 -8.520721 6.9074097 -15.428131 15.428131 -15.428131l190.24611 0c4.091797 0 8.015991 1.6254578 10.909332 4.518799c2.893341 2.8933258 4.518799 6.8175354 4.518799 10.909332l0 61.710663c0 8.520737 -6.9074097 15.428146 -15.428131 15.428146l-190.24611 0l0 0c-8.520721 0 -15.428131 -6.9074097 -15.428131 -15.428146z" fill-rule="evenodd"/><path fill="#f3f3f3" d="m3.711286 47.858578l0 0c0 -8.520721 6.907409 -15.428131 15.428129 -15.428131l130.46657 0c4.091797 0 8.016006 1.6254578 10.909332 4.518795c2.893341 2.8933334 4.518799 6.817539 4.518799 10.909336l0 61.710667c0 8.520721 -6.9074097 15.428131 -15.428131 15.428131l-130.46657 0c-8.5207205 0 -15.428129 -6.9074097 -15.428129 -15.428131z" fill-rule="evenodd"/><path stroke="#000000" stroke-width="1.0" stroke-linejoin="round" stroke-linecap="butt" d="m3.711286 47.858578l0 0c0 -8.520721 6.907409 -15.428131 15.428129 -15.428131l130.46657 0c4.091797 0 8.016006 1.6254578 10.909332 4.518795c2.893341 2.8933334 4.518799 6.817539 4.518799 10.909336l0 61.710667c0 8.520721 -6.9074097 15.428131 -15.428131 15.428131l-130.46657 0c-8.5207205 0 -15.428129 -6.9074097 -15.428129 -15.428131z" fill-rule="evenodd"/><path fill="#000000" fill-opacity="0.0" d="m14.971621 53.08049l138.80315 0l0 44.18898l-138.80315 0z" fill-rule="evenodd"/><path fill="#000000" d="m45.2496 76.21924q-2.0 0 -3.609375 -0.859375q-1.609375 -0.875 -2.53125 -2.40625q-0.921875 -1.546875 -0.921875 -3.484375q0 -1.9375 0.921875 -3.46875q0.921875 -1.546875 2.53125 -2.40625q1.609375 -0.875 3.625 -0.875q1.703125 0 3.0625 0.59375q1.375 0.59375 2.3125 1.71875l-1.9375 1.796875q-1.328125 -1.53125 -3.28125 -1.53125q-1.21875 0 -2.171875 0.53125q-0.953125 0.53125 -1.484375 1.484375q-0.53125 0.9375 -0.53125 2.15625q0 1.21875 0.53125 2.171875q0.53125 0.9375 1.484375 1.484375q0.953125 0.53125 2.171875 0.53125q1.953125 0 3.28125 -1.5625l1.9375 1.796875q-0.9375 1.140625 -2.3125 1.734375q-1.375 0.59375 -3.078125 0.59375zm13.315659 -10.40625q1.875 0 3.015625 1.125q1.15625 1.109375 1.15625 3.3125l0 5.75l-2.921875 0l0 -5.296875q0 -1.203125 -0.515625 -1.78125q-0.515625 -0.59375 -1.515625 -0.59375q-1.09375 0 -1.75 0.6875q-0.65625 0.671875 -0.65625 2.015625l0 4.96875l-2.90625 0l0 -13.84375l2.90625 0l0 4.84375q0.578125 -0.578125 1.390625 -0.875q0.828125 -0.3125 1.796875 -0.3125zm10.844585 0q2.328125 0 3.578125 1.109375q1.25 1.109375 1.25 3.34375l0 5.734375l-2.71875 0l0 -1.25q-0.828125 1.40625 -3.0625 1.40625q-1.15625 0 -2.015625 -0.390625q-0.84375 -0.40625 -1.296875 -1.09375q-0.4375 -0.6875 -0.4375 -1.5625q0 -1.40625 1.046875 -2.203125q1.0625 -0.796875 3.265625 -0.796875l2.3125 0q0 -0.953125 -0.578125 -1.46875q-0.578125 -0.515625 -1.734375 -0.515625q-0.796875 0 -1.578125 0.25q-0.765625 0.25 -1.3125 0.6875l-1.046875 -2.03125q0.828125 -0.578125 1.96875 -0.890625q1.140625 -0.328125 2.359375 -0.328125zm-0.21875 8.375q0.734375 0 1.3125 -0.34375q0.59375 -0.34375 0.828125 -1.015625l0 -1.03125l-2.0 0q-1.78125 0 -1.78125 1.1875q0 0.546875 0.4375 0.875q0.4375 0.328125 1.203125 0.328125zm13.776535 -8.375q1.875 0 3.015625 1.125q1.15625 1.109375 1.15625 3.3125l0 5.75l-2.921875 0l0 -5.296875q0 -1.203125 -0.515625 -1.78125q-0.515625 -0.59375 -1.515625 -0.59375q-1.09375 0 -1.75 0.6875q-0.65625 0.671875 -0.65625 2.015625l0 4.96875l-2.90625 0l0 -10.03125l2.78125 0l0 1.171875q0.578125 -0.640625 1.4375 -0.984375q0.859375 -0.34375 1.875 -0.34375zm12.891464 0q1.875 0 3.015625 1.125q1.15625 1.109375 1.15625 3.3125l0 5.75l-2.921875 0l0 -5.296875q0 -1.203125 -0.515625 -1.78125q-0.515625 -0.59375 -1.515625 -0.59375q-1.09375 0 -1.75 0.6875q-0.65625 0.671875 -0.65625 2.015625l0 4.96875l-2.90625 0l0 -10.03125l2.78125 0l0 1.171875q0.578125 -0.640625 1.4375 -0.984375q0.859375 -0.34375 1.875 -0.34375zm16.62584 5.203125q0 0.0625 -0.046875 0.78125l-7.59375 0q0.203125 0.9375 0.96875 1.484375q0.765625 0.53125 1.90625 0.53125q0.78125 0 1.375 -0.234375q0.609375 -0.234375 1.140625 -0.734375l1.546875 1.6875q-1.421875 1.625 -4.140625 1.625q-1.703125 0 -3.015625 -0.65625q-1.296875 -0.671875 -2.015625 -1.84375q-0.703125 -1.1875 -0.703125 -2.671875q0 -1.484375 0.703125 -2.65625q0.703125 -1.1875 1.921875 -1.84375q1.21875 -0.671875 2.734375 -0.671875q1.46875 0 2.65625 0.640625q1.203125 0.625 1.875 1.8125q0.6875 1.1875 0.6875 2.75zm-5.203125 -3.0q-0.984375 0 -1.65625 0.5625q-0.671875 0.5625 -0.828125 1.53125l4.953125 0q-0.15625 -0.953125 -0.828125 -1.515625q-0.671875 -0.578125 -1.640625 -0.578125zm7.1470947 -5.859375l2.90625 0l0 13.84375l-2.90625 0l0 -13.84375zm15.317146 0.78125l0 13.0625l-3.0156326 0l0 -10.640625l-2.625 0l0 -2.421875l5.6406326 0z" fill-rule="nonzero"/><path fill="#000000" d="m63.97299 88.18799l-3.71875 9.8125l-1.25 0l-3.09375 -8.046875l-3.09375 8.046875l-1.25 0l-3.6875 -9.8125l1.265625 0l3.078125 8.34375l3.15625 -8.34375l1.125 0l3.140625 8.34375l3.109375 -8.34375l1.21875 0zm10.539471 5.3125l-8.203125 0q0.109375 1.53125 1.171875 2.484375q1.0625 0.9375 2.6875 0.9375q0.90625 0 1.671875 -0.328125q0.765625 -0.328125 1.328125 -0.96875l0.75 0.859375q-0.65625 0.78125 -1.640625 1.203125q-0.96875 0.40625 -2.15625 0.40625q-1.5 0 -2.671875 -0.640625q-1.15625 -0.640625 -1.8125 -1.78125q-0.65625 -1.140625 -0.65625 -2.578125q0 -1.4375 0.625 -2.578125q0.625 -1.140625 1.71875 -1.765625q1.09375 -0.640625 2.453125 -0.640625q1.359375 0 2.4375 0.640625q1.078125 0.625 1.6875 1.765625q0.625 1.125 0.625 2.578125l-0.015625 0.40625zm-4.734375 -4.25q-1.421875 0 -2.390625 0.90625q-0.953125 0.90625 -1.078125 2.359375l6.953125 0q-0.125 -1.453125 -1.09375 -2.359375q-0.953125 -0.90625 -2.390625 -0.90625zm12.518372 -1.140625q1.375 0 2.484375 0.625q1.125 0.625 1.765625 1.765625q0.640625 1.140625 0.640625 2.59375q0 1.453125 -0.640625 2.59375q-0.640625 1.140625 -1.765625 1.78125q-1.109375 0.625 -2.484375 0.625q-1.234375 0 -2.21875 -0.515625q-0.96875 -0.53125 -1.578125 -1.515625l0 1.9375l-1.265625 0l0 -13.84375l1.328125 0l0 5.890625q0.609375 -0.953125 1.5625 -1.4375q0.96875 -0.5 2.171875 -0.5zm-0.09375 8.8125q1.015625 0 1.859375 -0.46875q0.84375 -0.484375 1.3125 -1.359375q0.484375 -0.875 0.484375 -2.0q0 -1.125 -0.484375 -2.0q-0.46875 -0.875 -1.3125 -1.34375q-0.84375 -0.484375 -1.859375 -0.484375q-1.046875 0 -1.875 0.484375q-0.828125 0.46875 -1.3125 1.34375q-0.46875 0.875 -0.46875 2.0q0 1.125 0.46875 2.0q0.484375 0.875 1.3125 1.359375q0.828125 0.46875 1.875 0.46875zm10.320816 1.171875q-1.203125 0 -2.296875 -0.34375q-1.09375 -0.34375 -1.703125 -0.875l0.59375 -1.046875q0.625 0.5 1.546875 0.8125q0.9375 0.296875 1.953125 0.296875q1.328125 0 1.96875 -0.421875q0.65625 -0.421875 0.65625 -1.1875q0 -0.53125 -0.359375 -0.84375q-0.34375 -0.3125 -0.890625 -0.46875q-0.546875 -0.15625 -1.4375 -0.3125q-1.1875 -0.21875 -1.921875 -0.453125q-0.734375 -0.234375 -1.25 -0.78125q-0.5 -0.5625 -0.5 -1.5625q0 -1.234375 1.015625 -2.015625q1.03125 -0.78125 2.859375 -0.78125q0.953125 0 1.90625 0.25q0.953125 0.25 1.5625 0.671875l-0.578125 1.0625q-1.203125 -0.84375 -2.890625 -0.84375q-1.265625 0 -1.90625 0.453125q-0.640625 0.4375 -0.640625 1.171875q0 0.5625 0.359375 0.90625q0.359375 0.328125 0.890625 0.484375q0.546875 0.15625 1.5 0.328125q1.171875 0.21875 1.875 0.453125q0.71875 0.21875 1.21875 0.765625q0.515625 0.53125 0.515625 1.484375q0 1.28125 -1.078125 2.046875q-1.078125 0.75 -2.96875 0.75zm6.4822845 -9.90625l1.328125 0l0 9.8125l-1.328125 0l0 -9.8125zm0.671875 -2.140625q-0.40625 0 -0.6875 -0.28125q-0.28125 -0.28125 -0.28125 -0.671875q0 -0.375 0.28125 -0.65625q0.28125 -0.28125 0.6875 -0.28125q0.40625 0 0.6875 0.28125q0.28125 0.265625 0.28125 0.640625q0 0.40625 -0.28125 0.6875q-0.28125 0.28125 -0.6875 0.28125zm9.518539 11.359375q-0.375 0.328125 -0.921875 0.515625q-0.546875 0.171875 -1.15625 0.171875q-1.375 0 -2.125 -0.75q-0.734375 -0.75 -0.734375 -2.109375l0 -5.921875l-1.765625 0l0 -1.125l1.765625 0l0 -2.140625l1.3125 0l0 2.140625l2.984375 0l0 1.125l-2.984375 0l0 5.859375q0 0.875 0.4375 1.328125q0.4375 0.453125 1.265625 0.453125q0.40625 0 0.78125 -0.125q0.390625 -0.140625 0.671875 -0.375l0.46875 0.953125zm10.949432 -3.90625l-8.203125 0q0.109375 1.53125 1.171875 2.484375q1.0625 0.9375 2.6875 0.9375q0.90625 0 1.671875 -0.328125q0.765625 -0.328125 1.328125 -0.96875l0.75 0.859375q-0.65625 0.78125 -1.640625 1.203125q-0.96875 0.40625 -2.15625 0.40625q-1.5 0 -2.671875 -0.640625q-1.15625 -0.640625 -1.8125 -1.78125q-0.65625 -1.140625 -0.65625 -2.578125q0 -1.4375 0.625 -2.578125q0.625 -1.140625 1.71875 -1.765625q1.09375 -0.640625 2.453125 -0.640625q1.359375 0 2.4375 0.640625q1.078125 0.625 1.6875 1.765625q0.625 1.125 0.625 2.578125l-0.015625 0.40625zm-4.734375 -4.25q-1.421875 0 -2.390625 0.90625q-0.953125 0.90625 -1.078125 2.359375l6.953125 0q-0.125 -1.453125 -1.09375 -2.359375q-0.953125 -0.90625 -2.390625 -0.90625z" fill-rule="nonzero"/><path fill="#000000" fill-opacity="0.0" d="m48.968502 361.0761l403.87402 0l0 96.031494l-403.87402 0z" fill-rule="evenodd"/><path fill="#000000" d="m119.19635 374.38986l0 22.40625l-5.1875 0l0 -9.1875l-10.171875 0l0 9.1875l-5.1875 0l0 -22.40625l5.1875 0l0 8.84375l10.171875 0l0 -8.84375l5.1875 0zm21.824799 13.859375q0 0.09375 -0.09375 1.34375l-13.03125 0q0.359375 1.609375 1.671875 2.53125q1.3125 0.921875 3.25 0.921875q1.34375 0 2.390625 -0.390625q1.046875 -0.40625 1.9375 -1.265625l2.65625 2.875q-2.4375 2.78125 -7.109375 2.78125q-2.90625 0 -5.15625 -1.125q-2.234375 -1.140625 -3.453125 -3.15625q-1.203125 -2.015625 -1.203125 -4.578125q0 -2.53125 1.1875 -4.5625q1.203125 -2.03125 3.296875 -3.15625q2.09375 -1.140625 4.6875 -1.140625q2.53125 0 4.578125 1.09375q2.046875 1.078125 3.21875 3.109375q1.171875 2.03125 1.171875 4.71875zm-8.9375 -5.15625q-1.6875 0 -2.84375 0.96875q-1.15625 0.953125 -1.40625 2.625l8.484375 0q-0.265625 -1.640625 -1.421875 -2.609375q-1.140625 -0.984375 -2.8125 -0.984375zm19.207672 -3.765625q4.0 0 6.140625 1.90625q2.140625 1.90625 2.140625 5.734375l0 9.828125l-4.671875 0l0 -2.140625q-1.40625 2.390625 -5.25 2.390625q-1.984375 0 -3.4375 -0.671875q-1.453125 -0.671875 -2.21875 -1.84375q-0.765625 -1.1875 -0.765625 -2.6875q0 -2.40625 1.796875 -3.78125q1.8125 -1.375 5.59375 -1.375l3.96875 0q0 -1.640625 -1.0 -2.515625q-0.984375 -0.875 -2.96875 -0.875q-1.375 0 -2.703125 0.4375q-1.328125 0.421875 -2.265625 1.15625l-1.78125 -3.484375q1.40625 -1.0 3.375 -1.53125q1.96875 -0.546875 4.046875 -0.546875zm-0.390625 14.359375q1.28125 0 2.265625 -0.578125q1.0 -0.59375 1.421875 -1.75l0 -1.765625l-3.421875 0q-3.078125 0 -3.078125 2.015625q0 0.96875 0.75 1.53125q0.75 0.546875 2.0625 0.546875zm30.728409 -20.640625l0 23.75l-4.765625 0l0 -1.984375q-1.859375 2.234375 -5.375 2.234375q-2.4375 0 -4.40625 -1.078125q-1.96875 -1.09375 -3.09375 -3.109375q-1.109375 -2.015625 -1.109375 -4.671875q0 -2.65625 1.109375 -4.671875q1.125 -2.015625 3.09375 -3.09375q1.96875 -1.09375 4.40625 -1.09375q3.28125 0 5.140625 2.078125l0 -8.359375l5.0 0zm-9.28125 19.90625q1.890625 0 3.125 -1.296875q1.25 -1.296875 1.25 -3.46875q0 -2.171875 -1.25 -3.46875q-1.234375 -1.296875 -3.125 -1.296875q-1.921875 0 -3.171875 1.296875q-1.25 1.296875 -1.25 3.46875q0 2.171875 1.25 3.46875q1.25 1.296875 3.171875 1.296875zm13.878418 -19.90625l5.0 0l0 23.75l-5.0 0l0 -23.75zm26.507019 15.203125q0 0.09375 -0.09375 1.34375l-13.03125 0q0.359375 1.609375 1.671875 2.53125q1.3125 0.921875 3.25 0.921875q1.34375 0 2.390625 -0.390625q1.046875 -0.40625 1.9375 -1.265625l2.65625 2.875q-2.4375 2.78125 -7.109375 2.78125q-2.90625 0 -5.15625 -1.125q-2.234375 -1.140625 -3.453125 -3.15625q-1.203125 -2.015625 -1.203125 -4.578125q0 -2.53125 1.1875 -4.5625q1.203125 -2.03125 3.296875 -3.15625q2.09375 -1.140625 4.6875 -1.140625q2.53125 0 4.578125 1.09375q2.046875 1.078125 3.21875 3.109375q1.171875 2.03125 1.171875 4.71875zm-8.9375 -5.15625q-1.6875 0 -2.84375 0.96875q-1.15625 0.953125 -1.40625 2.625l8.484375 0q-0.265625 -1.640625 -1.421875 -2.609375q-1.140625 -0.984375 -2.8125 -0.984375zm18.051422 13.953125q-2.140625 0 -4.1875 -0.515625q-2.046875 -0.53125 -3.265625 -1.328125l1.65625 -3.59375q1.15625 0.734375 2.78125 1.203125q1.640625 0.46875 3.203125 0.46875q3.171875 0 3.171875 -1.578125q0 -0.734375 -0.859375 -1.046875q-0.859375 -0.328125 -2.65625 -0.546875q-2.109375 -0.328125 -3.484375 -0.734375q-1.375 -0.421875 -2.390625 -1.46875q-1.0 -1.0625 -1.0 -3.015625q0 -1.625 0.9375 -2.890625q0.9375 -1.265625 2.75 -1.96875q1.8125 -0.703125 4.28125 -0.703125q1.8125 0 3.625 0.40625q1.8125 0.390625 2.984375 1.09375l-1.65625 3.546875q-2.265625 -1.28125 -4.953125 -1.28125q-1.609375 0 -2.40625 0.453125q-0.796875 0.453125 -0.796875 1.15625q0 0.796875 0.859375 1.125q0.859375 0.3125 2.75 0.59375q2.109375 0.359375 3.453125 0.765625q1.34375 0.390625 2.328125 1.453125q1.0 1.046875 1.0 2.9375q0 1.609375 -0.96875 2.859375q-0.953125 1.234375 -2.796875 1.921875q-1.828125 0.6875 -4.359375 0.6875zm16.992035 0q-2.140625 0 -4.1875 -0.515625q-2.046875 -0.53125 -3.265625 -1.328125l1.65625 -3.59375q1.15625 0.734375 2.78125 1.203125q1.640625 0.46875 3.203125 0.46875q3.171875 0 3.171875 -1.578125q0 -0.734375 -0.859375 -1.046875q-0.859375 -0.328125 -2.65625 -0.546875q-2.109375 -0.328125 -3.484375 -0.734375q-1.375 -0.421875 -2.390625 -1.46875q-1.0 -1.0625 -1.0 -3.015625q0 -1.625 0.9375 -2.890625q0.9375 -1.265625 2.75 -1.96875q1.8125 -0.703125 4.28125 -0.703125q1.8125 0 3.625 0.40625q1.8125 0.390625 2.984375 1.09375l-1.65625 3.546875q-2.265625 -1.28125 -4.953125 -1.28125q-1.609375 0 -2.40625 0.453125q-0.796875 0.453125 -0.796875 1.15625q0 0.796875 0.859375 1.125q0.859375 0.3125 2.75 0.59375q2.109375 0.359375 3.453125 0.765625q1.34375 0.390625 2.328125 1.453125q1.0 1.046875 1.0 2.9375q0 1.609375 -0.96875 2.859375q-0.953125 1.234375 -2.796875 1.921875q-1.828125 0.6875 -4.359375 0.6875zm31.3293 0.140625q-3.421875 0 -6.1875 -1.484375q-2.765625 -1.5 -4.359375 -4.140625q-1.578125 -2.640625 -1.578125 -5.96875q0 -3.328125 1.578125 -5.96875q1.59375 -2.640625 4.359375 -4.125q2.765625 -1.484375 6.21875 -1.484375q2.90625 0 5.265625 1.03125q2.359375 1.015625 3.953125 2.9375l-3.328125 3.0625q-2.265625 -2.625 -5.640625 -2.625q-2.078125 0 -3.71875 0.921875q-1.625 0.90625 -2.53125 2.546875q-0.90625 1.625 -0.90625 3.703125q0 2.078125 0.90625 3.71875q0.90625 1.625 2.53125 2.546875q1.640625 0.90625 3.71875 0.90625q3.375 0 5.640625 -2.65625l3.328125 3.078125q-1.59375 1.953125 -3.96875 2.984375q-2.375 1.015625 -5.28125 1.015625zm33.12793 -0.390625l-0.03125 -13.4375l-6.59375 11.0625l-2.34375 0l-6.5625 -10.78125l0 13.15625l-4.859375 0l0 -22.40625l4.28125 0l8.390625 13.921875l8.25 -13.921875l4.265625 0l0.0625 22.40625l-4.859375 0zm17.528809 0.390625q-2.65625 0 -5.140625 -0.71875q-2.46875 -0.734375 -3.984375 -1.875l1.765625 -3.90625q1.4375 1.046875 3.421875 1.6875q1.984375 0.640625 3.96875 0.640625q2.203125 0 3.265625 -0.65625q1.0625 -0.65625 1.0625 -1.734375q0 -0.796875 -0.625 -1.328125q-0.625 -0.53125 -1.609375 -0.84375q-0.96875 -0.328125 -2.640625 -0.71875q-2.5625 -0.59375 -4.1875 -1.203125q-1.625 -0.609375 -2.796875 -1.953125q-1.171875 -1.34375 -1.171875 -3.59375q0 -1.953125 1.046875 -3.53125q1.0625 -1.578125 3.1875 -2.5q2.140625 -0.9375 5.203125 -0.9375q2.140625 0 4.1875 0.515625q2.0625 0.5 3.59375 1.46875l-1.609375 3.9375q-3.09375 -1.765625 -6.203125 -1.765625q-2.171875 0 -3.21875 0.703125q-1.03125 0.703125 -1.03125 1.859375q0 1.15625 1.1875 1.71875q1.203125 0.546875 3.671875 1.09375q2.5625 0.609375 4.1875 1.21875q1.640625 0.609375 2.796875 1.921875q1.171875 1.3125 1.171875 3.546875q0 1.921875 -1.078125 3.515625q-1.0625 1.578125 -3.203125 2.515625q-2.140625 0.921875 -5.21875 0.921875zm28.706451 -17.859375q4.0 0 6.140625 1.90625q2.140625 1.90625 2.140625 5.734375l0 9.828125l-4.671875 0l0 -2.140625q-1.40625 2.390625 -5.25 2.390625q-1.984375 0 -3.4375 -0.671875q-1.453125 -0.671875 -2.21875 -1.84375q-0.765625 -1.1875 -0.765625 -2.6875q0 -2.40625 1.796875 -3.78125q1.8125 -1.375 5.59375 -1.375l3.96875 0q0 -1.640625 -1.0 -2.515625q-0.984375 -0.875 -2.96875 -0.875q-1.375 0 -2.703125 0.4375q-1.328125 0.421875 -2.265625 1.15625l-1.78125 -3.484375q1.40625 -1.0 3.375 -1.53125q1.96875 -0.546875 4.046875 -0.546875zm-0.390625 14.359375q1.28125 0 2.265625 -0.578125q1.0 -0.59375 1.421875 -1.75l0 -1.765625l-3.421875 0q-3.078125 0 -3.078125 2.015625q0 0.96875 0.75 1.53125q0.75 0.546875 2.0625 0.546875zm18.978394 3.359375q-2.140625 0 -4.1875 -0.515625q-2.046875 -0.53125 -3.265625 -1.328125l1.65625 -3.59375q1.15625 0.734375 2.78125 1.203125q1.640625 0.46875 3.203125 0.46875q3.171875 0 3.171875 -1.578125q0 -0.734375 -0.859375 -1.046875q-0.859375 -0.328125 -2.65625 -0.546875q-2.109375 -0.328125 -3.484375 -0.734375q-1.375 -0.421875 -2.390625 -1.46875q-1.0 -1.0625 -1.0 -3.015625q0 -1.625 0.9375 -2.890625q0.9375 -1.265625 2.75 -1.96875q1.8125 -0.703125 4.28125 -0.703125q1.8125 0 3.625 0.40625q1.8125 0.390625 2.984375 1.09375l-1.65625 3.546875q-2.265625 -1.28125 -4.953125 -1.28125q-1.609375 0 -2.40625 0.453125q-0.796875 0.453125 -0.796875 1.15625q0 0.796875 0.859375 1.125q0.859375 0.3125 2.75 0.59375q2.109375 0.359375 3.453125 0.765625q1.34375 0.390625 2.328125 1.453125q1.0 1.046875 1.0 2.9375q0 1.609375 -0.96875 2.859375q-0.953125 1.234375 -2.796875 1.921875q-1.828125 0.6875 -4.359375 0.6875zm27.204285 -17.71875q4.0 0 6.140625 1.90625q2.140625 1.90625 2.140625 5.734375l0 9.828125l-4.671875 0l0 -2.140625q-1.40625 2.390625 -5.25 2.390625q-1.984375 0 -3.4375 -0.671875q-1.453125 -0.671875 -2.21875 -1.84375q-0.765625 -1.1875 -0.765625 -2.6875q0 -2.40625 1.796875 -3.78125q1.8125 -1.375 5.59375 -1.375l3.96875 0q0 -1.640625 -1.0 -2.515625q-0.984375 -0.875 -2.96875 -0.875q-1.375 0 -2.703125 0.4375q-1.328125 0.421875 -2.265625 1.15625l-1.78125 -3.484375q1.40625 -1.0 3.375 -1.53125q1.96875 -0.546875 4.046875 -0.546875zm-0.390625 14.359375q1.28125 0 2.265625 -0.578125q1.0 -0.59375 1.421875 -1.75l0 -1.765625l-3.421875 0q-3.078125 0 -3.078125 2.015625q0 0.96875 0.75 1.53125q0.75 0.546875 2.0625 0.546875z" fill-rule="nonzero"/><path fill="#000000" d="m199.57515 435.0461q-2.140625 0 -4.1875 -0.515625q-2.046875 -0.53125 -3.265625 -1.328125l1.65625 -3.59375q1.15625 0.734375 2.78125 1.203125q1.640625 0.46875 3.203125 0.46875q3.171875 0 3.171875 -1.578125q0 -0.734375 -0.859375 -1.046875q-0.859375 -0.328125 -2.65625 -0.546875q-2.109375 -0.328125 -3.484375 -0.734375q-1.375 -0.421875 -2.390625 -1.46875q-1.0 -1.0625 -1.0 -3.015625q0 -1.625 0.9375 -2.890625q0.9375 -1.265625 2.75 -1.96875q1.8125 -0.703125 4.28125 -0.703125q1.8125 0 3.625 0.40625q1.8125 0.390625 2.984375 1.09375l-1.65625 3.546875q-2.265625 -1.28125 -4.953125 -1.28125q-1.609375 0 -2.40625 0.453125q-0.796875 0.453125 -0.796875 1.15625q0 0.796875 0.859375 1.125q0.859375 0.3125 2.75 0.59375q2.109375 0.359375 3.453125 0.765625q1.34375 0.390625 2.328125 1.453125q1.0 1.046875 1.0 2.9375q0 1.609375 -0.96875 2.859375q-0.953125 1.234375 -2.796875 1.921875q-1.828125 0.6875 -4.359375 0.6875zm28.07016 -8.796875q0 0.09375 -0.09375 1.34375l-13.03125 0q0.359375 1.609375 1.671875 2.53125q1.3125 0.921875 3.25 0.921875q1.34375 0 2.390625 -0.390625q1.046875 -0.40625 1.9375 -1.265625l2.65625 2.875q-2.4375 2.78125 -7.109375 2.78125q-2.90625 0 -5.15625 -1.125q-2.234375 -1.140625 -3.453125 -3.15625q-1.203125 -2.015625 -1.203125 -4.578125q0 -2.53125 1.1875 -4.5625q1.203125 -2.03125 3.296875 -3.15625q2.09375 -1.140625 4.6875 -1.140625q2.53125 0 4.578125 1.09375q2.046875 1.078125 3.21875 3.109375q1.171875 2.03125 1.171875 4.71875zm-8.9375 -5.15625q-1.6875 0 -2.84375 0.96875q-1.15625 0.953125 -1.40625 2.625l8.484375 0q-0.265625 -1.640625 -1.421875 -2.609375q-1.140625 -0.984375 -2.8125 -0.984375zm17.035797 -1.234375q0.890625 -1.25 2.40625 -1.890625q1.53125 -0.640625 3.5 -0.640625l0 4.609375q-0.828125 -0.0625 -1.109375 -0.0625q-2.140625 0 -3.359375 1.203125q-1.21875 1.1875 -1.21875 3.59375l0 8.125l-5.0 0l0 -17.21875l4.78125 0l0 2.28125zm26.104507 -2.28125l-7.2656097 17.21875l-5.15625 0l-7.21875 -17.21875l5.140625 0l4.765625 11.71875l4.9374847 -11.71875l4.796875 0zm2.0422974 0l5.0 0l0 17.21875l-5.0 0l0 -17.21875zm2.515625 -2.390625q-1.375 0 -2.25 -0.796875q-0.859375 -0.8125 -0.859375 -2.0q0 -1.171875 0.859375 -1.96875q0.875 -0.8125 2.25 -0.8125q1.375 0 2.234375 0.78125q0.859375 0.765625 0.859375 1.90625q0 1.25 -0.859375 2.078125q-0.859375 0.8125 -2.234375 0.8125zm15.444519 19.859375q-2.75 0 -4.953125 -1.125q-2.1875 -1.140625 -3.421875 -3.15625q-1.21875 -2.015625 -1.21875 -4.578125q0 -2.5625 1.21875 -4.578125q1.234375 -2.015625 3.421875 -3.140625q2.203125 -1.140625 4.953125 -1.140625q2.71875 0 4.75 1.140625q2.03125 1.125 2.96875 3.234375l-3.875 2.078125q-1.34375 -2.359375 -3.875 -2.359375q-1.953125 0 -3.234375 1.28125q-1.28125 1.28125 -1.28125 3.484375q0 2.203125 1.28125 3.484375q1.28125 1.28125 3.234375 1.28125q2.5625 0 3.875 -2.359375l3.875 2.109375q-0.9375 2.046875 -2.96875 3.203125q-2.03125 1.140625 -4.75 1.140625zm27.458893 -8.796875q0 0.09375 -0.09375 1.34375l-13.03125 0q0.359375 1.609375 1.671875 2.53125q1.3125 0.921875 3.25 0.921875q1.34375 0 2.390625 -0.390625q1.046875 -0.40625 1.9375 -1.265625l2.65625 2.875q-2.4375 2.78125 -7.109375 2.78125q-2.90625 0 -5.15625 -1.125q-2.234375 -1.140625 -3.453125 -3.15625q-1.203125 -2.015625 -1.203125 -4.578125q0 -2.53125 1.1875 -4.5625q1.203125 -2.03125 3.296875 -3.15625q2.09375 -1.140625 4.6875 -1.140625q2.53125 0 4.578125 1.09375q2.046875 1.078125 3.21875 3.109375q1.171875 2.03125 1.171875 4.71875zm-8.9375 -5.15625q-1.6875 0 -2.84375 0.96875q-1.15625 0.953125 -1.40625 2.625l8.484375 0q-0.265625 -1.640625 -1.421875 -2.609375q-1.140625 -0.984375 -2.8125 -0.984375z" fill-rule="nonzero"/><path fill="#000000" fill-opacity="0.0" d="m140.33067 189.0315l202.61418 0l0 44.18898l-202.61418 0z" fill-rule="evenodd"/><path fill="#000000" d="m234.76085 209.15462l-6.078125 0l-1.15625 2.796875l-3.09375 0l5.828125 -13.0625l2.984375 0l5.84375 13.0625l-3.171875 0l-1.15625 -2.796875zm-0.953125 -2.296875l-2.078125 -5.0l-2.0625 5.0l4.140625 0zm12.290695 -7.96875q1.734375 0 3.015625 0.578125q1.28125 0.578125 1.96875 1.640625q0.6875 1.0625 0.6875 2.515625q0 1.4375 -0.6875 2.515625q-0.6875 1.078125 -1.96875 1.65625q-1.28125 0.5625 -3.015625 0.5625l-2.625 0l0 3.59375l-3.03125 0l0 -13.0625l5.65625 0zm-0.171875 7.0q1.359375 0 2.0625 -0.578125q0.71875 -0.59375 0.71875 -1.6875q0 -1.09375 -0.71875 -1.671875q-0.703125 -0.59375 -2.0625 -0.59375l-2.453125 0l0 4.53125l2.453125 0zm8.171997 -7.0l3.03125 0l0 13.0625l-3.03125 0l0 -13.0625z" fill-rule="nonzero"/><path fill="#000000" d="m158.67093 221.769q1.375 0 2.109375 0.6875q0.734375 0.6875 0.734375 2.03125l0 4.34375l-0.90625 0l0 -1.09375q-0.3125 0.546875 -0.9375 0.859375q-0.625 0.296875 -1.46875 0.296875q-1.171875 0 -1.875 -0.546875q-0.6875 -0.5625 -0.6875 -1.484375q0 -0.890625 0.640625 -1.4375q0.65625 -0.546875 2.0625 -0.546875l2.234375 0l0 -0.4375q0 -0.90625 -0.515625 -1.375q-0.5 -0.46875 -1.484375 -0.46875q-0.65625 0 -1.28125 0.21875q-0.609375 0.21875 -1.046875 0.609375l-0.421875 -0.71875q0.53125 -0.453125 1.28125 -0.6875q0.75 -0.25 1.5625 -0.25zm-0.328125 6.375q0.796875 0 1.375 -0.359375q0.578125 -0.359375 0.859375 -1.0625l0 -1.140625l-2.203125 0q-1.796875 0 -1.796875 1.25q0 0.609375 0.453125 0.96875q0.46875 0.34375 1.3125 0.34375zm9.363571 -6.375q0.984375 0 1.78125 0.453125q0.796875 0.4375 1.25 1.25q0.453125 0.8125 0.453125 1.859375q0 1.046875 -0.453125 1.859375q-0.453125 0.8125 -1.25 1.265625q-0.78125 0.4375 -1.78125 0.4375q-0.859375 0 -1.546875 -0.34375q-0.6875 -0.359375 -1.125 -1.03125l0 3.890625l-0.953125 0l0 -9.59375l0.90625 0l0 1.390625q0.4375 -0.6875 1.125 -1.0625q0.703125 -0.375 1.59375 -0.375zm-0.078125 6.296875q0.734375 0 1.328125 -0.34375q0.609375 -0.34375 0.953125 -0.96875q0.34375 -0.625 0.34375 -1.421875q0 -0.8125 -0.34375 -1.421875q-0.34375 -0.625 -0.953125 -0.96875q-0.59375 -0.34375 -1.328125 -0.34375q-0.734375 0 -1.328125 0.34375q-0.59375 0.34375 -0.9375 0.96875q-0.34375 0.609375 -0.34375 1.421875q0 0.796875 0.34375 1.421875q0.34375 0.625 0.9375 0.96875q0.59375 0.34375 1.328125 0.34375zm9.114563 -6.296875q0.984375 0 1.78125 0.453125q0.796875 0.4375 1.25 1.25q0.453125 0.8125 0.453125 1.859375q0 1.046875 -0.453125 1.859375q-0.453125 0.8125 -1.25 1.265625q-0.78125 0.4375 -1.78125 0.4375q-0.859375 0 -1.546875 -0.34375q-0.6875 -0.359375 -1.125 -1.03125l0 3.890625l-0.953125 0l0 -9.59375l0.90625 0l0 1.390625q0.4375 -0.6875 1.125 -1.0625q0.703125 -0.375 1.59375 -0.375zm-0.078125 6.296875q0.734375 0 1.328125 -0.34375q0.609375 -0.34375 0.953125 -0.96875q0.34375 -0.625 0.34375 -1.421875q0 -0.8125 -0.34375 -1.421875q-0.34375 -0.625 -0.953125 -0.96875q-0.59375 -0.34375 -1.328125 -0.34375q-0.734375 0 -1.328125 0.34375q-0.59375 0.34375 -0.9375 0.96875q-0.34375 0.609375 -0.34375 1.421875q0 0.796875 0.34375 1.421875q0.34375 0.625 0.9375 0.96875q0.59375 0.34375 1.328125 0.34375zm5.489563 -9.125l0.953125 0l0 9.890625l-0.953125 0l0 -9.890625zm3.5852509 2.875l0.953125 0l0 7.015625l-0.953125 0l0 -7.015625zm0.484375 -1.53125q-0.296875 0 -0.5 -0.1875q-0.1875 -0.203125 -0.1875 -0.484375q0 -0.265625 0.1875 -0.46875q0.203125 -0.203125 0.5 -0.203125q0.296875 0 0.484375 0.203125q0.203125 0.1875 0.203125 0.453125q0 0.296875 -0.203125 0.5q-0.1875 0.1875 -0.484375 0.1875zm6.007126 8.609375q-1.03125 0 -1.859375 -0.453125q-0.8125 -0.453125 -1.28125 -1.265625q-0.46875 -0.828125 -0.46875 -1.84375q0 -1.03125 0.46875 -1.84375q0.46875 -0.8125 1.28125 -1.265625q0.828125 -0.453125 1.859375 -0.453125q0.90625 0 1.625 0.359375q0.71875 0.34375 1.125 1.03125l-0.703125 0.46875q-0.34375 -0.515625 -0.890625 -0.765625q-0.53125 -0.265625 -1.15625 -0.265625q-0.75 0 -1.359375 0.34375q-0.609375 0.328125 -0.953125 0.953125q-0.328125 0.625 -0.328125 1.4375q0 0.8125 0.328125 1.4375q0.34375 0.609375 0.953125 0.953125q0.609375 0.34375 1.359375 0.34375q0.625 0 1.15625 -0.25q0.546875 -0.265625 0.890625 -0.78125l0.703125 0.484375q-0.40625 0.671875 -1.125 1.03125q-0.71875 0.34375 -1.625 0.34375zm7.050583 -7.125q1.375 0 2.109375 0.6875q0.734375 0.6875 0.734375 2.03125l0 4.34375l-0.90625 0l0 -1.09375q-0.3125 0.546875 -0.9375 0.859375q-0.625 0.296875 -1.46875 0.296875q-1.171875 0 -1.875 -0.546875q-0.6875 -0.5625 -0.6875 -1.484375q0 -0.890625 0.640625 -1.4375q0.65625 -0.546875 2.0625 -0.546875l2.234375 0l0 -0.4375q0 -0.90625 -0.515625 -1.375q-0.5 -0.46875 -1.484375 -0.46875q-0.65625 0 -1.28125 0.21875q-0.609375 0.21875 -1.046875 0.609375l-0.421875 -0.71875q0.53125 -0.453125 1.28125 -0.6875q0.75 -0.25 1.5625 -0.25zm-0.328125 6.375q0.796875 0 1.375 -0.359375q0.578125 -0.359375 0.859375 -1.0625l0 -1.140625l-2.203125 0q-1.796875 0 -1.796875 1.25q0 0.609375 0.453125 0.96875q0.46875 0.34375 1.3125 0.34375zm9.441696 0.265625q-0.265625 0.234375 -0.671875 0.359375q-0.390625 0.125 -0.8125 0.125q-0.984375 0 -1.515625 -0.53125q-0.53125 -0.53125 -0.53125 -1.5l0 -4.234375l-1.25 0l0 -0.8125l1.25 0l0 -1.53125l0.9375 0l0 1.53125l2.140625 0l0 0.8125l-2.140625 0l0 4.171875q0 0.625 0.3125 0.953125q0.3125 0.328125 0.90625 0.328125q0.296875 0 0.5625 -0.09375q0.28125 -0.09375 0.46875 -0.265625l0.34375 0.6875zm1.7080688 -6.59375l0.953125 0l0 7.015625l-0.953125 0l0 -7.015625zm0.484375 -1.53125q-0.296875 0 -0.5 -0.1875q-0.1875 -0.203125 -0.1875 -0.484375q0 -0.265625 0.1875 -0.46875q0.203125 -0.203125 0.5 -0.203125q0.296875 0 0.484375 0.203125q0.203125 0.1875 0.203125 0.453125q0 0.296875 -0.203125 0.5q-0.1875 0.1875 -0.484375 0.1875zm5.975876 8.609375q-1.015625 0 -1.828125 -0.453125q-0.8125 -0.46875 -1.28125 -1.28125q-0.46875 -0.8125 -0.46875 -1.828125q0 -1.03125 0.46875 -1.84375q0.46875 -0.8125 1.28125 -1.265625q0.8125 -0.453125 1.828125 -0.453125q1.015625 0 1.828125 0.453125q0.8125 0.453125 1.265625 1.265625q0.46875 0.8125 0.46875 1.84375q0 1.015625 -0.46875 1.828125q-0.453125 0.8125 -1.265625 1.28125q-0.8125 0.453125 -1.828125 0.453125zm0 -0.828125q0.75 0 1.34375 -0.34375q0.59375 -0.34375 0.921875 -0.96875q0.328125 -0.625 0.328125 -1.421875q0 -0.8125 -0.328125 -1.4375q-0.328125 -0.625 -0.921875 -0.953125q-0.59375 -0.34375 -1.34375 -0.34375q-0.75 0 -1.34375 0.34375q-0.59375 0.328125 -0.9375 0.953125q-0.328125 0.625 -0.328125 1.4375q0 0.796875 0.328125 1.421875q0.34375 0.625 0.9375 0.96875q0.59375 0.34375 1.34375 0.34375zm9.05983 -6.296875q1.3125 0 2.09375 0.765625q0.78125 0.765625 0.78125 2.234375l0 4.0625l-0.9375 0l0 -3.96875q0 -1.09375 -0.546875 -1.65625q-0.546875 -0.578125 -1.5625 -0.578125q-1.140625 0 -1.796875 0.671875q-0.65625 0.671875 -0.65625 1.859375l0 3.671875l-0.953125 0l0 -7.015625l0.90625 0l0 1.296875q0.390625 -0.640625 1.078125 -0.984375q0.6875 -0.359375 1.59375 -0.359375zm12.561935 0q0.984375 0 1.78125 0.453125q0.796875 0.4375 1.25 1.25q0.453125 0.8125 0.453125 1.859375q0 1.046875 -0.453125 1.859375q-0.453125 0.8125 -1.25 1.265625q-0.78125 0.4375 -1.78125 0.4375q-0.859375 0 -1.546875 -0.34375q-0.6875 -0.359375 -1.125 -1.03125l0 3.890625l-0.953125 0l0 -9.59375l0.90625 0l0 1.390625q0.4375 -0.6875 1.125 -1.0625q0.703125 -0.375 1.59375 -0.375zm-0.078125 6.296875q0.734375 0 1.328125 -0.34375q0.609375 -0.34375 0.953125 -0.96875q0.34375 -0.625 0.34375 -1.421875q0 -0.8125 -0.34375 -1.421875q-0.34375 -0.625 -0.953125 -0.96875q-0.59375 -0.34375 -1.328125 -0.34375q-0.734375 0 -1.328125 0.34375q-0.59375 0.34375 -0.9375 0.96875q-0.34375 0.609375 -0.34375 1.421875q0 0.796875 0.34375 1.421875q0.34375 0.625 0.9375 0.96875q0.59375 0.34375 1.328125 0.34375zm6.395813 -4.875q0.34375 -0.703125 1.0 -1.0625q0.65625 -0.359375 1.625 -0.359375l0 0.921875l-0.21875 -0.015625q-1.109375 0 -1.734375 0.6875q-0.625 0.671875 -0.625 1.890625l0 3.578125l-0.953125 0l0 -7.015625l0.90625 0l0 1.375zm7.3133087 5.703125q-1.015625 0 -1.828125 -0.453125q-0.8125 -0.46875 -1.28125 -1.28125q-0.46875 -0.8125 -0.46875 -1.828125q0 -1.03125 0.46875 -1.84375q0.46875 -0.8125 1.28125 -1.265625q0.8125 -0.453125 1.828125 -0.453125q1.015625 0 1.828125 0.453125q0.8125 0.453125 1.265625 1.265625q0.46875 0.8125 0.46875 1.84375q0 1.015625 -0.46875 1.828125q-0.453125 0.8125 -1.265625 1.28125q-0.8125 0.453125 -1.828125 0.453125zm0 -0.828125q0.75 0 1.34375 -0.34375q0.59375 -0.34375 0.921875 -0.96875q0.328125 -0.625 0.328125 -1.421875q0 -0.8125 -0.328125 -1.4375q-0.328125 -0.625 -0.921875 -0.953125q-0.59375 -0.34375 -1.34375 -0.34375q-0.75 0 -1.34375 0.34375q-0.59375 0.328125 -0.9375 0.953125q-0.328125 0.625 -0.328125 1.4375q0 0.796875 0.328125 1.421875q0.34375 0.625 0.9375 0.96875q0.59375 0.34375 1.34375 0.34375zm11.981705 -6.25l0 6.15625q0 1.796875 -0.875 2.65625q-0.875 0.859375 -2.625 0.859375q-0.984375 0 -1.859375 -0.296875q-0.859375 -0.28125 -1.40625 -0.78125l0.46875 -0.71875q0.515625 0.453125 1.234375 0.703125q0.734375 0.25 1.53125 0.25q1.328125 0 1.953125 -0.625q0.625 -0.609375 0.625 -1.921875l0 -0.890625q-0.4375 0.671875 -1.15625 1.015625q-0.703125 0.34375 -1.578125 0.34375q-0.984375 0 -1.796875 -0.4375q-0.796875 -0.4375 -1.265625 -1.203125q-0.453125 -0.78125 -0.453125 -1.765625q0 -1.0 0.453125 -1.765625q0.46875 -0.765625 1.265625 -1.1875q0.796875 -0.4375 1.796875 -0.4375q0.90625 0 1.625 0.359375q0.71875 0.359375 1.15625 1.03125l0 -1.34375l0.90625 0zm-3.59375 5.90625q0.765625 0 1.375 -0.328125q0.609375 -0.328125 0.953125 -0.90625q0.34375 -0.59375 0.34375 -1.328125q0 -0.75 -0.34375 -1.328125q-0.34375 -0.578125 -0.953125 -0.90625q-0.59375 -0.328125 -1.375 -0.328125q-0.75 0 -1.359375 0.328125q-0.609375 0.3125 -0.953125 0.90625q-0.328125 0.578125 -0.328125 1.328125q0 0.734375 0.328125 1.328125q0.34375 0.578125 0.953125 0.90625q0.609375 0.328125 1.359375 0.328125zm7.1430664 -4.53125q0.34375 -0.703125 1.0 -1.0625q0.65625 -0.359375 1.625 -0.359375l0 0.921875l-0.21875 -0.015625q-1.109375 0 -1.734375 0.6875q-0.625 0.671875 -0.625 1.890625l0 3.578125l-0.953125 0l0 -7.015625l0.90625 0l0 1.375zm6.891449 -1.421875q1.375 0 2.109375 0.6875q0.734375 0.6875 0.734375 2.03125l0 4.34375l-0.90625 0l0 -1.09375q-0.3125 0.546875 -0.9375 0.859375q-0.625 0.296875 -1.46875 0.296875q-1.171875 0 -1.875 -0.546875q-0.6875 -0.5625 -0.6875 -1.484375q0 -0.890625 0.640625 -1.4375q0.65625 -0.546875 2.0625 -0.546875l2.234375 0l0 -0.4375q0 -0.90625 -0.515625 -1.375q-0.5 -0.46875 -1.484375 -0.46875q-0.65625 0 -1.28125 0.21875q-0.609375 0.21875 -1.046875 0.609375l-0.421875 -0.71875q0.53125 -0.453125 1.28125 -0.6875q0.75 -0.25 1.5625 -0.25zm-0.328125 6.375q0.796875 0 1.375 -0.359375q0.578125 -0.359375 0.859375 -1.0625l0 -1.140625l-2.203125 0q-1.796875 0 -1.796875 1.25q0 0.609375 0.453125 0.96875q0.46875 0.34375 1.3125 0.34375zm14.488556 -6.375q1.3125 0 2.0625 0.765625q0.765625 0.75 0.765625 2.234375l0 4.0625l-0.953125 0l0 -3.96875q0 -1.09375 -0.53125 -1.65625q-0.515625 -0.578125 -1.484375 -0.578125q-1.078125 0 -1.71875 0.671875q-0.625 0.671875 -0.625 1.859375l0 3.671875l-0.9375 0l0 -3.96875q0 -1.09375 -0.53125 -1.65625q-0.53125 -0.578125 -1.5 -0.578125q-1.078125 0 -1.71875 0.671875q-0.625 0.671875 -0.625 1.859375l0 3.671875l-0.953125 0l0 -7.015625l0.90625 0l0 1.28125q0.375 -0.640625 1.046875 -0.984375q0.671875 -0.34375 1.53125 -0.34375q0.875 0 1.515625 0.375q0.65625 0.375 0.984375 1.109375q0.375 -0.703125 1.09375 -1.09375q0.734375 -0.390625 1.671875 -0.390625zm14.141083 0q1.3125 0 2.0625 0.765625q0.765625 0.75 0.765625 2.234375l0 4.0625l-0.953125 0l0 -3.96875q0 -1.09375 -0.53125 -1.65625q-0.515625 -0.578125 -1.484375 -0.578125q-1.078125 0 -1.71875 0.671875q-0.625 0.671875 -0.625 1.859375l0 3.671875l-0.9375 0l0 -3.96875q0 -1.09375 -0.53125 -1.65625q-0.53125 -0.578125 -1.5 -0.578125q-1.078125 0 -1.71875 0.671875q-0.625 0.671875 -0.625 1.859375l0 3.671875l-0.953125 0l0 -7.015625l0.90625 0l0 1.28125q0.375 -0.640625 1.046875 -0.984375q0.671875 -0.34375 1.53125 -0.34375q0.875 0 1.515625 0.375q0.65625 0.375 0.984375 1.109375q0.375 -0.703125 1.09375 -1.09375q0.734375 -0.390625 1.671875 -0.390625zm5.391083 0.046875l0.953125 0l0 7.015625l-0.953125 0l0 -7.015625zm0.484375 -1.53125q-0.296875 0 -0.5 -0.1875q-0.1875 -0.203125 -0.1875 -0.484375q0 -0.265625 0.1875 -0.46875q0.203125 -0.203125 0.5 -0.203125q0.296875 0 0.484375 0.203125q0.203125 0.1875 0.203125 0.453125q0 0.296875 -0.203125 0.5q-0.1875 0.1875 -0.484375 0.1875zm6.679016 1.484375q1.3125 0 2.09375 0.765625q0.78125 0.765625 0.78125 2.234375l0 4.0625l-0.9375 0l0 -3.96875q0 -1.09375 -0.546875 -1.65625q-0.546875 -0.578125 -1.5625 -0.578125q-1.140625 0 -1.796875 0.671875q-0.65625 0.671875 -0.65625 1.859375l0 3.671875l-0.953125 0l0 -7.015625l0.90625 0l0 1.296875q0.390625 -0.640625 1.078125 -0.984375q0.6875 -0.359375 1.59375 -0.359375zm11.944977 0.046875l0 6.15625q0 1.796875 -0.875 2.65625q-0.875 0.859375 -2.625 0.859375q-0.984375 0 -1.859375 -0.296875q-0.859375 -0.28125 -1.40625 -0.78125l0.46875 -0.71875q0.515625 0.453125 1.234375 0.703125q0.734375 0.25 1.53125 0.25q1.328125 0 1.953125 -0.625q0.625 -0.609375 0.625 -1.921875l0 -0.890625q-0.4375 0.671875 -1.15625 1.015625q-0.703125 0.34375 -1.578125 0.34375q-0.984375 0 -1.796875 -0.4375q-0.796875 -0.4375 -1.265625 -1.203125q-0.453125 -0.78125 -0.453125 -1.765625q0 -1.0 0.453125 -1.765625q0.46875 -0.765625 1.265625 -1.1875q0.796875 -0.4375 1.796875 -0.4375q0.90625 0 1.625 0.359375q0.71875 0.359375 1.15625 1.03125l0 -1.34375l0.90625 0zm-3.59375 5.90625q0.765625 0 1.375 -0.328125q0.609375 -0.328125 0.953125 -0.90625q0.34375 -0.59375 0.34375 -1.328125q0 -0.75 -0.34375 -1.328125q-0.34375 -0.578125 -0.953125 -0.90625q-0.59375 -0.328125 -1.375 -0.328125q-0.75 0 -1.359375 0.328125q-0.609375 0.3125 -0.953125 0.90625q-0.328125 0.578125 -0.328125 1.328125q0 0.734375 0.328125 1.328125q0.34375 0.578125 0.953125 0.90625q0.609375 0.328125 1.359375 0.328125z" fill-rule="nonzero"/><path fill="#000000" d="m213.2753 237.81587l0.953125 0l0 7.015625l-0.953125 0l0 -7.015625zm0.484375 -1.53125q-0.296875 0 -0.5 -0.1875q-0.1875 -0.203125 -0.1875 -0.484375q0 -0.265625 0.1875 -0.46875q0.203125 -0.203125 0.5 -0.203125q0.296875 0 0.484375 0.203125q0.203125 0.1875 0.203125 0.453125q0 0.296875 -0.203125 0.5q-0.1875 0.1875 -0.484375 0.1875zm6.679001 1.484375q1.3125 0 2.09375 0.765625q0.78125 0.765625 0.78125 2.234375l0 4.0625l-0.9375 0l0 -3.96875q0 -1.09375 -0.546875 -1.65625q-0.546875 -0.578125 -1.5625 -0.578125q-1.140625 0 -1.796875 0.671875q-0.65625 0.671875 -0.65625 1.859375l0 3.671875l-0.953125 0l0 -7.015625l0.90625 0l0 1.296875q0.390625 -0.640625 1.078125 -0.984375q0.6875 -0.359375 1.59375 -0.359375zm9.148102 6.640625q-0.265625 0.234375 -0.671875 0.359375q-0.390625 0.125 -0.8125 0.125q-0.984375 0 -1.515625 -0.53125q-0.53125 -0.53125 -0.53125 -1.5l0 -4.234375l-1.25 0l0 -0.8125l1.25 0l0 -1.53125l0.9375 0l0 1.53125l2.140625 0l0 0.8125l-2.140625 0l0 4.171875q0 0.625 0.3125 0.953125q0.3125 0.328125 0.90625 0.328125q0.296875 0 0.5625 -0.09375q0.28125 -0.09375 0.46875 -0.265625l0.34375 0.6875zm7.817444 -2.796875l-5.859375 0q0.078125 1.09375 0.828125 1.78125q0.765625 0.671875 1.921875 0.671875q0.65625 0 1.203125 -0.234375q0.546875 -0.234375 0.953125 -0.6875l0.53125 0.609375q-0.46875 0.5625 -1.171875 0.859375q-0.703125 0.28125 -1.53125 0.28125q-1.078125 0 -1.921875 -0.453125q-0.828125 -0.46875 -1.296875 -1.28125q-0.46875 -0.8125 -0.46875 -1.828125q0 -1.03125 0.4375 -1.84375q0.453125 -0.8125 1.234375 -1.265625q0.78125 -0.453125 1.75 -0.453125q0.984375 0 1.75 0.453125q0.78125 0.453125 1.21875 1.265625q0.4375 0.796875 0.4375 1.84375l-0.015625 0.28125zm-3.390625 -3.03125q-1.0 0 -1.6875 0.65625q-0.6875 0.640625 -0.78125 1.671875l4.96875 0q-0.09375 -1.03125 -0.78125 -1.671875q-0.6875 -0.65625 -1.71875 -0.65625zm6.2376556 0.609375q0.34375 -0.703125 1.0 -1.0625q0.65625 -0.359375 1.625 -0.359375l0 0.921875l-0.21875 -0.015625q-1.109375 0 -1.734375 0.6875q-0.625 0.671875 -0.625 1.890625l0 3.578125l-0.953125 0l0 -7.015625l0.90625 0l0 1.375zm6.7664337 -3.515625q-0.609375 0 -0.921875 0.34375q-0.3125 0.328125 -0.3125 0.96875l0 0.828125l2.15625 0l0 0.8125l-2.140625 0l0 6.203125l-0.9375 0l0 -6.203125l-1.25 0l0 -0.8125l1.25 0l0 -0.859375q0 -0.96875 0.546875 -1.515625q0.546875 -0.5625 1.5625 -0.5625q0.40625 0 0.78125 0.109375q0.375 0.109375 0.625 0.328125l-0.328125 0.703125q-0.40625 -0.34375 -1.03125 -0.34375zm4.643219 2.09375q1.375 0 2.109375 0.6875q0.734375 0.6875 0.734375 2.03125l0 4.34375l-0.90625 0l0 -1.09375q-0.3125 0.546875 -0.9375 0.859375q-0.625 0.296875 -1.46875 0.296875q-1.171875 0 -1.875 -0.546875q-0.6875 -0.5625 -0.6875 -1.484375q0 -0.890625 0.640625 -1.4375q0.65625 -0.546875 2.0625 -0.546875l2.234375 0l0 -0.4375q0 -0.90625 -0.515625 -1.375q-0.5 -0.46875 -1.484375 -0.46875q-0.65625 0 -1.28125 0.21875q-0.609375 0.21875 -1.046875 0.609375l-0.421875 -0.71875q0.53125 -0.453125 1.28125 -0.6875q0.75 -0.25 1.5625 -0.25zm-0.328125 6.375q0.796875 0 1.375 -0.359375q0.578125 -0.359375 0.859375 -1.0625l0 -1.140625l-2.203125 0q-1.796875 0 -1.796875 1.25q0 0.609375 0.453125 0.96875q0.46875 0.34375 1.3125 0.34375zm8.644821 0.75q-1.03125 0 -1.859375 -0.453125q-0.8125 -0.453125 -1.28125 -1.265625q-0.46875 -0.828125 -0.46875 -1.84375q0 -1.03125 0.46875 -1.84375q0.46875 -0.8125 1.28125 -1.265625q0.828125 -0.453125 1.859375 -0.453125q0.90625 0 1.625 0.359375q0.71875 0.34375 1.125 1.03125l-0.703125 0.46875q-0.34375 -0.515625 -0.890625 -0.765625q-0.53125 -0.265625 -1.15625 -0.265625q-0.75 0 -1.359375 0.34375q-0.609375 0.328125 -0.953125 0.953125q-0.328125 0.625 -0.328125 1.4375q0 0.8125 0.328125 1.4375q0.34375 0.609375 0.953125 0.953125q0.609375 0.34375 1.359375 0.34375q0.625 0 1.15625 -0.25q0.546875 -0.265625 0.890625 -0.78125l0.703125 0.484375q-0.40625 0.671875 -1.125 1.03125q-0.71875 0.34375 -1.625 0.34375zm10.706848 -3.28125l-5.859375 0q0.078125 1.09375 0.828125 1.78125q0.765625 0.671875 1.921875 0.671875q0.65625 0 1.203125 -0.234375q0.546875 -0.234375 0.953125 -0.6875l0.53125 0.609375q-0.46875 0.5625 -1.171875 0.859375q-0.703125 0.28125 -1.53125 0.28125q-1.078125 0 -1.921875 -0.453125q-0.828125 -0.46875 -1.296875 -1.28125q-0.46875 -0.8125 -0.46875 -1.828125q0 -1.03125 0.4375 -1.84375q0.453125 -0.8125 1.234375 -1.265625q0.78125 -0.453125 1.75 -0.453125q0.984375 0 1.75 0.453125q0.78125 0.453125 1.21875 1.265625q0.4375 0.796875 0.4375 1.84375l-0.015625 0.28125zm-3.390625 -3.03125q-1.0 0 -1.6875 0.65625q-0.6875 0.640625 -0.78125 1.671875l4.96875 0q-0.09375 -1.03125 -0.78125 -1.671875q-0.6875 -0.65625 -1.71875 -0.65625z" fill-rule="nonzero"/><path fill="#000000" fill-opacity="0.0" d="m75.13648 124.997375l54.04725 53.5748" fill-rule="evenodd"/><path stroke="#000000" stroke-width="1.0" stroke-linejoin="round" stroke-linecap="butt" d="m75.13648 124.997375l49.78602 49.35083" fill-rule="evenodd"/><path fill="#000000" stroke="#000000" stroke-width="1.0" stroke-linecap="butt" d="m123.75969 175.52127l4.385788 2.0217285l-2.0601578 -4.367859z" fill-rule="evenodd"/><path fill="#f3f3f3" d="m169.35301 47.858578l0 0c0 -8.520721 6.9074097 -15.428131 15.428131 -15.428131l130.46657 0c4.091797 0 8.016022 1.6254578 10.909332 4.518795c2.893341 2.8933334 4.518799 6.817539 4.518799 10.909336l0 61.710667c0 8.520721 -6.9074097 15.428131 -15.428131 15.428131l-130.46657 0c-8.520721 0 -15.428131 -6.9074097 -15.428131 -15.428131z" fill-rule="evenodd"/><path stroke="#000000" stroke-width="1.0" stroke-linejoin="round" stroke-linecap="butt" d="m169.35301 47.858578l0 0c0 -8.520721 6.9074097 -15.428131 15.428131 -15.428131l130.46657 0c4.091797 0 8.016022 1.6254578 10.909332 4.518795c2.893341 2.8933334 4.518799 6.817539 4.518799 10.909336l0 61.710667c0 8.520721 -6.9074097 15.428131 -15.428131 15.428131l-130.46657 0c-8.520721 0 -15.428131 -6.9074097 -15.428131 -15.428131z" fill-rule="evenodd"/><path fill="#f3f3f3" d="m334.99475 47.858578l0 0c0 -8.520721 6.9074097 -15.428131 15.428131 -15.428131l130.46658 0c4.091797 0 8.015991 1.6254578 10.909332 4.518795c2.893341 2.8933334 4.518799 6.817539 4.518799 10.909336l0 61.710667c0 8.520721 -6.9074097 15.428131 -15.428131 15.428131l-130.46658 0c-8.520721 0 -15.428131 -6.9074097 -15.428131 -15.428131z" fill-rule="evenodd"/><path stroke="#000000" stroke-width="1.0" stroke-linejoin="round" stroke-linecap="butt" d="m334.99475 47.858578l0 0c0 -8.520721 6.9074097 -15.428131 15.428131 -15.428131l130.46658 0c4.091797 0 8.015991 1.6254578 10.909332 4.518795c2.893341 2.8933334 4.518799 6.817539 4.518799 10.909336l0 61.710667c0 8.520721 -6.9074097 15.428131 -15.428131 15.428131l-130.46658 0c-8.520721 0 -15.428131 -6.9074097 -15.428131 -15.428131z" fill-rule="evenodd"/><path fill="#000000" fill-opacity="0.0" d="m182.08842 53.08049l138.80315 0l0 44.18898l-138.80315 0z" fill-rule="evenodd"/><path fill="#000000" d="m210.51942 76.21924q-2.0 0 -3.609375 -0.859375q-1.609375 -0.875 -2.53125 -2.40625q-0.921875 -1.546875 -0.921875 -3.484375q0 -1.9375 0.921875 -3.46875q0.921875 -1.546875 2.53125 -2.40625q1.609375 -0.875 3.625 -0.875q1.703125 0 3.0625 0.59375q1.375 0.59375 2.3125 1.71875l-1.9375 1.796875q-1.328125 -1.53125 -3.28125 -1.53125q-1.21875 0 -2.171875 0.53125q-0.953125 0.53125 -1.484375 1.484375q-0.53125 0.9375 -0.53125 2.15625q0 1.21875 0.53125 2.171875q0.53125 0.9375 1.484375 1.484375q0.953125 0.53125 2.171875 0.53125q1.953125 0 3.28125 -1.5625l1.9375 1.796875q-0.9375 1.140625 -2.3125 1.734375q-1.375 0.59375 -3.078125 0.59375zm13.315659 -10.40625q1.875 0 3.015625 1.125q1.15625 1.109375 1.15625 3.3125l0 5.75l-2.921875 0l0 -5.296875q0 -1.203125 -0.515625 -1.78125q-0.515625 -0.59375 -1.515625 -0.59375q-1.09375 0 -1.75 0.6875q-0.65625 0.671875 -0.65625 2.015625l0 4.96875l-2.90625 0l0 -13.84375l2.90625 0l0 4.84375q0.578125 -0.578125 1.390625 -0.875q0.828125 -0.3125 1.796875 -0.3125zm10.844589 0q2.328125 0 3.578125 1.109375q1.25 1.109375 1.25 3.34375l0 5.734375l-2.71875 0l0 -1.25q-0.828125 1.40625 -3.0625 1.40625q-1.15625 0 -2.015625 -0.390625q-0.84375 -0.40625 -1.296875 -1.09375q-0.4375 -0.6875 -0.4375 -1.5625q0 -1.40625 1.046875 -2.203125q1.0625 -0.796875 3.265625 -0.796875l2.3125 0q0 -0.953125 -0.578125 -1.46875q-0.578125 -0.515625 -1.734375 -0.515625q-0.796875 0 -1.578125 0.25q-0.765625 0.25 -1.3125 0.6875l-1.046875 -2.03125q0.828125 -0.578125 1.96875 -0.890625q1.140625 -0.328125 2.359375 -0.328125zm-0.21875 8.375q0.734375 0 1.3125 -0.34375q0.59375 -0.34375 0.828125 -1.015625l0 -1.03125l-2.0 0q-1.78125 0 -1.78125 1.1875q0 0.546875 0.4375 0.875q0.4375 0.328125 1.203125 0.328125zm13.776535 -8.375q1.875 0 3.015625 1.125q1.15625 1.109375 1.15625 3.3125l0 5.75l-2.921875 0l0 -5.296875q0 -1.203125 -0.515625 -1.78125q-0.515625 -0.59375 -1.515625 -0.59375q-1.09375 0 -1.75 0.6875q-0.65625 0.671875 -0.65625 2.015625l0 4.96875l-2.90625 0l0 -10.03125l2.78125 0l0 1.171875q0.578125 -0.640625 1.4375 -0.984375q0.859375 -0.34375 1.875 -0.34375zm12.8914795 0q1.875 0 3.015625 1.125q1.15625 1.109375 1.15625 3.3125l0 5.75l-2.921875 0l0 -5.296875q0 -1.203125 -0.515625 -1.78125q-0.515625 -0.59375 -1.515625 -0.59375q-1.09375 0 -1.75 0.6875q-0.65625 0.671875 -0.65625 2.015625l0 4.96875l-2.9062653 0l0 -10.03125l2.7812653 0l0 1.171875q0.578125 -0.640625 1.4375 -0.984375q0.859375 -0.34375 1.875 -0.34375zm16.625824 5.203125q0 0.0625 -0.046875 0.78125l-7.59375 0q0.203125 0.9375 0.96875 1.484375q0.765625 0.53125 1.90625 0.53125q0.78125 0 1.375 -0.234375q0.609375 -0.234375 1.140625 -0.734375l1.546875 1.6875q-1.421875 1.625 -4.140625 1.625q-1.703125 0 -3.015625 -0.65625q-1.296875 -0.671875 -2.015625 -1.84375q-0.703125 -1.1875 -0.703125 -2.671875q0 -1.484375 0.703125 -2.65625q0.703125 -1.1875 1.921875 -1.84375q1.21875 -0.671875 2.734375 -0.671875q1.46875 0 2.65625 0.640625q1.203125 0.625 1.875 1.8125q0.6875 1.1875 0.6875 2.75zm-5.203125 -3.0q-0.984375 0 -1.65625 0.5625q-0.671875 0.5625 -0.828125 1.53125l4.953125 0q-0.15625 -0.953125 -0.828125 -1.515625q-0.671875 -0.578125 -1.640625 -0.578125zm7.1470947 -5.859375l2.90625 0l0 13.84375l-2.90625 0l0 -13.84375zm20.035889 11.375l0 2.46875l-9.875 0l0 -1.953125l5.046875 -4.765625q0.796875 -0.765625 1.078125 -1.3125q0.28125 -0.546875 0.28125 -1.09375q0 -0.78125 -0.53125 -1.203125q-0.53125 -0.421875 -1.5625 -0.421875q-0.859375 0 -1.546875 0.328125q-0.6875 0.328125 -1.15625 0.984375l-2.203125 -1.421875q0.765625 -1.140625 2.109375 -1.78125q1.34375 -0.640625 3.078125 -0.640625q1.453125 0 2.546875 0.484375q1.09375 0.46875 1.703125 1.34375q0.609375 0.859375 0.609375 2.03125q0 1.0625 -0.453125 2.0q-0.453125 0.921875 -1.734375 2.125l-3.0 2.828125l5.609375 0z" fill-rule="nonzero"/><path fill="#000000" d="m212.24855 88.10986q1.859375 0 2.90625 1.0625q1.0625 1.0625 1.0625 3.140625l0 5.6875l-1.328125 0l0 -5.5625q0 -1.53125 -0.75 -2.328125q-0.734375 -0.796875 -2.0625 -0.796875q-1.53125 0 -2.421875 0.9375q-0.875 0.9375 -0.875 2.59375l0 5.15625l-1.3125 0l0 -5.5625q0 -1.53125 -0.75 -2.328125q-0.734375 -0.796875 -2.09375 -0.796875q-1.515625 0 -2.40625 0.9375q-0.875 0.9375 -0.875 2.59375l0 5.15625l-1.328125 0l0 -9.8125l1.265625 0l0 1.796875q0.53125 -0.90625 1.453125 -1.390625q0.9375 -0.484375 2.15625 -0.484375q1.234375 0 2.125 0.53125q0.90625 0.515625 1.359375 1.546875q0.546875 -0.96875 1.5625 -1.515625q1.015625 -0.5625 2.3125 -0.5625zm11.575531 9.984375q-1.421875 0 -2.5625 -0.640625q-1.125 -0.640625 -1.78125 -1.78125q-0.65625 -1.140625 -0.65625 -2.578125q0 -1.4375 0.65625 -2.578125q0.65625 -1.140625 1.78125 -1.765625q1.140625 -0.640625 2.5625 -0.640625q1.421875 0 2.546875 0.640625q1.140625 0.625 1.78125 1.765625q0.65625 1.140625 0.65625 2.578125q0 1.4375 -0.65625 2.578125q-0.640625 1.140625 -1.78125 1.78125q-1.125 0.640625 -2.546875 0.640625zm0 -1.171875q1.046875 0 1.875 -0.46875q0.828125 -0.484375 1.296875 -1.359375q0.46875 -0.875 0.46875 -2.0q0 -1.125 -0.46875 -2.0q-0.46875 -0.875 -1.296875 -1.34375q-0.828125 -0.484375 -1.875 -0.484375q-1.046875 0 -1.875 0.484375q-0.828125 0.46875 -1.3125 1.34375q-0.46875 0.875 -0.46875 2.0q0 1.125 0.46875 2.0q0.484375 0.875 1.3125 1.359375q0.828125 0.46875 1.875 0.46875zm12.744339 -8.8125q1.375 0 2.484375 0.625q1.125 0.625 1.765625 1.765625q0.640625 1.140625 0.640625 2.59375q0 1.453125 -0.640625 2.59375q-0.640625 1.140625 -1.765625 1.78125q-1.109375 0.625 -2.484375 0.625q-1.234375 0 -2.21875 -0.515625q-0.96875 -0.53125 -1.578125 -1.515625l0 1.9375l-1.265625 0l0 -13.84375l1.328125 0l0 5.890625q0.609375 -0.953125 1.5625 -1.4375q0.96875 -0.5 2.171875 -0.5zm-0.09375 8.8125q1.015625 0 1.859375 -0.46875q0.84375 -0.484375 1.3125 -1.359375q0.484375 -0.875 0.484375 -2.0q0 -1.125 -0.484375 -2.0q-0.46875 -0.875 -1.3125 -1.34375q-0.84375 -0.484375 -1.859375 -0.484375q-1.046875 0 -1.875 0.484375q-0.828125 0.46875 -1.3125 1.34375q-0.46875 0.875 -0.46875 2.0q0 1.125 0.46875 2.0q0.484375 0.875 1.3125 1.359375q0.828125 0.46875 1.875 0.46875zm7.680191 -8.734375l1.328125 0l0 9.8125l-1.328125 0l0 -9.8125zm0.671875 -2.140625q-0.40625 0 -0.6875 -0.28125q-0.28125 -0.28125 -0.28125 -0.671875q0 -0.375 0.28125 -0.65625q0.28125 -0.28125 0.6875 -0.28125q0.40625 0 0.6875 0.28125q0.28125 0.265625 0.28125 0.640625q0 0.40625 -0.28125 0.6875q-0.28125 0.28125 -0.6875 0.28125zm4.3466644 -1.890625l1.328125 0l0 13.84375l-1.328125 0l0 -13.84375zm13.565399 9.34375l-8.20311 0q0.109375 1.53125 1.171875 2.484375q1.0624847 0.9375 2.6874847 0.9375q0.90625 0 1.671875 -0.328125q0.765625 -0.328125 1.328125 -0.96875l0.75 0.859375q-0.65625 0.78125 -1.640625 1.203125q-0.96875 0.40625 -2.15625 0.40625q-1.5 0 -2.6718597 -0.640625q-1.15625 -0.640625 -1.8125 -1.78125q-0.65625 -1.140625 -0.65625 -2.578125q0 -1.4375 0.625 -2.578125q0.625 -1.140625 1.71875 -1.765625q1.0937347 -0.640625 2.4531097 -0.640625q1.359375 0 2.4375 0.640625q1.078125 0.625 1.6875 1.765625q0.625 1.125 0.625 2.578125l-0.015625 0.40625zm-4.734375 -4.25q-1.421875 0 -2.3906097 0.90625q-0.953125 0.90625 -1.078125 2.359375l6.9531097 0q-0.125 -1.453125 -1.09375 -2.359375q-0.953125 -0.90625 -2.390625 -0.90625zm15.781311 -1.140625q1.921875 0 2.9375 0.96875q1.03125 0.953125 1.03125 2.84375l0 6.078125l-1.265625 0l0 -1.53125q-0.453125 0.765625 -1.328125 1.203125q-0.859375 0.421875 -2.046875 0.421875q-1.640625 0 -2.609375 -0.78125q-0.96875 -0.78125 -0.96875 -2.078125q0 -1.25 0.890625 -2.015625q0.90625 -0.765625 2.890625 -0.765625l3.109375 0l0 -0.59375q0 -1.265625 -0.703125 -1.921875q-0.703125 -0.671875 -2.0625 -0.671875q-0.9375 0 -1.796875 0.3125q-0.859375 0.3125 -1.46875 0.84375l-0.609375 -0.984375q0.75 -0.640625 1.796875 -0.984375q1.046875 -0.34375 2.203125 -0.34375zm-0.46875 8.9375q1.125 0 1.921875 -0.515625q0.796875 -0.515625 1.1875 -1.484375l0 -1.59375l-3.078125 0q-2.515625 0 -2.515625 1.75q0 0.859375 0.65625 1.359375q0.65625 0.484375 1.828125 0.484375zm13.100952 -8.9375q1.375 0 2.484375 0.625q1.125 0.625 1.765625 1.765625q0.640625 1.140625 0.640625 2.59375q0 1.46875 -0.640625 2.609375q-0.640625 1.140625 -1.75 1.765625q-1.109375 0.625 -2.5 0.625q-1.203125 0 -2.171875 -0.484375q-0.953125 -0.5 -1.5625 -1.453125l0 5.46875l-1.328125 0l0 -13.4375l1.265625 0l0 1.9375q0.609375 -0.96875 1.578125 -1.484375q0.984375 -0.53125 2.21875 -0.53125zm-0.09375 8.8125q1.015625 0 1.859375 -0.46875q0.84375 -0.484375 1.3125 -1.359375q0.484375 -0.875 0.484375 -2.0q0 -1.125 -0.484375 -1.984375q-0.46875 -0.875 -1.3125 -1.359375q-0.84375 -0.484375 -1.859375 -0.484375q-1.046875 0 -1.875 0.484375q-0.828125 0.484375 -1.3125 1.359375q-0.46875 0.859375 -0.46875 1.984375q0 1.125 0.46875 2.0q0.484375 0.875 1.3125 1.359375q0.828125 0.46875 1.875 0.46875zm12.742676 -8.8125q1.375 0 2.484375 0.625q1.125 0.625 1.765625 1.765625q0.640625 1.140625 0.640625 2.59375q0 1.46875 -0.640625 2.609375q-0.640625 1.140625 -1.75 1.765625q-1.109375 0.625 -2.5 0.625q-1.203125 0 -2.171875 -0.484375q-0.953125 -0.5 -1.5625 -1.453125l0 5.46875l-1.328125 0l0 -13.4375l1.265625 0l0 1.9375q0.609375 -0.96875 1.578125 -1.484375q0.984375 -0.53125 2.21875 -0.53125zm-0.09375 8.8125q1.015625 0 1.859375 -0.46875q0.84375 -0.484375 1.3125 -1.359375q0.484375 -0.875 0.484375 -2.0q0 -1.125 -0.484375 -1.984375q-0.46875 -0.875 -1.3125 -1.359375q-0.84375 -0.484375 -1.859375 -0.484375q-1.046875 0 -1.875 0.484375q-0.828125 0.484375 -1.3125 1.359375q-0.46875 0.859375 -0.46875 1.984375q0 1.125 0.46875 2.0q0.484375 0.875 1.3125 1.359375q0.828125 0.46875 1.875 0.46875z" fill-rule="nonzero"/><path fill="#000000" fill-opacity="0.0" d="m342.97162 53.08049l138.80316 0l0 44.18898l-138.80316 0z" fill-rule="evenodd"/><path fill="#000000" d="m371.38397 76.21924q-2.0 0 -3.609375 -0.859375q-1.609375 -0.875 -2.53125 -2.40625q-0.921875 -1.546875 -0.921875 -3.484375q0 -1.9375 0.921875 -3.46875q0.921875 -1.546875 2.53125 -2.40625q1.609375 -0.875 3.625 -0.875q1.703125 0 3.0625 0.59375q1.375 0.59375 2.3125 1.71875l-1.9375 1.796875q-1.328125 -1.53125 -3.28125 -1.53125q-1.21875 0 -2.171875 0.53125q-0.953125 0.53125 -1.484375 1.484375q-0.53125 0.9375 -0.53125 2.15625q0 1.21875 0.53125 2.171875q0.53125 0.9375 1.484375 1.484375q0.953125 0.53125 2.171875 0.53125q1.953125 0 3.28125 -1.5625l1.9375 1.796875q-0.9375 1.140625 -2.3125 1.734375q-1.375 0.59375 -3.078125 0.59375zm13.315643 -10.40625q1.875 0 3.015625 1.125q1.15625 1.109375 1.15625 3.3125l0 5.75l-2.921875 0l0 -5.296875q0 -1.203125 -0.515625 -1.78125q-0.515625 -0.59375 -1.515625 -0.59375q-1.09375 0 -1.75 0.6875q-0.65625 0.671875 -0.65625 2.015625l0 4.96875l-2.90625 0l0 -13.84375l2.90625 0l0 4.84375q0.578125 -0.578125 1.390625 -0.875q0.828125 -0.3125 1.796875 -0.3125zm10.8446045 0q2.328125 0 3.578125 1.109375q1.25 1.109375 1.25 3.34375l0 5.734375l-2.71875 0l0 -1.25q-0.828125 1.40625 -3.0625 1.40625q-1.15625 0 -2.015625 -0.390625q-0.84375 -0.40625 -1.296875 -1.09375q-0.4375 -0.6875 -0.4375 -1.5625q0 -1.40625 1.046875 -2.203125q1.0625 -0.796875 3.265625 -0.796875l2.3125 0q0 -0.953125 -0.578125 -1.46875q-0.578125 -0.515625 -1.734375 -0.515625q-0.796875 0 -1.578125 0.25q-0.765625 0.25 -1.3125 0.6875l-1.046875 -2.03125q0.828125 -0.578125 1.96875 -0.890625q1.140625 -0.328125 2.359375 -0.328125zm-0.21875 8.375q0.734375 0 1.3125 -0.34375q0.59375 -0.34375 0.828125 -1.015625l0 -1.03125l-2.0 0q-1.78125 0 -1.78125 1.1875q0 0.546875 0.4375 0.875q0.4375 0.328125 1.203125 0.328125zm13.77652 -8.375q1.875 0 3.015625 1.125q1.15625 1.109375 1.15625 3.3125l0 5.75l-2.921875 0l0 -5.296875q0 -1.203125 -0.515625 -1.78125q-0.515625 -0.59375 -1.515625 -0.59375q-1.09375 0 -1.75 0.6875q-0.65625 0.671875 -0.65625 2.015625l0 4.96875l-2.90625 0l0 -10.03125l2.78125 0l0 1.171875q0.578125 -0.640625 1.4375 -0.984375q0.859375 -0.34375 1.875 -0.34375zm12.8914795 0q1.875 0 3.015625 1.125q1.15625 1.109375 1.15625 3.3125l0 5.75l-2.921875 0l0 -5.296875q0 -1.203125 -0.515625 -1.78125q-0.515625 -0.59375 -1.515625 -0.59375q-1.09375 0 -1.75 0.6875q-0.65625 0.671875 -0.65625 2.015625l0 4.96875l-2.90625 0l0 -10.03125l2.78125 0l0 1.171875q0.578125 -0.640625 1.4375 -0.984375q0.859375 -0.34375 1.875 -0.34375zm16.625824 5.203125q0 0.0625 -0.046875 0.78125l-7.59375 0q0.203125 0.9375 0.96875 1.484375q0.765625 0.53125 1.90625 0.53125q0.78125 0 1.375 -0.234375q0.609375 -0.234375 1.140625 -0.734375l1.546875 1.6875q-1.421875 1.625 -4.140625 1.625q-1.703125 0 -3.015625 -0.65625q-1.296875 -0.671875 -2.015625 -1.84375q-0.703125 -1.1875 -0.703125 -2.671875q0 -1.484375 0.703125 -2.65625q0.703125 -1.1875 1.921875 -1.84375q1.21875 -0.671875 2.734375 -0.671875q1.46875 0 2.65625 0.640625q1.203125 0.625 1.875 1.8125q0.6875 1.1875 0.6875 2.75zm-5.203125 -3.0q-0.984375 0 -1.65625 0.5625q-0.671875 0.5625 -0.828125 1.53125l4.953125 0q-0.15625 -0.953125 -0.828125 -1.515625q-0.671875 -0.578125 -1.640625 -0.578125zm7.1470947 -5.859375l2.90625 0l0 13.84375l-2.90625 0l0 -13.84375zm16.379639 6.09375q1.71875 0.28125 2.625 1.28125q0.921875 1.0 0.921875 2.46875q0 1.140625 -0.609375 2.109375q-0.59375 0.953125 -1.8125 1.53125q-1.21875 0.578125 -2.984375 0.578125q-1.390625 0 -2.71875 -0.359375q-1.328125 -0.359375 -2.265625 -1.03125l1.171875 -2.3125q0.75 0.5625 1.71875 0.875q0.984375 0.296875 2.015625 0.296875q1.140625 0 1.78125 -0.4375q0.65625 -0.4375 0.65625 -1.25q0 -1.59375 -2.4375 -1.59375l-1.390625 0l0 -2.0l2.6875 -3.046875l-5.546875 0l0 -2.421875l9.140625 0l0 1.96875l-2.953125 3.34375z" fill-rule="nonzero"/><path fill="#000000" d="m367.05206 84.15674l0 13.84375l-1.265625 0l0 -1.9375q-0.59375 0.984375 -1.578125 1.515625q-0.96875 0.515625 -2.203125 0.515625q-1.390625 0 -2.515625 -0.625q-1.109375 -0.640625 -1.75 -1.78125q-0.625 -1.140625 -0.625 -2.59375q0 -1.453125 0.625 -2.59375q0.640625 -1.140625 1.75 -1.765625q1.125 -0.625 2.515625 -0.625q1.1875 0 2.140625 0.5q0.96875 0.484375 1.59375 1.4375l0 -5.890625l1.3125 0zm-4.9375 12.765625q1.03125 0 1.859375 -0.46875q0.828125 -0.484375 1.296875 -1.359375q0.484375 -0.875 0.484375 -2.0q0 -1.125 -0.484375 -2.0q-0.46875 -0.875 -1.296875 -1.34375q-0.828125 -0.484375 -1.859375 -0.484375q-1.046875 0 -1.875 0.484375q-0.828125 0.46875 -1.3125 1.34375q-0.46875 0.875 -0.46875 2.0q0 1.125 0.46875 2.0q0.484375 0.875 1.3125 1.359375q0.828125 0.46875 1.875 0.46875zm8.633301 -8.734375l1.328125 0l0 9.8125l-1.328125 0l0 -9.8125zm0.671875 -2.140625q-0.40625 0 -0.6875 -0.28125q-0.28125 -0.28125 -0.28125 -0.671875q0 -0.375 0.28125 -0.65625q0.28125 -0.28125 0.6875 -0.28125q0.40625 0 0.6875 0.28125q0.28125 0.265625 0.28125 0.640625q0 0.40625 -0.28125 0.6875q-0.28125 0.28125 -0.6875 0.28125zm13.44043 2.140625l0 8.625q0 2.5 -1.234375 3.703125q-1.21875 1.203125 -3.671875 1.203125q-1.359375 0 -2.59375 -0.40625q-1.21875 -0.40625 -1.984375 -1.109375l0.671875 -1.015625q0.703125 0.640625 1.71875 0.984375q1.03125 0.359375 2.140625 0.359375q1.875 0 2.75 -0.875q0.875 -0.859375 0.875 -2.6875l0 -1.25q-0.609375 0.9375 -1.609375 1.421875q-1.0 0.484375 -2.21875 0.484375q-1.375 0 -2.515625 -0.59375q-1.125 -0.609375 -1.765625 -1.703125q-0.640625 -1.09375 -0.640625 -2.484375q0 -1.375 0.640625 -2.453125q0.640625 -1.078125 1.765625 -1.671875q1.125 -0.609375 2.515625 -0.609375q1.25 0 2.25 0.515625q1.015625 0.5 1.625 1.453125l0 -1.890625l1.28125 0zm-5.03125 8.265625q1.078125 0 1.921875 -0.453125q0.859375 -0.46875 1.328125 -1.28125q0.484375 -0.828125 0.484375 -1.875q0 -1.03125 -0.484375 -1.84375q-0.46875 -0.8125 -1.3125 -1.265625q-0.84375 -0.46875 -1.9375 -0.46875q-1.0625 0 -1.90625 0.453125q-0.84375 0.453125 -1.328125 1.28125q-0.46875 0.8125 -0.46875 1.84375q0 1.046875 0.46875 1.875q0.484375 0.8125 1.328125 1.28125q0.84375 0.453125 1.90625 0.453125zm8.735687 -8.265625l1.328125 0l0 9.8125l-1.328125 0l0 -9.8125zm0.671875 -2.140625q-0.40625 0 -0.6875 -0.28125q-0.28125 -0.28125 -0.28125 -0.671875q0 -0.375 0.28125 -0.65625q0.28125 -0.28125 0.6875 -0.28125q0.40625 0 0.6875 0.28125q0.28125 0.265625 0.28125 0.640625q0 0.40625 -0.28125 0.6875q-0.28125 0.28125 -0.6875 0.28125zm9.518524 11.359375q-0.375 0.328125 -0.921875 0.515625q-0.546875 0.171875 -1.15625 0.171875q-1.375 0 -2.125 -0.75q-0.734375 -0.75 -0.734375 -2.109375l0 -5.921875l-1.765625 0l0 -1.125l1.765625 0l0 -2.140625l1.3125 0l0 2.140625l2.984375 0l0 1.125l-2.984375 0l0 5.859375q0 0.875 0.4375 1.328125q0.4375 0.453125 1.265625 0.453125q0.40625 0 0.78125 -0.125q0.390625 -0.140625 0.671875 -0.375l0.46875 0.953125zm5.8400574 -9.296875q1.921875 0 2.9375 0.96875q1.03125 0.953125 1.03125 2.84375l0 6.078125l-1.265625 0l0 -1.53125q-0.453125 0.765625 -1.328125 1.203125q-0.859375 0.421875 -2.046875 0.421875q-1.640625 0 -2.609375 -0.78125q-0.96875 -0.78125 -0.96875 -2.078125q0 -1.25 0.890625 -2.015625q0.90625 -0.765625 2.890625 -0.765625l3.109375 0l0 -0.59375q0 -1.265625 -0.703125 -1.921875q-0.703125 -0.671875 -2.0625 -0.671875q-0.9375 0 -1.796875 0.3125q-0.859375 0.3125 -1.46875 0.84375l-0.609375 -0.984375q0.75 -0.640625 1.796875 -0.984375q1.046875 -0.34375 2.203125 -0.34375zm-0.46875 8.9375q1.125 0 1.921875 -0.515625q0.796875 -0.515625 1.1875 -1.484375l0 -1.59375l-3.078125 0q-2.515625 0 -2.515625 1.75q0 0.859375 0.65625 1.359375q0.65625 0.484375 1.828125 0.484375zm8.038452 -12.890625l1.328125 0l0 13.84375l-1.328125 0l0 -13.84375zm13.547089 8.921875l-2.3125 2.125l0 2.796875l-1.328125 0l0 -13.84375l1.328125 0l0 9.390625l5.859375 -5.359375l1.640625 0l-4.203125 4.015625l4.59375 5.796875l-1.625 0l-3.953125 -4.921875zm7.5717773 -4.890625l1.328125 0l0 9.8125l-1.328125 0l0 -9.8125zm0.671875 -2.140625q-0.40625 0 -0.6875 -0.28125q-0.28125 -0.28125 -0.28125 -0.671875q0 -0.375 0.28125 -0.65625q0.28125 -0.28125 0.6875 -0.28125q0.40625 0 0.6875 0.28125q0.28125 0.265625 0.28125 0.640625q0 0.40625 -0.28125 0.6875q-0.28125 0.28125 -0.6875 0.28125zm8.362305 12.046875q-1.421875 0 -2.5625 -0.640625q-1.125 -0.640625 -1.78125 -1.78125q-0.65625 -1.140625 -0.65625 -2.578125q0 -1.4375 0.65625 -2.578125q0.65625 -1.140625 1.78125 -1.765625q1.140625 -0.640625 2.5625 -0.640625q1.421875 0 2.546875 0.640625q1.140625 0.625 1.78125 1.765625q0.65625 1.140625 0.65625 2.578125q0 1.4375 -0.65625 2.578125q-0.640625 1.140625 -1.78125 1.78125q-1.125 0.640625 -2.546875 0.640625zm0 -1.171875q1.046875 0 1.875 -0.46875q0.828125 -0.484375 1.296875 -1.359375q0.46875 -0.875 0.46875 -2.0q0 -1.125 -0.46875 -2.0q-0.46875 -0.875 -1.296875 -1.34375q-0.828125 -0.484375 -1.875 -0.484375q-1.046875 0 -1.875 0.484375q-0.828125 0.46875 -1.3125 1.34375q-0.46875 0.875 -0.46875 2.0q0 1.125 0.46875 2.0q0.484375 0.875 1.3125 1.359375q0.828125 0.46875 1.875 0.46875zm10.322449 1.171875q-1.203125 0 -2.296875 -0.34375q-1.09375 -0.34375 -1.703125 -0.875l0.59375 -1.046875q0.625 0.5 1.546875 0.8125q0.9375 0.296875 1.953125 0.296875q1.328125 0 1.96875 -0.421875q0.65625 -0.421875 0.65625 -1.1875q0 -0.53125 -0.359375 -0.84375q-0.34375 -0.3125 -0.890625 -0.46875q-0.546875 -0.15625 -1.4375 -0.3125q-1.1875 -0.21875 -1.921875 -0.453125q-0.734375 -0.234375 -1.25 -0.78125q-0.5 -0.5625 -0.5 -1.5625q0 -1.234375 1.015625 -2.015625q1.03125 -0.78125 2.859375 -0.78125q0.953125 0 1.90625 0.25q0.953125 0.25 1.5625 0.671875l-0.578125 1.0625q-1.203125 -0.84375 -2.890625 -0.84375q-1.265625 0 -1.90625 0.453125q-0.640625 0.4375 -0.640625 1.171875q0 0.5625 0.359375 0.90625q0.359375 0.328125 0.890625 0.484375q0.546875 0.15625 1.5 0.328125q1.171875 0.21875 1.875 0.453125q0.71875 0.21875 1.21875 0.765625q0.515625 0.53125 0.515625 1.484375q0 1.28125 -1.078125 2.046875q-1.078125 0.75 -2.96875 0.75zm10.122925 -5.015625l-2.3125 2.125l0 2.796875l-1.328125 0l0 -13.84375l1.328125 0l0 9.390625l5.859375 -5.359375l1.640625 0l-4.203125 4.015625l4.59375 5.796875l-1.625 0l-3.953125 -4.921875z" fill-rule="nonzero"/><path fill="#000000" fill-opacity="0.0" d="m411.6378 124.997375l-58.11023 54.23622" fill-rule="evenodd"/><path stroke="#000000" stroke-width="1.0" stroke-linejoin="round" stroke-linecap="butt" d="m411.6378 124.997375l-53.723907 50.142303" fill-rule="evenodd"/><path fill="#000000" stroke="#000000" stroke-width="1.0" stroke-linecap="butt" d="m356.7869 173.93217l-2.1906128 4.30394l4.4446106 -1.888916z" fill-rule="evenodd"/><path fill="#cfe2f3" d="m242.23622 276.6168l12.031494 12.031494l-12.031494 0l0 29.984253l12.031494 0l-12.031494 12.031494l-12.031494 -12.031494l12.031494 0l0 -29.984253l-12.031494 0z" fill-rule="evenodd"/><path stroke="#000000" stroke-width="1.0" stroke-linejoin="round" stroke-linecap="butt" d="m242.23622 276.6168l12.031494 12.031494l-12.031494 0l0 29.984253l12.031494 0l-12.031494 12.031494l-12.031494 -12.031494l12.031494 0l0 -29.984253l-12.031494 0z" fill-rule="evenodd"/><path fill="#000000" fill-opacity="0.0" d="m239.4895 124.997375l4.2834625 47.74803" fill-rule="evenodd"/><path stroke="#000000" stroke-width="1.0" stroke-linejoin="round" stroke-linecap="butt" d="m239.4895 124.997375l3.7473602 41.772034" fill-rule="evenodd"/><path fill="#000000" stroke="#000000" stroke-width="1.0" stroke-linecap="butt" d="m241.59174 166.91699l2.0506134 4.37236l1.2396393 -4.6675262z" fill-rule="evenodd"/><path fill="#000000" fill-opacity="0.0" d="m42.94488 380.24146l403.87402 0l0 63.08664l-403.87402 0z" fill-rule="evenodd"/></g></svg>