<svg xmlns:xlink="http://www.w3.org/1999/xlink" xmlns="http://www.w3.org/2000/svg" version="1.1" fill="none" stroke="none" stroke-linecap="square" stroke-miterlimit="10" width="480.32374044449625" height="181.36690638597315"><rect id="backgroundrect" width="100%" height="100%" x="0" y="0" fill="none" stroke="none"/><clipPath id="p.0"><path d="m0 0l500.0 0l0 500.0l-500.0 0l0 -500.0z" clip-rule="nonzero" id="svg_1"/></clipPath><g class="currentLayer" style=""><title>Layer 1</title><g clip-path="url(#p.0)" id="svg_2" class=""><path fill="#000000" fill-opacity="0.0" d="m-16.54676389694214,-174.10072841609963 l507.1942210197449,0 l0,509.35250520706177 l-507.1942210197449,0 z" fill-rule="evenodd" id="svg_3"/><path fill="#f3f3f3" d="m20.83118810598731,90.77591932720892 l0,0 c0,-42.54610575850975 36.30396519675482,-77.03655104573727 81.08717294886446,-77.03655104573727 l0,0 c21.505650705021502,0 42.130491695605045,8.11632883695445 57.337294326617005,22.563485736089348 c15.206802631011962,14.447157306616901 23.749886737354995,34.04171489848519 23.749886737354995,54.47306530964792 l0,0 c0,42.54613631966007 -36.30396519675482,77.03658160688757 -81.0871790351951,77.03658160688757 l0,0 c-44.78320775210965,0 -81.08717294886446,-34.49044528722751 -81.08717294886446,-77.03658160688757 z" fill-rule="evenodd" id="svg_4"/><path stroke="#000000" stroke-width="1.0" stroke-linejoin="round" stroke-linecap="butt" d="m20.83118810598731,90.77591932720892 l0,0 c0,-42.54610575850975 36.30396519675482,-77.03655104573727 81.08717294886446,-77.03655104573727 l0,0 c21.505650705021502,0 42.130491695605045,8.11632883695445 57.337294326617005,22.563485736089348 c15.206802631011962,14.447157306616901 23.749886737354995,34.04171489848519 23.749886737354995,54.47306530964792 l0,0 c0,42.54613631966007 -36.30396519675482,77.03658160688757 -81.0871790351951,77.03658160688757 l0,0 c-44.78320775210965,0 -81.08717294886446,-34.49044528722751 -81.08717294886446,-77.03658160688757 z" fill-rule="evenodd" id="svg_5"/><path fill="#f3f3f3" d="m155.97115081477403,90.77591932720892 l0,0 c0,-42.54610575850975 36.30396519675482,-77.03655104573727 81.0871790351951,-77.03655104573727 l0,0 c21.505666935236572,0 42.130491695605045,8.11632883695445 57.33727911079037,22.563485736089348 c15.206817846838593,14.447157306616901 23.749901953181624,34.04171489848519 23.749901953181624,54.47306530964792 l0,0 c0,42.54613631966007 -36.303980412581446,77.03658160688757 -81.0871790351951,77.03658160688757 l0,0 c-44.78321586721719,0 -81.0871790351951,-34.49044528722751 -81.0871790351951,-77.03658160688757 z" fill-rule="evenodd" id="svg_6"/><path stroke="#000000" stroke-width="1.0" stroke-linejoin="round" stroke-linecap="butt" d="m155.97115081477403,90.77591932720892 l0,0 c0,-42.54610575850975 36.30396519675482,-77.03655104573727 81.0871790351951,-77.03655104573727 l0,0 c21.505666935236572,0 42.130491695605045,8.11632883695445 57.33727911079037,22.563485736089348 c15.206817846838593,14.447157306616901 23.749901953181624,34.04171489848519 23.749901953181624,54.47306530964792 l0,0 c0,42.54613631966007 -36.303980412581446,77.03658160688757 -81.0871790351951,77.03658160688757 l0,0 c-44.78321586721719,0 -81.0871790351951,-34.49044528722751 -81.0871790351951,-77.03658160688757 z" fill-rule="evenodd" id="svg_7"/><path fill="#f3f3f3" d="m296.5078832006681,90.77591932720892 l0,0 c0,-42.54610575850975 36.303980412581446,-77.03655104573727 81.0871790351951,-77.03655104573727 l0,0 c21.505666935236572,0 42.130491695605045,8.11632883695445 57.337309542443634,22.563485736089348 c15.206787415185334,14.447157306616901 23.74987050713992,34.04171489848519 23.74987050713992,54.47306530964792 l0,0 c0,42.54613631966007 -36.303980412581446,77.03658160688757 -81.0871790351951,77.03658160688757 l0,0 c-44.78320065139055,0 -81.0871790351951,-34.49044528722751 -81.0871790351951,-77.03658160688757 z" fill-rule="evenodd" id="svg_8"/><path stroke="#000000" stroke-width="1.0" stroke-linejoin="round" stroke-linecap="butt" d="m296.5078832006681,90.77591932720892 l0,0 c0,-42.54610575850975 36.303980412581446,-77.03655104573727 81.0871790351951,-77.03655104573727 l0,0 c21.505666935236572,0 42.130491695605045,8.11632883695445 57.337309542443634,22.563485736089348 c15.206787415185334,14.447157306616901 23.74987050713992,34.04171489848519 23.74987050713992,54.47306530964792 l0,0 c0,42.54613631966007 -36.303980412581446,77.03658160688757 -81.0871790351951,77.03658160688757 l0,0 c-44.78320065139055,0 -81.0871790351951,-34.49044528722751 -81.0871790351951,-77.03658160688757 z" fill-rule="evenodd" id="svg_9"/><path fill="#000000" fill-opacity="0.0" d="m20.831688199489236,58.06686006147734 l140.8003110786736,0 l0,45.01555061166465 l-140.8003110786736,0 z" fill-rule="evenodd" id="svg_10"/><path fill="#000000" d="m60.19390267849565,81.52699466715805 q-1.9653776064515118,0 -3.550359547138214,-0.8754496183246381 q-1.5691321212798357,-0.8754496183246381 -2.4725718274712563,-2.4194243997335434 q-0.9034397061914212,-1.543974781408906 -0.9034397061914212,-3.4699639417231083 q0,-1.9100718945264816 0.9034397061914212,-3.4540466759353876 q0.9034397061914212,-1.5598920471966267 2.4884216468781233,-2.435341665521264 q1.5849819406867027,-0.8754496183246381 3.550359547138214,-0.8754496183246381 q1.4740332048386335,0 2.7261689379811287,0.4934352394193413 q1.2521357331424952,0.4934352394193413 2.1238758005201817,1.4484711866825821 l-0.8875898867845541,0.8913668841123582 q-1.5532823018729678,-1.5758093129843473 -3.9149053934961557,-1.5758093129843473 q-1.5691321212798357,0 -2.868817312642932,0.7321942262351518 q-1.2838353719562292,0.7162769604474307 -2.0129270646721125,1.9737409576773643 q-0.729091692715884,1.241546731442213 -0.729091692715884,2.8014387786388397 q0,1.5598920471966267 0.729091692715884,2.8173560444265604 q0.729091692715884,1.2574639972299337 2.0129270646721125,1.9737409576773643 q1.2996851913630962,0.7162769604474307 2.868817312642932,0.7162769604474307 q2.377472911030054,0 3.9149053934961557,-1.591726578772068 l0.8875898867845541,0.8913668841123582 q-0.8717400673776872,0.9550359472632408 -2.1397256199270487,1.4643884524703026 q-1.2521357331424952,0.4934352394193413 -2.7261689379811287,0.4934352394193413 zm11.641475782411456,-0.015917265787720698 q-1.4423335660248995,0 -2.5993703827261925,-0.652607897296549 q-1.141186997294426,-0.652607897296549 -1.806879412382841,-1.8145682998001575 q-0.665692415088416,-1.1619604025036097 -0.665692415088416,-2.6263488549739122 q0,-1.4643884524703026 0.665692415088416,-2.6263488549739122 q0.665692415088416,-1.1619604025036097 1.806879412382841,-1.7986510340124378 q1.157036816701293,-0.652607897296549 2.5993703827261925,-0.652607897296549 q1.4423335660248995,0 2.5835205633193254,0.652607897296549 q1.157036816701293,0.6366906315088282 1.806879412382841,1.7986510340124378 q0.665692415088416,1.1619604025036097 0.665692415088416,2.6263488549739122 q0,1.4643884524703026 -0.665692415088416,2.6263488549739122 q-0.649842595681549,1.1619604025036097 -1.806879412382841,1.8145682998001575 q-1.141186997294426,0.652607897296549 -2.5835205633193254,0.652607897296549 zm0,-1.193794934079051 q1.0619379002600908,0 1.9019783288240433,-0.4775179736316205 q0.840040428563953,-0.4934352394193413 1.3155350107699633,-1.3848021235316992 q0.4754945822060108,-0.8913668841123582 0.4754945822060108,-2.037410020828247 q0,-1.146043136715889 -0.4754945822060108,-2.037410020828247 q-0.4754945822060108,-0.8913668841123582 -1.3155350107699633,-1.3688848577439785 q-0.840040428563953,-0.4934352394193413 -1.9019783288240433,-0.4934352394193413 q-1.0619379002600908,0 -1.9019783288240433,0.4934352394193413 q-0.840040428563953,0.4775179736316205 -1.3313848301768303,1.3688848577439785 q-0.4754945822060108,0.8913668841123582 -0.4754945822060108,2.037410020828247 q0,1.146043136715889 0.4754945822060108,2.037410020828247 q0.49134440161287823,0.8913668841123582 1.3313848301768303,1.3848021235316992 q0.840040428563953,0.4775179736316205 1.9019783288240433,0.4775179736316205 zm12.86431090540564,-8.977337904274464 q1.8702786900103092,0 2.979766048491001,1.098291339352727 q1.109487358480692,1.0823740735650063 1.109487358480692,3.183453157544136 l0,5.793884746730328 l-1.3472346495836973,0 l0,-5.666546620428562 q0,-1.5598920471966267 -0.7766411509364852,-2.3716726023703814 q-0.7766411509364852,-0.811780555173755 -2.203124897554517,-0.811780555173755 q-1.6166815795004368,0 -2.5518209245055914,0.9550359472632408 q-0.9351393450051547,0.9550359472632408 -0.9351393450051547,2.642266120761633 l0,5.2526977099478245 l-1.3472346495836973,0 l0,-9.996042914688587 l1.2838353719562292,0 l0,1.8464028313755994 q0.5547436792403465,-0.9232014156877998 1.5215826630592342,-1.4166366551071405 q0.982688803225756,-0.5093525052070613 2.266524175181985,-0.5093525052070613 zm12.986358065198065,9.470773143693805 q-0.3803956657648091,0.33426258154213456 -0.9351393450051547,0.5252697709947828 q-0.5547436792403465,0.17508992366492748 -1.17288663610816,0.17508992366492748 q-1.3947841078042984,0 -2.1555754393339157,-0.7640287578105934 q-0.7449415121227508,-0.7640287578105934 -0.7449415121227508,-2.148830881342292 l0,-6.032643733546138 l-1.7910295929759747,0 l0,-1.146043136715889 l1.7910295929759747,0 l0,-2.180665412917733 l1.3313848301768303,0 l0,2.180665412917733 l3.027315506711602,0 l0,1.146043136715889 l-3.027315506711602,0 l0,5.968974670395255 q0,0.8913668841123582 0.44379494339227715,1.3529675919562578 q0.44379494339227715,0.46160070784389984 1.2838353719562292,0.46160070784389984 q0.4120953045785427,0 0.7924909703433516,-0.1273381263017654 q0.39624548517167596,-0.14325539208948623 0.6815422344952832,-0.3820143789052967 l0.4754945822060108,0.9709532130509616 zm11.106977267697333,-3.97931644693017 l-8.32115518860519,0 q0.11094873584806923,1.5598920471966267 1.188736455515027,2.530845260247588 q1.0777877196669579,0.9550359472632408 2.7261689379811287,0.9550359472632408 q0.9192895255982876,0 1.6959306765347733,-0.33426258154213456 q0.7766411509364852,-0.33426258154213456 1.3472346495836973,-0.9868704788386826 l0.760791331529618,0.8754496183246381 q-0.665692415088416,0.7958632893860338 -1.6642310377210388,1.2256294656544924 q-0.982688803225756,0.4138489104807378 -2.1872750781476498,0.4138489104807378 q-1.5215826630592342,0 -2.7103191185742617,-0.652607897296549 q-1.17288663610816,-0.652607897296549 -1.8385790511965756,-1.8145682998001575 q-0.665692415088416,-1.1619604025036097 -0.665692415088416,-2.6263488549739122 q0,-1.4643884524703026 0.6339927762746818,-2.6263488549739122 q0.6339927762746818,-1.1619604025036097 1.743480134755373,-1.7986510340124378 q1.109487358480692,-0.652607897296549 2.4884216468781233,-0.652607897296549 q1.3789342883974314,0 2.4725718274712563,0.652607897296549 q1.0936375390738249,0.6366906315088282 1.711780495941639,1.7986510340124378 q0.6339927762746818,1.146043136715889 0.6339927762746818,2.6263488549739122 l-0.01584981940686703,0.4138489104807378 zm-4.802495280280709,-4.329496294260025 q-1.4423335660248995,0 -2.425022369250655,0.9232014156877998 q-0.9668389838188892,0.9232014156877998 -1.0936375390738249,2.4035071339458227 l7.053169636055827,0 q-0.12679855525493622,-1.4803057182580233 -1.109487358480692,-2.4035071339458227 q-0.9668389838188892,-0.9232014156877998 -2.425022369250655,-0.9232014156877998 zm12.635099693042397,-1.1619604025036097 q1.8702786900103092,0 2.979766048491001,1.098291339352727 q1.109487358480692,1.0823740735650063 1.109487358480692,3.183453157544136 l0,5.793884746730328 l-1.3472346495836973,0 l0,-5.666546620428562 q0,-1.5598920471966267 -0.7766411509364852,-2.3716726023703814 q-0.7766411509364852,-0.811780555173755 -2.203124897554517,-0.811780555173755 q-1.6166815795004368,0 -2.5518209245055914,0.9550359472632408 q-0.9351470543573144,0.9550359472632408 -0.9351470543573144,2.642266120761633 l0,5.2526977099478245 l-1.3472346495836973,0 l0,-9.996042914688587 l1.2838353719562292,0 l0,1.8464028313755994 q0.5547513885925056,-0.9232014156877998 1.5215903724113944,-1.4166366551071405 q0.982688803225756,-0.5093525052070613 2.266524175181985,-0.5093525052070613 zm12.986358065198065,9.470773143693805 q-0.3803956657648091,0.33426258154213456 -0.9351393450051547,0.5252697709947828 q-0.5547436792403465,0.17508992366492748 -1.17288663610816,0.17508992366492748 q-1.3947841078042984,0 -2.1555754393339157,-0.7640287578105934 q-0.7449415121227508,-0.7640287578105934 -0.7449415121227508,-2.148830881342292 l0,-6.032643733546138 l-1.7910295929759747,0 l0,-1.146043136715889 l1.7910295929759747,0 l0,-2.180665412917733 l1.3313848301768303,0 l0,2.180665412917733 l3.027315506711602,0 l0,1.146043136715889 l-3.027315506711602,0 l0,5.968974670395255 q0,0.8913668841123582 0.44379494339227715,1.3529675919562578 q0.44379494339227715,0.46160070784389984 1.2838353719562292,0.46160070784389984 q0.4120953045785427,0 0.7924909703433516,-0.1273381263017654 q0.39624548517167596,-0.14325539208948623 0.6815422344952832,-0.3820143789052967 l0.4754945822060108,0.9709532130509616 z" fill-rule="nonzero" id="svg_11"/><path fill="#000000" d="m56.75803715481044,103.92261309810632 q-1.220436094328761,0 -2.329923452809453,-0.3501798473298554 q-1.109487358480692,-0.3501798473298554 -1.7276303153485064,-0.8913668841123582 l0.6022931374609476,-1.0664568077772856 q0.6339927762746818,0.5093525052070613 1.5691321212798357,0.8276978209614757 q0.9509891644120215,0.3024280499666933 1.9812274258583784,0.3024280499666933 q1.3472346495836973,0 1.9970772452652454,-0.42976617626845875 q0.665692415088416,-0.42976617626845875 0.665692415088416,-1.2097121998667717 q0,-0.5411870367825031 -0.3645458463579419,-0.8595323525369171 q-0.3486960269510748,-0.318345315754414 -0.9034397061914212,-0.4775179736316205 q-0.5547436792403465,-0.1591726578772069 -1.4581833854317665,-0.318345315754414 q-1.204586274921894,-0.2228417210280896 -1.9495277870446444,-0.46160070784389984 q-0.7449415121227508,-0.23875898681581026 -1.2679855525493622,-0.7958632893860338 q-0.5071942210197449,-0.5730215683579445 -0.5071942210197449,-1.591726578772068 q0,-1.2574639972299337 1.0302382614463568,-2.0533272866159678 q1.0460880808532238,-0.7958632893860338 2.900516951456666,-0.7958632893860338 q0.9668389838188892,0 1.9336779676377773,0.2546762526035308 q0.9668389838188892,0.2546762526035308 1.5849819406867027,0.6844424288719899 l-0.5864433180540807,1.0823740735650063 q-1.220436094328761,-0.8595323525369171 -2.9322165902704,-0.8595323525369171 q-1.2838353719562292,0 -1.9336779676377773,0.46160070784389984 q-0.649842595681549,0.4456834420561792 -0.649842595681549,1.193794934079051 q0,0.5730215683579445 0.3645458463579419,0.9232014156877998 q0.3645458463579419,0.33426258154213456 0.9034397061914212,0.4934352394193413 q0.5547436792403465,0.1591726578772069 1.5215826630592342,0.33426258154213456 q1.188736455515027,0.2228417210280896 1.9019783288240433,0.46160070784389984 q0.729091692715884,0.2228417210280896 1.2362859137356281,0.7799460235983142 q0.5230440404266122,0.5411870367825031 0.5230440404266122,1.5121402498334646 q0,1.3052157945930958 -1.0936375390738249,2.085161818191409 q-1.0936375390738249,0.7640287578105934 -3.011465687304735,0.7640287578105934 zm11.82184520567894,-0.7003596946597107 q-0.3803956657648091,0.33426258154213456 -0.9351393450051547,0.5252697709947828 q-0.5547436792403465,0.17508992366492748 -1.17288663610816,0.17508992366492748 q-1.3947841078042984,0 -2.1555754393339157,-0.7640287578105934 q-0.7449415121227508,-0.7640287578105934 -0.7449415121227508,-2.148830881342292 l0,-6.032643733546138 l-1.7910295929759747,0 l0,-1.146043136715889 l1.7910295929759747,0 l0,-2.180665412917733 l1.3313848301768303,0 l0,2.180665412917733 l3.027315506711602,0 l0,1.146043136715889 l-3.027315506711602,0 l0,5.968974670395255 q0,0.8913668841123582 0.44379494339227715,1.3529675919562578 q0.44379494339227715,0.46160070784389984 1.2838353719562292,0.46160070784389984 q0.4120953045785427,0 0.7924909703433516,-0.1273381263017654 q0.39624548517167596,-0.14325539208948623 0.6815422344952832,-0.3820143789052967 l0.4754945822060108,0.9709532130509616 zm3.7209618298526763,-7.433363122865558 q0.4754945822060108,-1.0027877446264029 1.4106339272111654,-1.5121402498334646 q0.9351393450051547,-0.5252697709947828 2.329923452809453,-0.5252697709947828 l0,1.3211330603808165 l-0.332846207544208,-0.031834531575441395 q-1.5691321212798357,0 -2.4567220080643892,0.9709532130509616 q-0.8875898867845541,0.9709532130509616 -0.8875898867845541,2.7218524497002363 l0,5.093525052070618 l-1.3472346495836973,0 l0,-9.996042914688587 l1.2838353719562292,0 l0,1.9578236918896437 zm9.791922062660454,-2.037410020828247 q1.9495277870446444,0 2.979766048491001,0.9868704788386826 q1.0460880808532238,0.9709532130509616 1.0460880808532238,2.8969423733651642 l0,6.191816391423345 l-1.2838353719562292,0 l0,-1.5598920471966267 q-0.4596447627991439,0.7799460235983142 -1.3472346495836973,1.2256294656544924 q-0.8717400673776872,0.42976617626845875 -2.0763263422995806,0.42976617626845875 q-1.6642310377210388,0 -2.6469198409467936,-0.7958632893860338 q-0.982688803225756,-0.7958632893860338 -0.982688803225756,-2.1169963497668505 q0,-1.2733812630176544 0.9034397061914212,-2.0533272866159678 q0.9192895255982876,-0.7799460235983142 2.9322165902704,-0.7799460235983142 l3.1541140619665384,0 l0,-0.6048560999333864 q0,-1.289298528805375 -0.713241873309017,-1.9578236918896437 q-0.713241873309017,-0.6844424288719899 -2.0921761617064476,-0.6844424288719899 q-0.9509891644120215,0 -1.8227292317897081,0.318345315754414 q-0.8717400673776872,0.318345315754414 -1.4898830242455006,0.8595323525369171 l-0.6181429568678146,-1.0027877446264029 q0.760791331529618,-0.652607897296549 1.8227292317897081,-1.0027877446264029 q1.0619379002600908,-0.3501798473298554 2.234824536368251,-0.3501798473298554 zm-0.4754945822060108,9.104676030576229 q1.141186997294426,0 1.9495277870446444,-0.5252697709947828 q0.8083407897502184,-0.5252697709947828 1.204586274921894,-1.5121402498334646 l0,-1.6235611103475094 l-3.1224144231528044,0 q-2.5518209245055914,0 -2.5518209245055914,1.7827337682247162 q0,0.8754496183246381 0.665692415088416,1.3848021235316992 q0.665692415088416,0.4934352394193413 1.8544288706034426,0.4934352394193413 zm13.400387808535577,0.3660971131175758 q-0.3803956657648091,0.33426258154213456 -0.9351393450051547,0.5252697709947828 q-0.5547436792403465,0.17508992366492748 -1.17288663610816,0.17508992366492748 q-1.3947841078042984,0 -2.1555754393339157,-0.7640287578105934 q-0.7449415121227508,-0.7640287578105934 -0.7449415121227508,-2.148830881342292 l0,-6.032643733546138 l-1.7910295929759747,0 l0,-1.146043136715889 l1.7910295929759747,0 l0,-2.180665412917733 l1.3313848301768303,0 l0,2.180665412917733 l3.027315506711602,0 l0,1.146043136715889 l-3.027315506711602,0 l0,5.968974670395255 q0,0.8913668841123582 0.44379494339227715,1.3529675919562578 q0.44379494339227715,0.46160070784389984 1.2838353719562292,0.46160070784389984 q0.4120953045785427,0 0.7924909703433516,-0.1273381263017654 q0.39624548517167596,-0.14325539208948623 0.6815422344952832,-0.3820143789052967 l0.4754945822060108,0.9709532130509616 zm11.106977267697333,-3.97931644693017 l-8.32115518860519,0 q0.11094873584806923,1.5598920471966267 1.188736455515027,2.530845260247588 q1.0777877196669579,0.9550359472632408 2.7261689379811287,0.9550359472632408 q0.9192895255982876,0 1.6959306765347733,-0.33426258154213456 q0.7766411509364852,-0.33426258154213456 1.3472346495836973,-0.9868704788386826 l0.760791331529618,0.8754496183246381 q-0.665692415088416,0.7958632893860338 -1.6642310377210388,1.2256294656544924 q-0.982688803225756,0.4138489104807378 -2.1872750781476498,0.4138489104807378 q-1.5215826630592342,0 -2.7103191185742617,-0.652607897296549 q-1.17288663610816,-0.652607897296549 -1.8385790511965756,-1.8145682998001575 q-0.665692415088416,-1.1619604025036097 -0.665692415088416,-2.6263488549739122 q0,-1.4643884524703026 0.6339927762746818,-2.6263488549739122 q0.6339927762746818,-1.1619604025036097 1.743480134755373,-1.7986510340124378 q1.109487358480692,-0.652607897296549 2.4884216468781233,-0.652607897296549 q1.3789342883974314,0 2.4725718274712563,0.652607897296549 q1.0936375390738249,0.6366906315088282 1.711780495941639,1.7986510340124378 q0.6339927762746818,1.146043136715889 0.6339927762746818,2.6263488549739122 l-0.01584981940686703,0.4138489104807378 zm-4.802495280280709,-4.329496294260025 q-1.4423335660248995,0 -2.425022369250655,0.9232014156877998 q-0.9668389838188892,0.9232014156877998 -1.0936375390738249,2.4035071339458227 l7.053169636055827,0 q-0.12679855525493622,-1.4803057182580233 -1.109487358480692,-2.4035071339458227 q-0.9668389838188892,-0.9232014156877998 -2.425022369250655,-0.9232014156877998 zm16.78775339203,-1.0823740735650063 l0,8.786330714821815 q0,2.546762526035309 -1.2521357331424952,3.772391991689801 q-1.2362859137356281,1.2256294656544924 -3.7247152699659107,1.2256294656544924 q-1.3789342883974314,0 -2.6310700215399265,-0.4138489104807378 q-1.2362859137356281,-0.4138489104807378 -2.0129270646721125,-1.1301258709281683 l0.6815422344952832,-1.0346222762018442 q0.713241873309017,0.652607897296549 1.743480134755373,1.0027877446264029 q1.0460880808532238,0.3660971131175758 2.1714252587407827,0.3660971131175758 q1.9019860381762026,0 2.789575924960756,-0.8913668841123582 q0.8875898867845541,-0.8754496183246381 0.8875898867845541,-2.737769715487957 l0,-1.2733812630176544 q-0.6181429568678146,0.9550359472632408 -1.6325313989073038,1.4484711866825821 q-1.0143884420394897,0.4934352394193413 -2.250682065127277,0.4934352394193413 q-1.3947841078042984,0 -2.5518209245055914,-0.6048560999333864 q-1.141186997294426,-0.6207733657211069 -1.7910295929759747,-1.7349819708615541 q-0.649842595681549,-1.1142086051404476 -0.649842595681549,-2.530845260247588 q0,-1.4007193893194199 0.649842595681549,-2.4990107286721472 q0.649842595681549,-1.098291339352727 1.7910295929759747,-1.7031474392861137 q1.141186997294426,-0.6207733657211069 2.5518209245055914,-0.6207733657211069 q1.2679932619015217,0 2.2823817039410113,0.5252697709947828 q1.0302382614463568,0.5093525052070613 1.6483812183141713,1.4803057182580233 l0,-1.925989160314203 l1.2996851913630962,0 zm-5.103649558363342,8.42023360170424 q1.0936452484259844,0 1.9495354963968041,-0.46160070784389984 q0.8717400673776872,-0.4775179736316205 1.3472346495836973,-1.3052157945930958 q0.49134440161287823,-0.8436150867491967 0.49134440161287823,-1.9100718945264816 q0,-1.0505395419895651 -0.49134440161287823,-1.8782373629510403 q-0.4754945822060108,-0.8276978209614757 -1.3313848301768303,-1.289298528805375 q-0.85589024797082,-0.4775179736316205 -1.9653853158036712,-0.4775179736316205 q-1.0777877196669579,0 -1.9336779676377773,0.46160070784389984 q-0.85589024797082,0.46160070784389984 -1.3472346495836973,1.3052157945930958 q-0.4754945822060108,0.8276978209614757 -0.4754945822060108,1.8782373629510403 q0,1.0664568077772856 0.4754945822060108,1.9100718945264816 q0.49134440161287823,0.8276978209614757 1.3472346495836973,1.3052157945930958 q0.85589024797082,0.46160070784389984 1.9336779676377773,0.46160070784389984 zm17.23009268800795,-8.42023360170424 l-4.976843293756247,11.189837848767638 q-0.6022931374609476,1.4166366551071405 -1.4106339272111654,2.0055754892528057 q-0.7924909703433516,0.5889388341456656 -1.9019783288240433,0.5889388341456656 q-0.713241873309017,0 -1.3472346495836973,-0.23875898681581026 q-0.6181429568678146,-0.2228417210280896 -1.0777877196669579,-0.6844424288719899 l0.6339927762746818,-1.0027877446264029 q0.7449415121227508,0.7640287578105934 1.806879412382841,0.7640287578105934 q0.6815422344952832,0 1.157036816701293,-0.3820143789052967 q0.49134440161287823,-0.3820143789052967 0.9034397061914212,-1.289298528805375 l0.44379494339227715,-0.9709532130509616 l-4.453799253329635,-9.980125648900867 l1.4106339272111654,0 l3.7405573800206184,8.499819930642843 l3.7405573800206184,-8.499819930642843 l1.3313848301768303,0 z" fill-rule="nonzero" id="svg_12"/><path fill="#000000" fill-opacity="0.0" d="m161.63066738613844,68.26728576240531 l140.8003110786736,0 l0,45.01555061166465 l-140.8003110786736,0 z" fill-rule="evenodd" id="svg_13"/><path fill="#000000" d="m218.28056950011492,91.72743055513611 q-1.9653776064515118,0 -3.550359547138214,-0.8754496183246381 q-1.5691321212798357,-0.8754496183246381 -2.4725718274712563,-2.4194243997335434 q-0.9034397061914212,-1.543974781408906 -0.9034397061914212,-3.4699795279097674 q0,-1.9100718945264816 0.9034397061914212,-3.4540466759353876 q0.9034397061914212,-1.5598920471966267 2.4884216468781233,-2.435341665521264 q1.5849819406867027,-0.8754496183246381 3.550359547138214,-0.8754496183246381 q1.4740332048386335,0 2.7261689379811287,0.4934352394193413 q1.2521357331424952,0.4934352394193413 2.1238758005201817,1.4484711866825821 l-0.8875898867845541,0.8913668841123582 q-1.5532823018729678,-1.5758093129843473 -3.9149053934961557,-1.5758093129843473 q-1.5691321212798357,0 -2.868817312642932,0.7321942262351518 q-1.2838353719562292,0.7162769604474307 -2.0129270646721125,1.9737409576773643 q-0.729091692715884,1.241546731442213 -0.729091692715884,2.8014387786388397 q0,1.5598920471966267 0.729091692715884,2.81737163061322 q0.729091692715884,1.2574639972299337 2.0129270646721125,1.9737409576773643 q1.2996851913630962,0.7162769604474307 2.868817312642932,0.7162769604474307 q2.377472911030054,0 3.9149053934961557,-1.591726578772068 l0.8875898867845541,0.8913668841123582 q-0.8717400673776872,0.9550359472632408 -2.1397256199270487,1.4643884524703026 q-1.2521357331424952,0.4934352394193413 -2.7261689379811287,0.4934352394193413 zm21.611012189330815,-13.418270339623689 l0,13.306849479109644 l-1.3472346495836973,0 l0,-10.64866609256029 l-5.198740765452385,8.961435919061898 l-0.665692415088416,0 l-5.198740765452385,-8.897766855911016 l0,10.584997029409408 l-1.3472346495836973,0 l0,-13.306849479109644 l1.157036816701293,0 l5.753484444692731,9.868720068961977 l5.690085167065263,-9.868720068961977 l1.157036816701293,0 zm7.97673115713892,13.418270339623689 q-1.4898830242455006,0 -2.837117673829198,-0.4775179736316205 q-1.3472346495836973,-0.4775179736316205 -2.0921606415632845,-1.241546731442213 l0.5547281996727206,-1.098291339352727 q0.713241873309017,0.7321942262351518 1.9019783288240433,1.1778776682913303 q1.204586274921894,0.4456834420561792 2.4725718274712563,0.4456834420561792 q1.775179773569107,0 2.6627696603536606,-0.652607897296549 q0.8875898867845541,-0.652607897296549 0.8875898867845541,-1.7031474392861137 q0,-0.7958632893860338 -0.49134440161287823,-1.2733812630176544 q-0.4754945822060108,-0.47753351907007935 -1.17288663610816,-0.7322097716736108 q-0.6973920539021496,-0.2546762526035308 -1.9495277870446444,-0.5571043025702241 q-1.4898830242455006,-0.3820143789052967 -2.393322730436921,-0.7321942262351518 q-0.8875898867845541,-0.3501798473298554 -1.5215826630592342,-1.0664568077772856 q-0.6339927762746818,-0.7321942262351518 -0.6339927762746818,-1.9737409576773643 q0,-1.0027877446264029 0.5230440404266122,-1.8304855655878782 q0.5388938598334791,-0.8276978209614757 1.6325313989073038,-1.3211330603808165 q1.109487358480692,-0.4934352394193413 2.7261689379811287,-0.4934352394193413 q1.141186997294426,0 2.218974716961384,0.318345315754414 q1.0936375390738249,0.3024280499666933 1.9019783288240433,0.8595323525369171 l-0.4754945822060108,1.1301258709281683 q-0.840040428563953,-0.5571043025702241 -1.7910295929759747,-0.8276978209614757 q-0.9351393450051547,-0.2865107841789724 -1.8544288706034426,-0.2865107841789724 q-1.7276303153485064,0 -2.6152202021330595,0.6844424288719899 q-0.8717400673776872,0.6685251630842689 -0.8717400673776872,1.7349819708615541 q0,0.7958632893860338 0.4754945822060108,1.289298528805375 q0.4754945822060108,0.4775179736316205 1.204586274921894,0.7321942262351518 q0.729091692715884,0.2546762526035308 1.9653776064515118,0.5571043025702241 q1.4581833854317665,0.3660971131175758 2.34577327221632,0.7162769604474307 q0.9034397061914212,0.3501798473298554 1.5215826630592342,1.0664568077772856 q0.6339927762746818,0.7162925058858899 0.6339927762746818,1.9260047465008623 q0,1.0027877446264029 -0.5388938598334791,1.8304855655878782 q-0.5388938598334791,0.8276978209614757 -1.6642310377210388,1.3211330603808165 q-1.109487358480692,0.4775179736316205 -2.7261689379811287,0.4775179736316205 z" fill-rule="nonzero" id="svg_14"/><path fill="#000000" fill-opacity="0.0" d="m307.19405968217734,68.26728576240531 l140.800321222558,0 l0,45.01555061166465 l-140.800321222558,0 z" fill-rule="evenodd" id="svg_15"/><path fill="#000000" d="m358.572580674367,78.30916021551243 l-4.469649072736502,13.306849479109644 l-1.4740332048386335,0 l-3.8832057546824217,-11.34902578722 l-3.8990555740892887,11.34902578722 l-1.4581833854317665,0 l-4.469649072736502,-13.306849479109644 l1.4423335660248995,0 l3.8198064770549536,11.444529381946325 l3.962454851716757,-11.444529381946325 l1.2996851913630962,0 l3.8990555740892887,11.508198445097207 l3.8832057546824217,-11.508198445097207 l1.3472346495836973,0 zm11.214304636807322,8.722676932246088 l-8.32115518860519,0 q0.11094873584806923,1.5598920471966267 1.188736455515027,2.530845260247588 q1.0777877196669579,0.9550359472632408 2.7261689379811287,0.9550359472632408 q0.9192895255982876,0 1.6959306765347733,-0.33426258154213456 q0.7766411509364852,-0.33426258154213456 1.3472346495836973,-0.9868704788386826 l0.760791331529618,0.8754496183246381 q-0.665692415088416,0.7958632893860338 -1.6642310377210388,1.2256294656544924 q-0.982688803225756,0.4138489104807378 -2.1872750781476498,0.4138489104807378 q-1.5215826630592342,0 -2.7103191185742617,-0.652607897296549 q-1.17288663610816,-0.652607897296549 -1.8385790511965756,-1.8145682998001575 q-0.665692415088416,-1.1619604025036097 -0.665692415088416,-2.6263644411605718 q0,-1.4643884524703026 0.6339927762746818,-2.6263488549739122 q0.6339927762746818,-1.1619604025036097 1.743480134755373,-1.7986510340124378 q1.109487358480692,-0.652607897296549 2.4884216468781233,-0.652607897296549 q1.3789342883974314,0 2.4725718274712563,0.652607897296549 q1.0936375390738249,0.6366906315088282 1.711780495941639,1.7986510340124378 q0.6339927762746818,1.146043136715889 0.6339927762746818,2.6263488549739122 l-0.01584981940686703,0.4138644559191968 zm-4.802495280280709,-4.3295118804466854 q-1.4423335660248995,0 -2.425022369250655,0.9232014156877998 q-0.9668389838188892,0.9232014156877998 -1.0936375390738249,2.4035071339458227 l7.053169636055827,0 q-0.12679855525493622,-1.4803057182580233 -1.109487358480692,-2.4035071339458227 q-0.9668389838188892,-0.9232014156877998 -2.425022369250655,-0.9232014156877998 zm12.69849186995077,-1.1619604025036097 q1.3947841078042984,0 2.5201212856918573,0.6366906315088282 q1.141186997294426,0.6366906315088282 1.7910295929759747,1.7986510340124378 q0.649842595681549,1.1619604025036097 0.649842595681549,2.642266120761633 q0,1.4803213044446828 -0.649842595681549,2.6422817069482925 q-0.649842595681549,1.1619604025036097 -1.7910295929759747,1.8145682998001575 q-1.125337177887559,0.6366906315088282 -2.5201212856918573,0.6366906315088282 q-1.2521357331424952,0 -2.250674355775118,-0.5252697709947828 q-0.982688803225756,-0.5411870367825031 -1.6008317600935698,-1.543974781408906 l0,1.9737409576773643 l-1.2838353719562292,0 l0,-14.102712768495678 l1.3472346495836973,0 l0,6.0008092019706964 q0.6181429568678146,-0.9709532130509616 1.5849819406867027,-1.4643884524703026 q0.982688803225756,-0.5093525052070613 2.203124897554517,-0.5093525052070613 zm-0.09509891644120232,8.977353184849619 q1.0302382614463568,0 1.8861285094171762,-0.4775179736316205 q0.85589024797082,-0.4934352394193413 1.3313848301768303,-1.3848021235316992 q0.49134440161287823,-0.8913668841123582 0.49134440161287823,-2.037425607014906 q0,-1.146043136715889 -0.49134440161287823,-2.037410020828247 q-0.4754945822060108,-0.8913668841123582 -1.3313848301768303,-1.3688848577439785 q-0.85589024797082,-0.4934352394193413 -1.8861285094171762,-0.4934352394193413 q-1.0619379002600908,0 -1.9019783288240433,0.4934352394193413 q-0.840040428563953,0.4775179736316205 -1.3313848301768303,1.3688848577439785 q-0.4754945822060108,0.8913668841123582 -0.4754945822060108,2.037410020828247 q0,1.1460587229025483 0.4754945822060108,2.037425607014906 q0.49134440161287823,0.8913668841123582 1.3313848301768303,1.3848021235316992 q0.840040428563953,0.4775179736316205 1.9019783288240433,0.4775179736316205 zm10.469301246989607,1.193794934079051 q-1.220436094328761,0 -2.329923452809453,-0.3501798473298554 q-1.109487358480692,-0.3501798473298554 -1.7276303153485064,-0.8913668841123582 l0.6022931374609476,-1.0664568077772856 q0.6339927762746818,0.5093525052070613 1.5691321212798357,0.8276978209614757 q0.9509891644120215,0.3024280499666933 1.9812274258583784,0.3024280499666933 q1.3472346495836973,0 1.9970772452652454,-0.42976617626845875 q0.665692415088416,-0.42976617626845875 0.665692415088416,-1.2097121998667717 q0,-0.5411870367825031 -0.3645458463579419,-0.8595323525369171 q-0.3486960269510748,-0.318345315754414 -0.9034397061914212,-0.4775179736316205 q-0.5547436792403465,-0.1591726578772069 -1.4581833854317665,-0.318345315754414 q-1.204586274921894,-0.2228417210280896 -1.9495277870446444,-0.46160070784389984 q-0.7449415121227508,-0.2387745322542692 -1.2679855525493622,-0.7958788348244932 q-0.5071942210197449,-0.5730215683579445 -0.5071942210197449,-1.591726578772068 q0,-1.2574639972299337 1.0302382614463568,-2.0533272866159678 q1.0460880808532238,-0.7958632893860338 2.900516951456666,-0.7958632893860338 q0.9668389838188892,0 1.9336779676377773,0.2546762526035308 q0.9668389838188892,0.2546762526035308 1.5849819406867027,0.6844424288719899 l-0.5864433180540807,1.0823740735650063 q-1.220436094328761,-0.8595323525369171 -2.9322165902704,-0.8595323525369171 q-1.2838353719562292,0 -1.9336779676377773,0.46160070784389984 q-0.649842595681549,0.4456834420561792 -0.649842595681549,1.193794934079051 q0,0.5730215683579445 0.3645458463579419,0.9232014156877998 q0.3645458463579419,0.33426258154213456 0.9034397061914212,0.4934352394193413 q0.5547436792403465,0.1591726578772069 1.5215826630592342,0.33426258154213456 q1.188736455515027,0.2228417210280896 1.9019783288240433,0.46160070784389984 q0.729091692715884,0.22285726646654863 1.2362859137356281,0.7799615690367727 q0.5230440404266122,0.5411870367825031 0.5230440404266122,1.5121402498334646 q0,1.3052157945930958 -1.0936375390738249,2.085161818191409 q-1.0936375390738249,0.7640287578105934 -3.011465687304735,0.7640287578105934 zm6.575570197832585,-10.091561789990067 l1.3472346495836973,0 l0,9.996058195263743 l-1.3472346495836973,0 l0,-9.996058195263743 zm0.6815422344952832,-2.180665412917733 q-0.4120953045785427,0 -0.6973920539021496,-0.2865107841789724 q-0.2852967493236066,-0.2865107841789724 -0.2852967493236066,-0.6844424288719899 q0,-0.3820143789052967 0.2852967493236066,-0.6685251630842689 q0.2852967493236066,-0.2865107841789724 0.6973920539021496,-0.2865107841789724 q0.4120953045785427,0 0.6973920539021496,0.2865107841789724 q0.2852967493236066,0.27059351839125156 0.2852967493236066,0.652607897296549 q0,0.4138489104807378 -0.2852967493236066,0.7003596946597107 q-0.2852967493236066,0.2865107841789724 -0.6973920539021496,0.2865107841789724 zm9.65548073087549,11.57186750824809 q-0.3803956657648091,0.33426258154213456 -0.9351393450051547,0.5252697709947828 q-0.5547436792403465,0.17508992366492748 -1.17288663610816,0.17508992366492748 q-1.3947841078042984,0 -2.1555754393339157,-0.7640287578105934 q-0.7449415121227508,-0.7640287578105934 -0.7449415121227508,-2.148830881342292 l0,-6.032659319732797 l-1.7910295929759747,0 l0,-1.146043136715889 l1.7910295929759747,0 l0,-2.180665412917733 l1.3313848301768303,0 l0,2.180665412917733 l3.027315506711602,0 l0,1.146043136715889 l-3.027315506711602,0 l0,5.9689902565819155 q0,0.8913668841123582 0.44379494339227715,1.3529675919562578 q0.44379494339227715,0.46160070784389984 1.2838353719562292,0.46160070784389984 q0.4120953045785427,0 0.7924909703433516,-0.1273381263017654 q0.39624548517167596,-0.14325539208948623 0.6815422344952832,-0.3820143789052967 l0.4754945822060108,0.9709532130509616 zm11.106977267697333,-3.97931644693017 l-8.32115518860519,0 q0.11094873584806923,1.5598920471966267 1.188736455515027,2.530845260247588 q1.0777877196669579,0.9550359472632408 2.7261689379811287,0.9550359472632408 q0.9192895255982876,0 1.6959306765347733,-0.33426258154213456 q0.7766411509364852,-0.33426258154213456 1.3472346495836973,-0.9868704788386826 l0.760791331529618,0.8754496183246381 q-0.665692415088416,0.7958632893860338 -1.6642310377210388,1.2256294656544924 q-0.982688803225756,0.4138489104807378 -2.1872750781476498,0.4138489104807378 q-1.5215826630592342,0 -2.7103191185742617,-0.652607897296549 q-1.17288663610816,-0.652607897296549 -1.8385790511965756,-1.8145682998001575 q-0.665692415088416,-1.1619604025036097 -0.665692415088416,-2.6263644411605718 q0,-1.4643884524703026 0.6339927762746818,-2.6263488549739122 q0.6339927762746818,-1.1619604025036097 1.743480134755373,-1.7986510340124378 q1.109487358480692,-0.652607897296549 2.4884216468781233,-0.652607897296549 q1.3789342883974314,0 2.4725718274712563,0.652607897296549 q1.0936375390738249,0.6366906315088282 1.711780495941639,1.7986510340124378 q0.6339927762746818,1.146043136715889 0.6339927762746818,2.6263488549739122 l-0.01584981940686703,0.4138644559191968 zm-4.802495280280709,-4.3295118804466854 q-1.4423335660248995,0 -2.425022369250655,0.9232014156877998 q-0.9668389838188892,0.9232014156877998 -1.0936375390738249,2.4035071339458227 l7.053169636055827,0 q-0.12679855525493622,-1.4803057182580233 -1.109487358480692,-2.4035071339458227 q-0.9668389838188892,-0.9232014156877998 -2.425022369250655,-0.9232014156877998 z" fill-rule="nonzero" id="svg_16"/><path fill="#000000" fill-opacity="0.0" d="m237.0583298499692,167.81249074704638 l84.21820054427862,-0.22461375839370498 " fill-rule="evenodd" id="svg_17"/><path stroke="#000000" stroke-width="1.0" stroke-linejoin="round" stroke-linecap="butt" d="m237.0583298499692,167.81249074704638 l78.13190032369495,-0.20838561439795625 " fill-rule="evenodd" id="svg_18"/><path fill="#000000" stroke="#000000" stroke-width="1.0" stroke-linecap="butt" d="m315.19467319504025,169.28674026401748 l4.598955196220159,-1.6949089681258922 l-4.607839717389762,-1.6703492127708204 z" fill-rule="evenodd" id="svg_19"/><path fill="#000000" fill-opacity="0.0" d="m98.78734157454515,167.81246018589607 l84.21820054427862,-0.22461375839370498 " fill-rule="evenodd" id="svg_20"/><path stroke="#000000" stroke-width="1.0" stroke-linejoin="round" stroke-linecap="butt" d="m98.78734157454515,167.8124296247458 l78.13188612225674,-0.2083545235210383 " fill-rule="evenodd" id="svg_21"/><path fill="#000000" stroke="#000000" stroke-width="1.0" stroke-linecap="butt" d="m176.92368897717,169.28669951581705 l4.598924155933833,-1.6949089681258922 l-4.6078239943689105,-1.6703492127708204 z" fill-rule="evenodd" id="svg_22"/></g></g></svg>