<svg version="1.1" viewBox="0.0 0.0 500.0 500.0" fill="none" stroke="none" stroke-linecap="square" stroke-miterlimit="10" xmlns:xlink="http://www.w3.org/1999/xlink" xmlns="http://www.w3.org/2000/svg"><clipPath id="p.0"><path d="m0 0l500.0 0l0 500.0l-500.0 0l0 -500.0z" clip-rule="nonzero"/></clipPath><g clip-path="url(#p.0)"><path fill="#000000" fill-opacity="0.0" d="m0 0l500.0 0l0 500.0l-500.0 0z" fill-rule="evenodd"/><path fill="#f3f3f3" d="m36.84777 260.0131l0 0c0 -41.764893 35.789017 -75.62204 79.937004 -75.62204l0 0c21.200607 0 41.532898 7.9673004 56.524002 22.149185c14.991104 14.181885 23.41301 33.416656 23.41301 53.472855l0 0c0 41.764923 -35.789017 75.62207 -79.93701 75.62207l0 0c-44.147987 0 -79.937004 -33.857147 -79.937004 -75.62207z" fill-rule="evenodd"/><path stroke="#000000" stroke-width="1.0" stroke-linejoin="round" stroke-linecap="butt" d="m36.84777 260.0131l0 0c0 -41.764893 35.789017 -75.62204 79.937004 -75.62204l0 0c21.200607 0 41.532898 7.9673004 56.524002 22.149185c14.991104 14.181885 23.41301 33.416656 23.41301 53.472855l0 0c0 41.764923 -35.789017 75.62207 -79.93701 75.62207l0 0c-44.147987 0 -79.937004 -33.857147 -79.937004 -75.62207z" fill-rule="evenodd"/><path fill="#f3f3f3" d="m170.07086 260.0131l0 0c0 -41.764893 35.789017 -75.62204 79.93701 -75.62204l0 0c21.200623 0 41.532898 7.9673004 56.523987 22.149185c14.991119 14.181885 23.413025 33.416656 23.413025 53.472855l0 0c0 41.764923 -35.789032 75.62207 -79.93701 75.62207l0 0c-44.147995 0 -79.93701 -33.857147 -79.93701 -75.62207z" fill-rule="evenodd"/><path stroke="#000000" stroke-width="1.0" stroke-linejoin="round" stroke-linecap="butt" d="m170.07086 260.0131l0 0c0 -41.764893 35.789017 -75.62204 79.93701 -75.62204l0 0c21.200623 0 41.532898 7.9673004 56.523987 22.149185c14.991119 14.181885 23.413025 33.416656 23.413025 53.472855l0 0c0 41.764923 -35.789032 75.62207 -79.93701 75.62207l0 0c-44.147995 0 -79.93701 -33.857147 -79.93701 -75.62207z" fill-rule="evenodd"/><path fill="#f3f3f3" d="m308.61417 260.0131l0 0c0 -41.764893 35.789032 -75.62204 79.93701 -75.62204l0 0c21.200623 0 41.532898 7.9673004 56.524017 22.149185c14.991089 14.181885 23.412994 33.416656 23.412994 53.472855l0 0c0 41.764923 -35.789032 75.62207 -79.93701 75.62207l0 0c-44.14798 0 -79.93701 -33.857147 -79.93701 -75.62207z" fill-rule="evenodd"/><path stroke="#000000" stroke-width="1.0" stroke-linejoin="round" stroke-linecap="butt" d="m308.61417 260.0131l0 0c0 -41.764893 35.789032 -75.62204 79.93701 -75.62204l0 0c21.200623 0 41.532898 7.9673004 56.524017 22.149185c14.991089 14.181885 23.412994 33.416656 23.412994 53.472855l0 0c0 41.764923 -35.789032 75.62207 -79.93701 75.62207l0 0c-44.14798 0 -79.93701 -33.857147 -79.93701 -75.62207z" fill-rule="evenodd"/><path fill="#000000" fill-opacity="0.0" d="m36.848263 227.90463l138.80315 0l0 44.188995l-138.80315 0z" fill-rule="evenodd"/><path fill="#000000" d="m75.65215 250.934q-1.9375 0 -3.5 -0.859375q-1.546875 -0.859375 -2.4375 -2.375q-0.890625 -1.515625 -0.890625 -3.40625q0 -1.875 0.890625 -3.390625q0.890625 -1.53125 2.453125 -2.390625q1.5625 -0.859375 3.5 -0.859375q1.453125 0 2.6875 0.484375q1.234375 0.484375 2.09375 1.421875l-0.875 0.875q-1.53125 -1.546875 -3.859375 -1.546875q-1.546875 0 -2.828125 0.71875q-1.265625 0.703125 -1.984375 1.9375q-0.71875 1.21875 -0.71875 2.75q0 1.53125 0.71875 2.765625q0.71875 1.234375 1.984375 1.9375q1.28125 0.703125 2.828125 0.703125q2.34375 0 3.859375 -1.5625l0.875 0.875q-0.859375 0.9375 -2.109375 1.4375q-1.234375 0.484375 -2.6875 0.484375zm11.476349 -0.015625q-1.421875 0 -2.5625 -0.640625q-1.125 -0.640625 -1.78125 -1.78125q-0.65625 -1.140625 -0.65625 -2.578125q0 -1.4375 0.65625 -2.578125q0.65625 -1.140625 1.78125 -1.765625q1.140625 -0.640625 2.5625 -0.640625q1.421875 0 2.546875 0.640625q1.140625 0.625 1.78125 1.765625q0.65625 1.140625 0.65625 2.578125q0 1.4375 -0.65625 2.578125q-0.640625 1.140625 -1.78125 1.78125q-1.125 0.640625 -2.546875 0.640625zm0 -1.171875q1.046875 0 1.875 -0.46875q0.828125 -0.484375 1.296875 -1.359375q0.46875 -0.875 0.46875 -2.0q0 -1.125 -0.46875 -2.0q-0.46875 -0.875 -1.296875 -1.34375q-0.828125 -0.484375 -1.875 -0.484375q-1.046875 0 -1.875 0.484375q-0.828125 0.46875 -1.3125 1.34375q-0.46875 0.875 -0.46875 2.0q0 1.125 0.46875 2.0q0.484375 0.875 1.3125 1.359375q0.828125 0.46875 1.875 0.46875zm12.681839 -8.8125q1.84375 0 2.9375 1.078125q1.09375 1.0625 1.09375 3.125l0 5.6875l-1.328125 0l0 -5.5625q0 -1.53125 -0.765625 -2.328125q-0.765625 -0.796875 -2.171875 -0.796875q-1.59375 0 -2.515625 0.9375q-0.921875 0.9375 -0.921875 2.59375l0 5.15625l-1.328125 0l0 -9.8125l1.265625 0l0 1.8125q0.546875 -0.90625 1.5 -1.390625q0.96875 -0.5 2.234375 -0.5zm12.802155 9.296875q-0.375 0.328125 -0.921875 0.515625q-0.546875 0.171875 -1.15625 0.171875q-1.375 0 -2.125 -0.75q-0.734375 -0.75 -0.734375 -2.109375l0 -5.921875l-1.765625 0l0 -1.125l1.765625 0l0 -2.140625l1.3125 0l0 2.140625l2.984375 0l0 1.125l-2.984375 0l0 5.859375q0 0.875 0.4375 1.328125q0.4375 0.453125 1.265625 0.453125q0.40625 0 0.78125 -0.125q0.390625 -0.140625 0.671875 -0.375l0.46875 0.953125zm10.949432 -3.90625l-8.203125 0q0.109375 1.53125 1.171875 2.484375q1.0625 0.9375 2.6875 0.9375q0.90625 0 1.671875 -0.328125q0.765625 -0.328125 1.328125 -0.96875l0.75 0.859375q-0.65625 0.78125 -1.640625 1.203125q-0.96875 0.40625 -2.15625 0.40625q-1.5 0 -2.671875 -0.640625q-1.15625 -0.640625 -1.8125 -1.78125q-0.65625 -1.140625 -0.65625 -2.578125q0 -1.4375 0.625 -2.578125q0.625 -1.140625 1.71875 -1.765625q1.09375 -0.640625 2.453125 -0.640625q1.359375 0 2.4375 0.640625q1.078125 0.625 1.6875 1.765625q0.625 1.125 0.625 2.578125l-0.015625 0.40625zm-4.734375 -4.25q-1.421875 0 -2.390625 0.90625q-0.953125 0.90625 -1.078125 2.359375l6.953125 0q-0.125 -1.453125 -1.09375 -2.359375q-0.953125 -0.90625 -2.390625 -0.90625zm12.455879 -1.140625q1.84375 0 2.9375 1.078125q1.09375 1.0625 1.09375 3.125l0 5.6875l-1.328125 0l0 -5.5625q0 -1.53125 -0.765625 -2.328125q-0.765625 -0.796875 -2.171875 -0.796875q-1.59375 0 -2.515625 0.9375q-0.9218826 0.9375 -0.9218826 2.59375l0 5.15625l-1.328125 0l0 -9.8125l1.265625 0l0 1.8125q0.5468826 -0.90625 1.5000076 -1.390625q0.96875 -0.5 2.234375 -0.5zm12.802155 9.296875q-0.375 0.328125 -0.921875 0.515625q-0.546875 0.171875 -1.15625 0.171875q-1.375 0 -2.125 -0.75q-0.734375 -0.75 -0.734375 -2.109375l0 -5.921875l-1.765625 0l0 -1.125l1.765625 0l0 -2.140625l1.3125 0l0 2.140625l2.984375 0l0 1.125l-2.984375 0l0 5.859375q0 0.875 0.4375 1.328125q0.4375 0.453125 1.265625 0.453125q0.40625 0 0.78125 -0.125q0.390625 -0.140625 0.671875 -0.375l0.46875 0.953125z" fill-rule="nonzero"/><path fill="#000000" d="m72.26502 272.9184q-1.203125 0 -2.296875 -0.34375q-1.09375 -0.34375 -1.703125 -0.875l0.59375 -1.046875q0.625 0.5 1.546875 0.8125q0.9375 0.296875 1.953125 0.296875q1.328125 0 1.96875 -0.421875q0.65625 -0.421875 0.65625 -1.1875q0 -0.53125 -0.359375 -0.84375q-0.34375 -0.3125 -0.890625 -0.46875q-0.546875 -0.15625 -1.4375 -0.3125q-1.1875 -0.21875 -1.921875 -0.453125q-0.734375 -0.234375 -1.25 -0.78125q-0.5 -0.5625 -0.5 -1.5625q0 -1.234375 1.015625 -2.015625q1.03125 -0.78125 2.859375 -0.78125q0.953125 0 1.90625 0.25q0.953125 0.25 1.5625 0.671875l-0.578125 1.0625q-1.203125 -0.84375 -2.890625 -0.84375q-1.265625 0 -1.90625 0.453125q-0.640625 0.4375 -0.640625 1.171875q0 0.5625 0.359375 0.90625q0.359375 0.328125 0.890625 0.484375q0.546875 0.15625 1.5 0.328125q1.171875 0.21875 1.875 0.453125q0.71875 0.21875 1.21875 0.765625q0.515625 0.53125 0.515625 1.484375q0 1.28125 -1.078125 2.046875q-1.078125 0.75 -2.96875 0.75zm11.65416 -0.6875q-0.375 0.328125 -0.921875 0.515625q-0.546875 0.171875 -1.15625 0.171875q-1.375 0 -2.125 -0.75q-0.734375 -0.75 -0.734375 -2.109375l0 -5.921875l-1.765625 0l0 -1.125l1.765625 0l0 -2.140625l1.3125 0l0 2.140625l2.984375 0l0 1.125l-2.984375 0l0 5.859375q0 0.875 0.4375 1.328125q0.4375 0.453125 1.265625 0.453125q0.40625 0 0.78125 -0.125q0.390625 -0.140625 0.671875 -0.375l0.46875 0.953125zm3.6681824 -7.296875q0.46875 -0.984375 1.390625 -1.484375q0.921875 -0.515625 2.296875 -0.515625l0 1.296875l-0.328125 -0.03125q-1.546875 0 -2.421875 0.953125q-0.875 0.953125 -0.875 2.671875l0 5.0l-1.328125 0l0 -9.8125l1.265625 0l0 1.921875zm9.65303 -2.0q1.921875 0 2.9375 0.96875q1.03125 0.953125 1.03125 2.84375l0 6.078125l-1.265625 0l0 -1.53125q-0.453125 0.765625 -1.328125 1.203125q-0.859375 0.421875 -2.046875 0.421875q-1.640625 0 -2.609375 -0.78125q-0.96875 -0.78125 -0.96875 -2.078125q0 -1.25 0.890625 -2.015625q0.90625 -0.765625 2.890625 -0.765625l3.109375 0l0 -0.59375q0 -1.265625 -0.703125 -1.921875q-0.703125 -0.671875 -2.0625 -0.671875q-0.9375 0 -1.796875 0.3125q-0.859375 0.3125 -1.46875 0.84375l-0.609375 -0.984375q0.75 -0.640625 1.796875 -0.984375q1.046875 -0.34375 2.203125 -0.34375zm-0.46875 8.9375q1.125 0 1.921875 -0.515625q0.796875 -0.515625 1.1875 -1.484375l0 -1.59375l-3.078125 0q-2.515625 0 -2.515625 1.75q0 0.859375 0.65625 1.359375q0.65625 0.484375 1.828125 0.484375zm13.210312 0.359375q-0.375 0.328125 -0.921875 0.515625q-0.546875 0.171875 -1.15625 0.171875q-1.375 0 -2.125 -0.75q-0.734375 -0.75 -0.734375 -2.109375l0 -5.921875l-1.765625 0l0 -1.125l1.765625 0l0 -2.140625l1.3125 0l0 2.140625l2.984375 0l0 1.125l-2.984375 0l0 5.859375q0 0.875 0.4375 1.328125q0.4375 0.453125 1.265625 0.453125q0.40625 0 0.78125 -0.125q0.390625 -0.140625 0.671875 -0.375l0.46875 0.953125zm10.949432 -3.90625l-8.203125 0q0.109375 1.53125 1.171875 2.484375q1.0625 0.9375 2.6875 0.9375q0.90625 0 1.671875 -0.328125q0.765625 -0.328125 1.328125 -0.96875l0.75 0.859375q-0.65625 0.78125 -1.640625 1.203125q-0.96875 0.40625 -2.15625 0.40625q-1.5 0 -2.671875 -0.640625q-1.15625 -0.640625 -1.8125 -1.78125q-0.65625 -1.140625 -0.65625 -2.578125q0 -1.4375 0.625 -2.578125q0.625 -1.140625 1.71875 -1.765625q1.09375 -0.640625 2.453125 -0.640625q1.359375 0 2.4375 0.640625q1.078125 0.625 1.6875 1.765625q0.625 1.125 0.625 2.578125l-0.015625 0.40625zm-4.734375 -4.25q-1.421875 0 -2.390625 0.90625q-0.953125 0.90625 -1.078125 2.359375l6.953125 0q-0.125 -1.453125 -1.09375 -2.359375q-0.953125 -0.90625 -2.390625 -0.90625zm16.54963 -1.0625l0 8.625q0 2.5 -1.234375 3.703125q-1.21875 1.203125 -3.6718826 1.203125q-1.359375 0 -2.59375 -0.40625q-1.21875 -0.40625 -1.984375 -1.109375l0.671875 -1.015625q0.703125 0.640625 1.71875 0.984375q1.03125 0.359375 2.140625 0.359375q1.8750076 0 2.7500076 -0.875q0.875 -0.859375 0.875 -2.6875l0 -1.25q-0.609375 0.9375 -1.609375 1.421875q-1.0 0.484375 -2.2187576 0.484375q-1.375 0 -2.515625 -0.59375q-1.125 -0.609375 -1.765625 -1.703125q-0.640625 -1.09375 -0.640625 -2.484375q0 -1.375 0.640625 -2.453125q0.640625 -1.078125 1.765625 -1.671875q1.125 -0.609375 2.515625 -0.609375q1.2500076 0 2.2500076 0.515625q1.015625 0.5 1.625 1.453125l0 -1.890625l1.28125 0zm-5.0312576 8.265625q1.0781326 0 1.9218826 -0.453125q0.859375 -0.46875 1.328125 -1.28125q0.484375 -0.828125 0.484375 -1.875q0 -1.03125 -0.484375 -1.84375q-0.46875 -0.8125 -1.3125 -1.265625q-0.84375 -0.46875 -1.9375076 -0.46875q-1.0625 0 -1.90625 0.453125q-0.84375 0.453125 -1.328125 1.28125q-0.46875 0.8125 -0.46875 1.84375q0 1.046875 0.46875 1.875q0.484375 0.8125 1.328125 1.28125q0.84375 0.453125 1.90625 0.453125zm16.985695 -8.265625l-4.90625 10.984375q-0.59375 1.390625 -1.390625 1.96875q-0.78125 0.578125 -1.875 0.578125q-0.703125 0 -1.328125 -0.234375q-0.609375 -0.21875 -1.0625 -0.671875l0.625 -0.984375q0.734375 0.75 1.78125 0.75q0.671875 0 1.140625 -0.375q0.484375 -0.375 0.890625 -1.265625l0.4375 -0.953125l-4.390625 -9.796875l1.390625 0l3.6875 8.34375l3.6875 -8.34375l1.3125 0z" fill-rule="nonzero"/><path fill="#000000" fill-opacity="0.0" d="m175.6501 237.91776l138.80315 0l0 44.188995l-138.80315 0z" fill-rule="evenodd"/><path fill="#000000" d="m231.49646 260.94714q-1.9375 0 -3.5 -0.859375q-1.546875 -0.859375 -2.4375 -2.375q-0.890625 -1.515625 -0.890625 -3.4062653q0 -1.875 0.890625 -3.390625q0.890625 -1.53125 2.453125 -2.390625q1.5625 -0.859375 3.5 -0.859375q1.453125 0 2.6875 0.484375q1.234375 0.484375 2.09375 1.421875l-0.875 0.875q-1.53125 -1.546875 -3.859375 -1.546875q-1.546875 0 -2.828125 0.71875q-1.265625 0.703125 -1.984375 1.9375q-0.71875 1.21875 -0.71875 2.75q0 1.53125 0.71875 2.7656403q0.71875 1.234375 1.984375 1.9375q1.28125 0.703125 2.828125 0.703125q2.34375 0 3.859375 -1.5625l0.875 0.875q-0.859375 0.9375 -2.109375 1.4375q-1.234375 0.484375 -2.6875 0.484375zm21.304474 -13.17189l0 13.062515l-1.328125 0l0 -10.45314l-5.125 8.79689l-0.65625 0l-5.125 -8.73439l0 10.39064l-1.328125 0l0 -13.062515l1.140625 0l5.671875 9.687515l5.609375 -9.687515l1.140625 0zm7.8635864 13.17189q-1.46875 0 -2.796875 -0.46875q-1.328125 -0.46875 -2.0624847 -1.21875l0.54685974 -1.078125q0.703125 0.71875 1.875 1.15625q1.1875 0.4375 2.4375 0.4375q1.75 0 2.625 -0.640625q0.875 -0.640625 0.875 -1.671875q0 -0.78125 -0.484375 -1.25q-0.46875 -0.46876526 -1.15625 -0.71876526q-0.6875 -0.25 -1.921875 -0.546875q-1.46875 -0.375 -2.359375 -0.71875q-0.875 -0.34375 -1.5 -1.046875q-0.625 -0.71875 -0.625 -1.9375q0 -0.984375 0.515625 -1.796875q0.53125 -0.8125 1.609375 -1.296875q1.09375 -0.484375 2.6875 -0.484375q1.125 0 2.1875 0.3125q1.078125 0.296875 1.875 0.84375l-0.46875 1.109375q-0.828125 -0.546875 -1.765625 -0.8125q-0.921875 -0.28125 -1.828125 -0.28125q-1.703125 0 -2.578125 0.671875q-0.859375 0.65625 -0.859375 1.703125q0 0.78125 0.46875 1.265625q0.46875 0.46875 1.1875 0.71875q0.71875 0.25 1.9375 0.546875q1.4375 0.359375 2.3125 0.703125q0.890625 0.34375 1.5 1.046875q0.625 0.70314026 0.625 1.8906403q0 0.984375 -0.53125 1.796875q-0.53125 0.8125 -1.640625 1.296875q-1.09375 0.46875 -2.6875 0.46875z" fill-rule="nonzero"/><path fill="#000000" fill-opacity="0.0" d="m319.14877 237.91776l138.80316 0l0 44.188995l-138.80316 0z" fill-rule="evenodd"/><path fill="#000000" d="m369.79852 247.77525l-4.40625 13.062515l-1.453125 0l-3.828125 -11.14064l-3.84375 11.14064l-1.4375 0l-4.40625 -13.062515l1.421875 0l3.765625 11.23439l3.90625 -11.23439l1.28125 0l3.84375 11.29689l3.828125 -11.29689l1.328125 0zm11.055237 8.562515l-8.203125 0q0.109375 1.53125 1.171875 2.484375q1.0625 0.9375 2.6875 0.9375q0.90625 0 1.671875 -0.328125q0.765625 -0.328125 1.328125 -0.96875l0.75 0.859375q-0.65625 0.78125 -1.640625 1.203125q-0.96875 0.40625 -2.15625 0.40625q-1.5 0 -2.671875 -0.640625q-1.15625 -0.640625 -1.8125 -1.78125q-0.65625 -1.140625 -0.65625 -2.5781403q0 -1.4375 0.625 -2.578125q0.625 -1.140625 1.71875 -1.765625q1.09375 -0.640625 2.453125 -0.640625q1.359375 0 2.4375 0.640625q1.078125 0.625 1.6875 1.765625q0.625 1.125 0.625 2.578125l-0.015625 0.40626526zm-4.734375 -4.2500153q-1.421875 0 -2.390625 0.90625q-0.953125 0.90625 -1.078125 2.359375l6.953125 0q-0.125 -1.453125 -1.09375 -2.359375q-0.953125 -0.90625 -2.390625 -0.90625zm12.518372 -1.140625q1.375 0 2.484375 0.625q1.125 0.625 1.765625 1.765625q0.640625 1.140625 0.640625 2.59375q0 1.4531403 -0.640625 2.5937653q-0.640625 1.140625 -1.765625 1.78125q-1.109375 0.625 -2.484375 0.625q-1.234375 0 -2.21875 -0.515625q-0.96875 -0.53125 -1.578125 -1.515625l0 1.9375l-1.265625 0l0 -13.843765l1.328125 0l0 5.890625q0.609375 -0.953125 1.5625 -1.4375q0.96875 -0.5 2.171875 -0.5zm-0.09375 8.812515q1.015625 0 1.859375 -0.46875q0.84375 -0.484375 1.3125 -1.359375q0.484375 -0.875 0.484375 -2.0000153q0 -1.125 -0.484375 -2.0q-0.46875 -0.875 -1.3125 -1.34375q-0.84375 -0.484375 -1.859375 -0.484375q-1.046875 0 -1.875 0.484375q-0.828125 0.46875 -1.3125 1.34375q-0.46875 0.875 -0.46875 2.0q0 1.1250153 0.46875 2.0000153q0.484375 0.875 1.3125 1.359375q0.828125 0.46875 1.875 0.46875zm10.320801 1.171875q-1.203125 0 -2.296875 -0.34375q-1.09375 -0.34375 -1.703125 -0.875l0.59375 -1.046875q0.625 0.5 1.546875 0.8125q0.9375 0.296875 1.953125 0.296875q1.328125 0 1.96875 -0.421875q0.65625 -0.421875 0.65625 -1.1875q0 -0.53125 -0.359375 -0.84375q-0.34375 -0.3125 -0.890625 -0.46875q-0.546875 -0.15625 -1.4375 -0.3125q-1.1875 -0.21875 -1.921875 -0.453125q-0.734375 -0.23439026 -1.25 -0.78126526q-0.5 -0.5625 -0.5 -1.5625q0 -1.234375 1.015625 -2.015625q1.03125 -0.78125 2.859375 -0.78125q0.953125 0 1.90625 0.25q0.953125 0.25 1.5625 0.671875l-0.578125 1.0625q-1.203125 -0.84375 -2.890625 -0.84375q-1.265625 0 -1.90625 0.453125q-0.640625 0.4375 -0.640625 1.171875q0 0.5625 0.359375 0.90625q0.359375 0.328125 0.890625 0.484375q0.546875 0.15625 1.5 0.328125q1.171875 0.21875 1.875 0.453125q0.71875 0.21876526 1.21875 0.76564026q0.515625 0.53125 0.515625 1.484375q0 1.28125 -1.078125 2.046875q-1.078125 0.75 -2.96875 0.75zm6.4823 -9.906265l1.328125 0l0 9.812515l-1.328125 0l0 -9.812515zm0.671875 -2.140625q-0.40625 0 -0.6875 -0.28125q-0.28125 -0.28125 -0.28125 -0.671875q0 -0.375 0.28125 -0.65625q0.28125 -0.28125 0.6875 -0.28125q0.40625 0 0.6875 0.28125q0.28125 0.265625 0.28125 0.640625q0 0.40625 -0.28125 0.6875q-0.28125 0.28125 -0.6875 0.28125zm9.518524 11.35939q-0.375 0.328125 -0.921875 0.515625q-0.546875 0.171875 -1.15625 0.171875q-1.375 0 -2.125 -0.75q-0.734375 -0.75 -0.734375 -2.109375l0 -5.9218903l-1.765625 0l0 -1.125l1.765625 0l0 -2.140625l1.3125 0l0 2.140625l2.984375 0l0 1.125l-2.984375 0l0 5.8593903q0 0.875 0.4375 1.328125q0.4375 0.453125 1.265625 0.453125q0.40625 0 0.78125 -0.125q0.390625 -0.140625 0.671875 -0.375l0.46875 0.953125zm10.949432 -3.90625l-8.203125 0q0.109375 1.53125 1.171875 2.484375q1.0625 0.9375 2.6875 0.9375q0.90625 0 1.671875 -0.328125q0.765625 -0.328125 1.328125 -0.96875l0.75 0.859375q-0.65625 0.78125 -1.640625 1.203125q-0.96875 0.40625 -2.15625 0.40625q-1.5 0 -2.671875 -0.640625q-1.15625 -0.640625 -1.8125 -1.78125q-0.65625 -1.140625 -0.65625 -2.5781403q0 -1.4375 0.625 -2.578125q0.625 -1.140625 1.71875 -1.765625q1.09375 -0.640625 2.453125 -0.640625q1.359375 0 2.4375 0.640625q1.078125 0.625 1.6875 1.765625q0.625 1.125 0.625 2.578125l-0.015625 0.40626526zm-4.734375 -4.2500153q-1.421875 0 -2.390625 0.90625q-0.953125 0.90625 -1.078125 2.359375l6.953125 0q-0.125 -1.453125 -1.09375 -2.359375q-0.953125 -0.90625 -2.390625 -0.90625z" fill-rule="nonzero"/><path fill="#000000" fill-opacity="0.0" d="m250.00787 335.63516l83.02362 -0.2204895" fill-rule="evenodd"/><path stroke="#000000" stroke-width="1.0" stroke-linejoin="round" stroke-linecap="butt" d="m250.00787 335.63516l77.02365 -0.20455933" fill-rule="evenodd"/><path fill="#000000" stroke="#000000" stroke-width="1.0" stroke-linecap="butt" d="m327.0359 337.08234l4.533722 -1.6637878l-4.5424805 -1.639679z" fill-rule="evenodd"/><path fill="#000000" fill-opacity="0.0" d="m113.698166 335.63513l83.02362 -0.2204895" fill-rule="evenodd"/><path stroke="#000000" stroke-width="1.0" stroke-linejoin="round" stroke-linecap="butt" d="m113.698166 335.6351l77.023636 -0.20452881" fill-rule="evenodd"/><path fill="#000000" stroke="#000000" stroke-width="1.0" stroke-linecap="butt" d="m190.7262 337.0823l4.5336914 -1.6637878l-4.542465 -1.639679z" fill-rule="evenodd"/></g></svg>